<?xml version="1.0" encoding="UTF-8"?><svg id="Layer_1" xmlns="http://www.w3.org/2000/svg" viewBox="0 0 123.16 123.16"><defs><style>.cls-1{fill:#fff;}.cls-2{fill:#e2e0de;}.cls-3{fill:#4d78a3;}.cls-4{fill:#4ba5c6;}.cls-5{fill:#ff5542;}.cls-6{fill:#ff6453;}.cls-7{fill:#6b6b6b;}.cls-8{fill:#fbd350;}.cls-9{fill:#3398bd;}.cls-10{fill:none;}.cls-11{fill:#6acfa0;}.cls-12{fill:#ffda70;}</style></defs><circle class="cls-1" cx="62.2" cy="61.7" r="58.24"/><rect class="cls-10" width="123.16" height="123.16"/><g><rect class="cls-9" x="19.01" y="22.71" width="13.53" height="12.96"/><polygon class="cls-4" points="32.54 22.71 19.01 22.71 19.01 35.67 32.54 22.71"/><g><path class="cls-3" d="M34.81,24.29c-.1,0-.19-.08-.19-.19v-.56c0-.1,.08-.19,.19-.19s.19,.08,.19,.19v.56c0,.1-.08,.19-.19,.19Z"/><path class="cls-3" d="M34.81,33.84c-.1,0-.19-.08-.19-.19v-1.15c0-.1,.08-.19,.19-.19s.19,.08,.19,.19v1.15c0,.1-.08,.19-.19,.19Zm0-1.91c-.1,0-.19-.08-.19-.19v-1.15c0-.1,.08-.19,.19-.19s.19,.08,.19,.19v1.15c0,.1-.08,.19-.19,.19Zm0-1.91c-.1,0-.19-.08-.19-.19v-1.15c0-.1,.08-.19,.19-.19s.19,.08,.19,.19v1.15c0,.1-.08,.19-.19,.19Zm0-1.91c-.1,0-.19-.08-.19-.19v-1.15c0-.1,.08-.19,.19-.19s.19,.08,.19,.19v1.15c0,.1-.08,.19-.19,.19Zm0-1.91c-.1,0-.19-.08-.19-.19v-1.15c0-.1,.08-.19,.19-.19s.19,.08,.19,.19v1.15c0,.1-.08,.19-.19,.19Z"/><path class="cls-3" d="M34.81,35.17c-.1,0-.19-.08-.19-.19v-.56c0-.1,.08-.19,.19-.19s.19,.08,.19,.19v.56c0,.1-.08,.19-.19,.19Z"/><polygon class="cls-3" points="33.27 24.78 33.55 25.04 34.81 23.69 36.06 25.04 36.34 24.78 34.81 23.14 33.27 24.78"/></g><g><path class="cls-3" d="M38.37,24.42c-.1,0-.19-.08-.19-.19v-.56c0-.1,.08-.19,.19-.19s.19,.08,.19,.19v.56c0,.1-.08,.19-.19,.19Z"/><path class="cls-3" d="M38.37,33.97c-.1,0-.19-.08-.19-.19v-1.15c0-.1,.08-.19,.19-.19s.19,.08,.19,.19v1.15c0,.1-.08,.19-.19,.19Zm0-1.91c-.1,0-.19-.08-.19-.19v-1.15c0-.1,.08-.19,.19-.19s.19,.08,.19,.19v1.15c0,.1-.08,.19-.19,.19Zm0-1.91c-.1,0-.19-.08-.19-.19v-1.15c0-.1,.08-.19,.19-.19s.19,.08,.19,.19v1.15c0,.1-.08,.19-.19,.19Zm0-1.91c-.1,0-.19-.08-.19-.19v-1.15c0-.1,.08-.19,.19-.19s.19,.08,.19,.19v1.15c0,.1-.08,.19-.19,.19Zm0-1.91c-.1,0-.19-.08-.19-.19v-1.15c0-.1,.08-.19,.19-.19s.19,.08,.19,.19v1.15c0,.1-.08,.19-.19,.19Z"/><path class="cls-3" d="M38.37,35.29c-.1,0-.19-.08-.19-.19v-.56c0-.1,.08-.19,.19-.19s.19,.08,.19,.19v.56c0,.1-.08,.19-.19,.19Z"/><polygon class="cls-3" points="36.84 24.91 37.11 25.17 38.37 23.81 39.63 25.17 39.9 24.91 38.37 23.26 36.84 24.91"/></g><path class="cls-7" d="M87.3,99.54h-29.87l.19-.71c2.06-7.8-1.25-15.48-2.13-17.32-1.26,.4-4.74,1.51-5.72,1.92-1.27,.54-4.44,.71-6.23-.87-.88-.77-1.77-2.28-1-5.04,.03-.37-.32-2.64-1.73-3.76-.71-.56-.48-1.57-.21-2.23-.72-.39-.95-1.15-.96-1.59v-.16s.07-.14,.07-.14c1.33-2.31,1.33-3.48,1.18-3.86-3.87-.79-4.28-1.49-4.39-2.25-.05-.33,.08-.58,.87-2.01,1.23-2.21,4.1-7.37,3.23-9.05-1.04-2-1.54-4.31-.97-10.18,.45-4.68,3.41-9.33,8.33-13.09,6.78-5.19,15.9-7.59,23.79-6.26,18.91,3.19,21.73,15.95,21.73,23.27,0,5.4-2.19,11.39-5.86,16.02-6.07,7.65-8.51,13.78-7.26,18.21h0c.16,.55,.31,1.11,.47,1.66,1.37,4.92,2.79,10.01,6.08,16.61l.4,.81Zm-28.42-1.12h26.61c-3.05-6.3-4.43-11.23-5.76-15.99-.15-.55-.31-1.11-.46-1.66h0c-1.38-4.86,1.06-11.15,7.46-19.21,3.52-4.44,5.62-10.17,5.62-15.33,0-12.03-7.39-19.9-20.8-22.16-7.6-1.28-16.38,1.03-22.92,6.04-4.66,3.57-7.47,7.94-7.89,12.31-.54,5.59-.1,7.73,.85,9.55,1.07,2.04-1.11,6.29-3.24,10.12-.31,.55-.62,1.12-.73,1.36,.22,.53,2.4,1.04,3.71,1.3l.13,.03,.11,.09c.25,.2,1.36,1.37-.8,5.2,.05,.21,.2,.54,.68,.59l.86,.1-.44,.74c-.33,.56-.51,1.28-.36,1.4,1.91,1.51,2.26,4.41,2.12,4.92-.5,1.78-.28,3.1,.65,3.92,1.4,1.23,4.07,1.09,5.05,.68,1.25-.53,6.07-2.04,6.28-2.11l.44-.14,.22,.41c.2,.36,4.67,8.78,2.61,17.85Zm-16.34-20.91s0,0,0,0c0,0,0,0,0,0Zm-4.95-14.17h0s0,0,0,0Z"/><g><path class="cls-11" d="M99.63,95.79h-33.54c-.41,0-.75-.34-.75-.75s.34-.75,.75-.75h32.79V40.77c0-.41,.34-.75,.75-.75s.75,.34,.75,.75v54.27c0,.41-.34,.75-.75,.75Z"/><polygon class="cls-11" points="102.17 43.76 99.63 41.22 97.09 43.76 97.09 41.6 99.63 39.06 102.17 41.6 102.17 43.76"/></g><rect class="cls-4" x="90.33" y="22.35" width="7.4" height="7.4"/><rect class="cls-5" x="94.03" y="25.8" width="7.4" height="7.4"/><polygon class="cls-6" points="101.43 33.2 94.03 33.2 94.03 25.8 101.43 33.2"/><g><g><path class="cls-3" d="M19.57,38.6h-.56c-.1,0-.19-.08-.19-.19s.08-.19,.19-.19h.56c.1,0,.19,.08,.19,.19s-.08,.19-.19,.19Z"/><path class="cls-3" d="M33.54,38.6h-1.16c-.1,0-.19-.08-.19-.19s.08-.19,.19-.19h1.16c.1,0,.19,.08,.19,.19s-.08,.19-.19,.19Zm-2.33,0h-1.16c-.1,0-.19-.08-.19-.19s.08-.19,.19-.19h1.16c.1,0,.19,.08,.19,.19s-.08,.19-.19,.19Zm-2.33,0h-1.16c-.1,0-.19-.08-.19-.19s.08-.19,.19-.19h1.16c.1,0,.19,.08,.19,.19s-.08,.19-.19,.19Zm-2.33,0h-1.16c-.1,0-.19-.08-.19-.19s.08-.19,.19-.19h1.16c.1,0,.19,.08,.19,.19s-.08,.19-.19,.19Zm-2.33,0h-1.16c-.1,0-.19-.08-.19-.19s.08-.19,.19-.19h1.16c.1,0,.19,.08,.19,.19s-.08,.19-.19,.19Zm-2.33,0h-1.16c-.1,0-.19-.08-.19-.19s.08-.19,.19-.19h1.16c.1,0,.19,.08,.19,.19s-.08,.19-.19,.19Z"/><path class="cls-3" d="M35.26,38.6h-.56c-.1,0-.19-.08-.19-.19s.08-.19,.19-.19h.56c.1,0,.19,.08,.19,.19s-.08,.19-.19,.19Z"/></g><g><path class="cls-3" d="M19.57,41.02h-.56c-.1,0-.19-.08-.19-.19s.08-.19,.19-.19h.56c.1,0,.19,.08,.19,.19s-.08,.19-.19,.19Z"/><path class="cls-3" d="M33.54,41.02h-1.16c-.1,0-.19-.08-.19-.19s.08-.19,.19-.19h1.16c.1,0,.19,.08,.19,.19s-.08,.19-.19,.19Zm-2.33,0h-1.16c-.1,0-.19-.08-.19-.19s.08-.19,.19-.19h1.16c.1,0,.19,.08,.19,.19s-.08,.19-.19,.19Zm-2.33,0h-1.16c-.1,0-.19-.08-.19-.19s.08-.19,.19-.19h1.16c.1,0,.19,.08,.19,.19s-.08,.19-.19,.19Zm-2.33,0h-1.16c-.1,0-.19-.08-.19-.19s.08-.19,.19-.19h1.16c.1,0,.19,.08,.19,.19s-.08,.19-.19,.19Zm-2.33,0h-1.16c-.1,0-.19-.08-.19-.19s.08-.19,.19-.19h1.16c.1,0,.19,.08,.19,.19s-.08,.19-.19,.19Zm-2.33,0h-1.16c-.1,0-.19-.08-.19-.19s.08-.19,.19-.19h1.16c.1,0,.19,.08,.19,.19s-.08,.19-.19,.19Z"/><path class="cls-3" d="M35.26,41.02h-.56c-.1,0-.19-.08-.19-.19s.08-.19,.19-.19h.56c.1,0,.19,.08,.19,.19s-.08,.19-.19,.19Z"/></g><g><path class="cls-3" d="M19.57,43.44h-.56c-.1,0-.19-.08-.19-.19s.08-.19,.19-.19h.56c.1,0,.19,.08,.19,.19s-.08,.19-.19,.19Z"/><path class="cls-3" d="M33.54,43.44h-1.16c-.1,0-.19-.08-.19-.19s.08-.19,.19-.19h1.16c.1,0,.19,.08,.19,.19s-.08,.19-.19,.19Zm-2.33,0h-1.16c-.1,0-.19-.08-.19-.19s.08-.19,.19-.19h1.16c.1,0,.19,.08,.19,.19s-.08,.19-.19,.19Zm-2.33,0h-1.16c-.1,0-.19-.08-.19-.19s.08-.19,.19-.19h1.16c.1,0,.19,.08,.19,.19s-.08,.19-.19,.19Zm-2.33,0h-1.16c-.1,0-.19-.08-.19-.19s.08-.19,.19-.19h1.16c.1,0,.19,.08,.19,.19s-.08,.19-.19,.19Zm-2.33,0h-1.16c-.1,0-.19-.08-.19-.19s.08-.19,.19-.19h1.16c.1,0,.19,.08,.19,.19s-.08,.19-.19,.19Zm-2.33,0h-1.16c-.1,0-.19-.08-.19-.19s.08-.19,.19-.19h1.16c.1,0,.19,.08,.19,.19s-.08,.19-.19,.19Z"/><path class="cls-3" d="M35.26,43.44h-.56c-.1,0-.19-.08-.19-.19s.08-.19,.19-.19h.56c.1,0,.19,.08,.19,.19s-.08,.19-.19,.19Z"/></g><g><path class="cls-3" d="M19.57,45.85h-.56c-.1,0-.19-.08-.19-.19s.08-.19,.19-.19h.56c.1,0,.19,.08,.19,.19s-.08,.19-.19,.19Z"/><path class="cls-3" d="M33.54,45.85h-1.16c-.1,0-.19-.08-.19-.19s.08-.19,.19-.19h1.16c.1,0,.19,.08,.19,.19s-.08,.19-.19,.19Zm-2.33,0h-1.16c-.1,0-.19-.08-.19-.19s.08-.19,.19-.19h1.16c.1,0,.19,.08,.19,.19s-.08,.19-.19,.19Zm-2.33,0h-1.16c-.1,0-.19-.08-.19-.19s.08-.19,.19-.19h1.16c.1,0,.19,.08,.19,.19s-.08,.19-.19,.19Zm-2.33,0h-1.16c-.1,0-.19-.08-.19-.19s.08-.19,.19-.19h1.16c.1,0,.19,.08,.19,.19s-.08,.19-.19,.19Zm-2.33,0h-1.16c-.1,0-.19-.08-.19-.19s.08-.19,.19-.19h1.16c.1,0,.19,.08,.19,.19s-.08,.19-.19,.19Zm-2.33,0h-1.16c-.1,0-.19-.08-.19-.19s.08-.19,.19-.19h1.16c.1,0,.19,.08,.19,.19s-.08,.19-.19,.19Z"/><path class="cls-3" d="M35.26,45.85h-.56c-.1,0-.19-.08-.19-.19s.08-.19,.19-.19h.56c.1,0,.19,.08,.19,.19s-.08,.19-.19,.19Z"/></g><g><path class="cls-3" d="M19.57,48.27h-.56c-.1,0-.19-.08-.19-.19s.08-.19,.19-.19h.56c.1,0,.19,.08,.19,.19s-.08,.19-.19,.19Z"/><path class="cls-3" d="M27.59,48.27h-1c-.1,0-.19-.08-.19-.19s.08-.19,.19-.19h1c.1,0,.19,.08,.19,.19s-.08,.19-.19,.19Zm-2,0h-1c-.1,0-.19-.08-.19-.19s.08-.19,.19-.19h1c.1,0,.19,.08,.19,.19s-.08,.19-.19,.19Zm-2,0h-1c-.1,0-.19-.08-.19-.19s.08-.19,.19-.19h1c.1,0,.19,.08,.19,.19s-.08,.19-.19,.19Zm-2,0h-1c-.1,0-.19-.08-.19-.19s.08-.19,.19-.19h1c.1,0,.19,.08,.19,.19s-.08,.19-.19,.19Z"/><path class="cls-3" d="M29.15,48.27h-.56c-.1,0-.19-.08-.19-.19s.08-.19,.19-.19h.56c.1,0,.19,.08,.19,.19s-.08,.19-.19,.19Z"/></g><g><path class="cls-3" d="M19.57,50.87h-.56c-.1,0-.19-.08-.19-.19s.08-.19,.19-.19h.56c.1,0,.19,.08,.19,.19s-.08,.19-.19,.19Z"/><path class="cls-3" d="M33.54,50.87h-1.16c-.1,0-.19-.08-.19-.19s.08-.19,.19-.19h1.16c.1,0,.19,.08,.19,.19s-.08,.19-.19,.19Zm-2.33,0h-1.16c-.1,0-.19-.08-.19-.19s.08-.19,.19-.19h1.16c.1,0,.19,.08,.19,.19s-.08,.19-.19,.19Zm-2.33,0h-1.16c-.1,0-.19-.08-.19-.19s.08-.19,.19-.19h1.16c.1,0,.19,.08,.19,.19s-.08,.19-.19,.19Zm-2.33,0h-1.16c-.1,0-.19-.08-.19-.19s.08-.19,.19-.19h1.16c.1,0,.19,.08,.19,.19s-.08,.19-.19,.19Zm-2.33,0h-1.16c-.1,0-.19-.08-.19-.19s.08-.19,.19-.19h1.16c.1,0,.19,.08,.19,.19s-.08,.19-.19,.19Zm-2.33,0h-1.16c-.1,0-.19-.08-.19-.19s.08-.19,.19-.19h1.16c.1,0,.19,.08,.19,.19s-.08,.19-.19,.19Z"/><path class="cls-3" d="M35.26,50.87h-.56c-.1,0-.19-.08-.19-.19s.08-.19,.19-.19h.56c.1,0,.19,.08,.19,.19s-.08,.19-.19,.19Z"/></g><g><path class="cls-3" d="M19.57,53.28h-.56c-.1,0-.19-.08-.19-.19s.08-.19,.19-.19h.56c.1,0,.19,.08,.19,.19s-.08,.19-.19,.19Z"/><path class="cls-3" d="M33.54,53.28h-1.16c-.1,0-.19-.08-.19-.19s.08-.19,.19-.19h1.16c.1,0,.19,.08,.19,.19s-.08,.19-.19,.19Zm-2.33,0h-1.16c-.1,0-.19-.08-.19-.19s.08-.19,.19-.19h1.16c.1,0,.19,.08,.19,.19s-.08,.19-.19,.19Zm-2.33,0h-1.16c-.1,0-.19-.08-.19-.19s.08-.19,.19-.19h1.16c.1,0,.19,.08,.19,.19s-.08,.19-.19,.19Zm-2.33,0h-1.16c-.1,0-.19-.08-.19-.19s.08-.19,.19-.19h1.16c.1,0,.19,.08,.19,.19s-.08,.19-.19,.19Zm-2.33,0h-1.16c-.1,0-.19-.08-.19-.19s.08-.19,.19-.19h1.16c.1,0,.19,.08,.19,.19s-.08,.19-.19,.19Zm-2.33,0h-1.16c-.1,0-.19-.08-.19-.19s.08-.19,.19-.19h1.16c.1,0,.19,.08,.19,.19s-.08,.19-.19,.19Z"/><path class="cls-3" d="M35.26,53.28h-.56c-.1,0-.19-.08-.19-.19s.08-.19,.19-.19h.56c.1,0,.19,.08,.19,.19s-.08,.19-.19,.19Z"/></g><g><path class="cls-3" d="M19.57,55.7h-.56c-.1,0-.19-.08-.19-.19s.08-.19,.19-.19h.56c.1,0,.19,.08,.19,.19s-.08,.19-.19,.19Z"/><path class="cls-3" d="M33.54,55.7h-1.16c-.1,0-.19-.08-.19-.19s.08-.19,.19-.19h1.16c.1,0,.19,.08,.19,.19s-.08,.19-.19,.19Zm-2.33,0h-1.16c-.1,0-.19-.08-.19-.19s.08-.19,.19-.19h1.16c.1,0,.19,.08,.19,.19s-.08,.19-.19,.19Zm-2.33,0h-1.16c-.1,0-.19-.08-.19-.19s.08-.19,.19-.19h1.16c.1,0,.19,.08,.19,.19s-.08,.19-.19,.19Zm-2.33,0h-1.16c-.1,0-.19-.08-.19-.19s.08-.19,.19-.19h1.16c.1,0,.19,.08,.19,.19s-.08,.19-.19,.19Zm-2.33,0h-1.16c-.1,0-.19-.08-.19-.19s.08-.19,.19-.19h1.16c.1,0,.19,.08,.19,.19s-.08,.19-.19,.19Zm-2.33,0h-1.16c-.1,0-.19-.08-.19-.19s.08-.19,.19-.19h1.16c.1,0,.19,.08,.19,.19s-.08,.19-.19,.19Z"/><path class="cls-3" d="M35.26,55.7h-.56c-.1,0-.19-.08-.19-.19s.08-.19,.19-.19h.56c.1,0,.19,.08,.19,.19s-.08,.19-.19,.19Z"/></g><g><path class="cls-3" d="M19.57,58.12h-.56c-.1,0-.19-.08-.19-.19s.08-.19,.19-.19h.56c.1,0,.19,.08,.19,.19s-.08,.19-.19,.19Z"/><path class="cls-3" d="M33.54,58.12h-1.16c-.1,0-.19-.08-.19-.19s.08-.19,.19-.19h1.16c.1,0,.19,.08,.19,.19s-.08,.19-.19,.19Zm-2.33,0h-1.16c-.1,0-.19-.08-.19-.19s.08-.19,.19-.19h1.16c.1,0,.19,.08,.19,.19s-.08,.19-.19,.19Zm-2.33,0h-1.16c-.1,0-.19-.08-.19-.19s.08-.19,.19-.19h1.16c.1,0,.19,.08,.19,.19s-.08,.19-.19,.19Zm-2.33,0h-1.16c-.1,0-.19-.08-.19-.19s.08-.19,.19-.19h1.16c.1,0,.19,.08,.19,.19s-.08,.19-.19,.19Zm-2.33,0h-1.16c-.1,0-.19-.08-.19-.19s.08-.19,.19-.19h1.16c.1,0,.19,.08,.19,.19s-.08,.19-.19,.19Zm-2.33,0h-1.16c-.1,0-.19-.08-.19-.19s.08-.19,.19-.19h1.16c.1,0,.19,.08,.19,.19s-.08,.19-.19,.19Z"/><path class="cls-3" d="M35.26,58.12h-.56c-.1,0-.19-.08-.19-.19s.08-.19,.19-.19h.56c.1,0,.19,.08,.19,.19s-.08,.19-.19,.19Z"/></g><g><path class="cls-3" d="M19.57,60.53h-.56c-.1,0-.19-.08-.19-.19s.08-.19,.19-.19h.56c.1,0,.19,.08,.19,.19s-.08,.19-.19,.19Z"/><path class="cls-3" d="M27.59,60.53h-1c-.1,0-.19-.08-.19-.19s.08-.19,.19-.19h1c.1,0,.19,.08,.19,.19s-.08,.19-.19,.19Zm-2,0h-1c-.1,0-.19-.08-.19-.19s.08-.19,.19-.19h1c.1,0,.19,.08,.19,.19s-.08,.19-.19,.19Zm-2,0h-1c-.1,0-.19-.08-.19-.19s.08-.19,.19-.19h1c.1,0,.19,.08,.19,.19s-.08,.19-.19,.19Zm-2,0h-1c-.1,0-.19-.08-.19-.19s.08-.19,.19-.19h1c.1,0,.19,.08,.19,.19s-.08,.19-.19,.19Z"/><path class="cls-3" d="M29.15,60.53h-.56c-.1,0-.19-.08-.19-.19s.08-.19,.19-.19h.56c.1,0,.19,.08,.19,.19s-.08,.19-.19,.19Z"/></g></g><g><path class="cls-3" d="M105.36,64.36h-.52c-.1,0-.19-.08-.19-.19s.08-.19,.19-.19h.52c.1,0,.19,.08,.19,.19s-.08,.19-.19,.19Zm-1.64,0h-1.12c-.1,0-.19-.08-.19-.19s.08-.19,.19-.19h1.12c.1,0,.19,.08,.19,.19s-.08,.19-.19,.19Zm-2.25,0h-1.12c-.1,0-.19-.08-.19-.19s.08-.19,.19-.19h1.12c.1,0,.19,.08,.19,.19s-.08,.19-.19,.19Zm-2.25,0h-1.12c-.1,0-.19-.08-.19-.19s.08-.19,.19-.19h1.12c.1,0,.19,.08,.19,.19s-.08,.19-.19,.19Zm-2.25,0h-1.12c-.1,0-.19-.08-.19-.19s.08-.19,.19-.19h1.12c.1,0,.19,.08,.19,.19s-.08,.19-.19,.19Zm-2.25,0h-1.12c-.1,0-.19-.08-.19-.19s.08-.19,.19-.19h1.12c.1,0,.19,.08,.19,.19s-.08,.19-.19,.19Zm-2.25,0h-1.12c-.1,0-.19-.08-.19-.19s.08-.19,.19-.19h1.12c.1,0,.19,.08,.19,.19s-.08,.19-.19,.19Zm-2.25,0h-1.12c-.1,0-.19-.08-.19-.19s.08-.19,.19-.19h1.12c.1,0,.19,.08,.19,.19s-.08,.19-.19,.19Z"/><path class="cls-3" d="M105.36,66.78h-16.26c-.1,0-.19-.08-.19-.19s.08-.19,.19-.19h16.26c.1,0,.19,.08,.19,.19s-.08,.19-.19,.19Z"/><path class="cls-3" d="M105.36,69.19h-.52c-.1,0-.19-.08-.19-.19s.08-.19,.19-.19h.52c.1,0,.19,.08,.19,.19s-.08,.19-.19,.19Zm-1.64,0h-1.12c-.1,0-.19-.08-.19-.19s.08-.19,.19-.19h1.12c.1,0,.19,.08,.19,.19s-.08,.19-.19,.19Zm-2.25,0h-1.12c-.1,0-.19-.08-.19-.19s.08-.19,.19-.19h1.12c.1,0,.19,.08,.19,.19s-.08,.19-.19,.19Zm-2.25,0h-1.12c-.1,0-.19-.08-.19-.19s.08-.19,.19-.19h1.12c.1,0,.19,.08,.19,.19s-.08,.19-.19,.19Zm-2.25,0h-1.12c-.1,0-.19-.08-.19-.19s.08-.19,.19-.19h1.12c.1,0,.19,.08,.19,.19s-.08,.19-.19,.19Zm-2.25,0h-1.12c-.1,0-.19-.08-.19-.19s.08-.19,.19-.19h1.12c.1,0,.19,.08,.19,.19s-.08,.19-.19,.19Zm-2.25,0h-1.12c-.1,0-.19-.08-.19-.19s.08-.19,.19-.19h1.12c.1,0,.19,.08,.19,.19s-.08,.19-.19,.19Zm-2.25,0h-1.12c-.1,0-.19-.08-.19-.19s.08-.19,.19-.19h1.12c.1,0,.19,.08,.19,.19s-.08,.19-.19,.19Z"/><path class="cls-3" d="M105.36,71.61h-16.26c-.1,0-.19-.08-.19-.19s.08-.19,.19-.19h16.26c.1,0,.19,.08,.19,.19s-.08,.19-.19,.19Z"/><path class="cls-3" d="M99.25,74.03h-10.14c-.1,0-.19-.08-.19-.19s.08-.19,.19-.19h10.14c.1,0,.19,.08,.19,.19s-.08,.19-.19,.19Z"/><path class="cls-3" d="M105.36,76.62h-16.26c-.1,0-.19-.08-.19-.19s.08-.19,.19-.19h16.26c.1,0,.19,.08,.19,.19s-.08,.19-.19,.19Z"/><path class="cls-3" d="M105.36,79.04h-.52c-.1,0-.19-.08-.19-.19s.08-.19,.19-.19h.52c.1,0,.19,.08,.19,.19s-.08,.19-.19,.19Zm-1.64,0h-1.12c-.1,0-.19-.08-.19-.19s.08-.19,.19-.19h1.12c.1,0,.19,.08,.19,.19s-.08,.19-.19,.19Zm-2.25,0h-1.12c-.1,0-.19-.08-.19-.19s.08-.19,.19-.19h1.12c.1,0,.19,.08,.19,.19s-.08,.19-.19,.19Zm-2.25,0h-1.12c-.1,0-.19-.08-.19-.19s.08-.19,.19-.19h1.12c.1,0,.19,.08,.19,.19s-.08,.19-.19,.19Zm-2.25,0h-1.12c-.1,0-.19-.08-.19-.19s.08-.19,.19-.19h1.12c.1,0,.19,.08,.19,.19s-.08,.19-.19,.19Zm-2.25,0h-1.12c-.1,0-.19-.08-.19-.19s.08-.19,.19-.19h1.12c.1,0,.19,.08,.19,.19s-.08,.19-.19,.19Zm-2.25,0h-1.12c-.1,0-.19-.08-.19-.19s.08-.19,.19-.19h1.12c.1,0,.19,.08,.19,.19s-.08,.19-.19,.19Zm-2.25,0h-1.12c-.1,0-.19-.08-.19-.19s.08-.19,.19-.19h1.12c.1,0,.19,.08,.19,.19s-.08,.19-.19,.19Z"/><path class="cls-3" d="M105.36,81.46h-16.26c-.1,0-.19-.08-.19-.19s.08-.19,.19-.19h16.26c.1,0,.19,.08,.19,.19s-.08,.19-.19,.19Z"/><path class="cls-3" d="M105.36,83.87h-16.26c-.1,0-.19-.08-.19-.19s.08-.19,.19-.19h16.26c.1,0,.19,.08,.19,.19s-.08,.19-.19,.19Z"/><path class="cls-3" d="M99.22,86.29h-1.12c-.1,0-.19-.08-.19-.19s.08-.19,.19-.19h1.12c.1,0,.19,.08,.19,.19s-.08,.19-.19,.19Zm-2.25,0h-1.12c-.1,0-.19-.08-.19-.19s.08-.19,.19-.19h1.12c.1,0,.19,.08,.19,.19s-.08,.19-.19,.19Zm-2.25,0h-1.12c-.1,0-.19-.08-.19-.19s.08-.19,.19-.19h1.12c.1,0,.19,.08,.19,.19s-.08,.19-.19,.19Zm-2.25,0h-1.12c-.1,0-.19-.08-.19-.19s.08-.19,.19-.19h1.12c.1,0,.19,.08,.19,.19s-.08,.19-.19,.19Zm-2.25,0h-1.12c-.1,0-.19-.08-.19-.19s.08-.19,.19-.19h1.12c.1,0,.19,.08,.19,.19s-.08,.19-.19,.19Z"/></g><circle class="cls-8" cx="66.09" cy="46.43" r="16.19"/><path class="cls-12" d="M66.09,62.68c-8.94,0-16.19-7.25-16.19-16.19s7.25-16.19,16.19-16.19V62.68Z"/><path class="cls-8" d="M66.09,95.98c-.52,0-.94-.42-.94-.94V62.62c0-.52,.42-.94,.94-.94s.94,.42,.94,.94v32.42c0,.52-.42,.94-.94,.94Z"/><path class="cls-8" d="M66.09,75.93s-3.35,.18-6.12-1.67-3.89-5.01-3.89-5.01c0,0,3.35-.18,6.12,1.67s3.89,5.01,3.89,5.01Z"/><path class="cls-8" d="M66.09,75.93s3.35,.18,6.12-1.67,3.89-5.01,3.89-5.01c0,0-3.35-.18-6.12,1.67s-3.89,5.01-3.89,5.01Z"/><path class="cls-8" d="M66.09,27.94c-.52,0-.94-.42-.94-.94v-6c0-.52,.42-.94,.94-.94s.94,.42,.94,.94v6c0,.52-.42,.94-.94,.94Z"/><path class="cls-8" d="M47.37,46.65h-6c-.52,0-.94-.42-.94-.94s.42-.94,.94-.94h6c.52,0,.94,.42,.94,.94s-.42,.94-.94,.94Z"/><path class="cls-8" d="M90.81,46.65h-6c-.52,0-.94-.42-.94-.94s.42-.94,.94-.94h6c.52,0,.94,.42,.94,.94s-.42,.94-.94,.94Z"/><path class="cls-8" d="M48.62,64.13c-.24,0-.48-.09-.66-.27-.37-.37-.37-.96,0-1.32l4.24-4.24c.37-.37,.96-.37,1.32,0,.37,.37,.37,.96,0,1.32l-4.24,4.24c-.18,.18-.42,.27-.66,.27Z"/><path class="cls-8" d="M79.33,33.42c-.24,0-.48-.09-.66-.27-.37-.37-.37-.96,0-1.32l4.24-4.24c.37-.37,.96-.37,1.32,0,.37,.37,.37,.96,0,1.32l-4.24,4.24c-.18,.18-.42,.27-.66,.27Z"/><path class="cls-8" d="M83.57,64.13c-.24,0-.48-.09-.66-.27l-4.24-4.24c-.37-.37-.37-.96,0-1.32,.37-.37,.96-.37,1.32,0l4.24,4.24c.37,.37,.37,.96,0,1.32-.18,.18-.42,.27-.66,.27Z"/><path class="cls-8" d="M52.86,33.42c-.24,0-.48-.09-.66-.27l-4.24-4.24c-.37-.37-.37-.96,0-1.32,.37-.37,.96-.37,1.32,0l4.24,4.24c.37,.37,.37,.96,0,1.32-.18,.18-.42,.27-.66,.27Z"/><path class="cls-1" d="M67.09,37.91h-.34c-.13-1.25-1.18-2.22-2.46-2.22-.58,0-1.11,.2-1.53,.53-.41-.81-1.24-1.37-2.21-1.37-1.37,0-2.48,1.11-2.48,2.48,0,.2,.02,.4,.07,.58h-.49c-.87,0-1.57,.7-1.57,1.57s.7,1.57,1.57,1.57h9.44c.87,0,1.57-.7,1.57-1.57s-.7-1.57-1.57-1.57Z"/><path class="cls-1" d="M77.1,45.68h-.34c-.13-1.25-1.18-2.22-2.46-2.22-.58,0-1.11,.2-1.53,.53-.41-.81-1.24-1.37-2.21-1.37-1.37,0-2.48,1.11-2.48,2.48,0,.2,.02,.4,.07,.58h-.49c-.87,0-1.57,.7-1.57,1.57s.7,1.57,1.57,1.57h9.44c.87,0,1.57-.7,1.57-1.57s-.7-1.57-1.57-1.57Z"/><path class="cls-1" d="M67.09,51.96h-.34c-.13-1.25-1.18-2.22-2.46-2.22-.58,0-1.11,.2-1.53,.53-.41-.81-1.24-1.37-2.21-1.37-1.37,0-2.48,1.11-2.48,2.48,0,.2,.02,.4,.07,.58h-.49c-.87,0-1.57,.7-1.57,1.57s.7,1.57,1.57,1.57h9.44c.87,0,1.57-.7,1.57-1.57s-.7-1.57-1.57-1.57Z"/><rect class="cls-8" x="19.01" y="78.76" width="10.35" height="10.35"/><rect class="cls-8" x="31.15" y="85.68" width="10.35" height="10.35"/><rect class="cls-8" x="19.01" y="90.86" width="10.35" height="10.35"/><polygon class="cls-12" points="29.35 89.11 19.01 89.11 19.01 78.76 29.35 89.11"/><polygon class="cls-12" points="41.5 96.03 31.15 96.03 31.15 85.68 41.5 96.03"/><polygon class="cls-12" points="29.35 101.21 19.01 101.21 19.01 90.86 29.35 101.21"/><path class="cls-2" d="M69.34,93.07c-.1,0-.19-.08-.19-.19v-2.3c0-.1,.08-.19,.19-.19s.19,.08,.19,.19v2.3c0,.1-.08,.19-.19,.19Z"/><path class="cls-2" d="M71.25,93.07c-.1,0-.19-.08-.19-.19v-3.05c0-.1,.08-.19,.19-.19s.19,.08,.19,.19v3.05c0,.1-.08,.19-.19,.19Z"/><path class="cls-2" d="M73.17,93.07c-.1,0-.19-.08-.19-.19v-3.74c0-.1,.08-.19,.19-.19s.19,.08,.19,.19v3.74c0,.1-.08,.19-.19,.19Z"/><path class="cls-2" d="M75.08,93.07c-.1,0-.19-.08-.19-.19v-4.71c0-.1,.08-.19,.19-.19s.19,.08,.19,.19v4.71c0,.1-.08,.19-.19,.19Z"/><path class="cls-2" d="M77.08,93.13c-.1,0-.19-.08-.19-.19v-6.36c0-.1,.08-.19,.19-.19s.19,.08,.19,.19v6.36c0,.1-.08,.19-.19,.19Z"/><path class="cls-2" d="M78.74,93.07h0c-.1,0-.19-.08-.19-.19l.03-8.27c0-.1,.08-.19,.19-.19h0c.1,0,.19,.08,.19,.19l-.03,8.27c0,.1-.08,.19-.19,.19Z"/><path class="cls-2" d="M80.65,93.07c-.1,0-.19-.08-.19-.19v-7.85c0-.1,.08-.19,.19-.19s.19,.08,.19,.19v7.85c0,.1-.08,.19-.19,.19Z"/><path class="cls-2" d="M82.56,93.07c-.1,0-.19-.08-.19-.19v-6.97c0-.1,.08-.19,.19-.19s.19,.08,.19,.19v6.97c0,.1-.08,.19-.19,.19Z"/><path class="cls-2" d="M84.48,93.07c-.1,0-.19-.08-.19-.19v-5.32c0-.1,.08-.19,.19-.19s.19,.08,.19,.19v5.32c0,.1-.08,.19-.19,.19Z"/><path class="cls-2" d="M86.39,93.07c-.1,0-.19-.08-.19-.19v-4.44c0-.1,.08-.19,.19-.19s.19,.08,.19,.19v4.44c0,.1-.08,.19-.19,.19Z"/><path class="cls-2" d="M88.31,93.07c-.1,0-.19-.08-.19-.19v-3.44c0-.1,.08-.19,.19-.19s.19,.08,.19,.19v3.44c0,.1-.08,.19-.19,.19Z"/><path class="cls-2" d="M90.22,93.07c-.1,0-.19-.08-.19-.19v-2.3c0-.1,.08-.19,.19-.19s.19,.08,.19,.19v2.3c0,.1-.08,.19-.19,.19Z"/><path class="cls-2" d="M91.81,93.07c-.1,0-.19-.08-.19-.19v-2.3c0-.1,.08-.19,.19-.19s.19,.08,.19,.19v2.3c0,.1-.08,.19-.19,.19Z"/><path class="cls-2" d="M93.72,93.07c-.1,0-.19-.08-.19-.19v-3.05c0-.1,.08-.19,.19-.19s.19,.08,.19,.19v3.05c0,.1-.08,.19-.19,.19Z"/><path class="cls-2" d="M43.23,100.15c-.1,0-.19-.08-.19-.19v-2.3c0-.1,.08-.19,.19-.19s.19,.08,.19,.19v2.3c0,.1-.08,.19-.19,.19Z"/><path class="cls-2" d="M45.15,100.15c-.1,0-.19-.08-.19-.19v-3.05c0-.1,.08-.19,.19-.19s.19,.08,.19,.19v3.05c0,.1-.08,.19-.19,.19Z"/><path class="cls-2" d="M47.06,100.15c-.1,0-.19-.08-.19-.19v-3.74c0-.1,.08-.19,.19-.19s.19,.08,.19,.19v3.74c0,.1-.08,.19-.19,.19Z"/><path class="cls-2" d="M48.97,100.15c-.1,0-.19-.08-.19-.19v-4.71c0-.1,.08-.19,.19-.19s.19,.08,.19,.19v4.71c0,.1-.08,.19-.19,.19Z"/><path class="cls-2" d="M50.97,100.21c-.1,0-.19-.08-.19-.19v-6.36c0-.1,.08-.19,.19-.19s.19,.08,.19,.19v6.36c0,.1-.08,.19-.19,.19Z"/><path class="cls-2" d="M52.63,100.15h0c-.1,0-.19-.08-.19-.19l.03-8.27c0-.1,.08-.19,.19-.19h0c.1,0,.19,.08,.19,.19l-.03,8.27c0,.1-.08,.19-.19,.19Z"/><path class="cls-2" d="M54.54,100.15c-.1,0-.19-.08-.19-.19v-7.85c0-.1,.08-.19,.19-.19s.19,.08,.19,.19v7.85c0,.1-.08,.19-.19,.19Z"/><path class="cls-2" d="M56.45,100.15c-.1,0-.19-.08-.19-.19v-6.97c0-.1,.08-.19,.19-.19s.19,.08,.19,.19v6.97c0,.1-.08,.19-.19,.19Z"/><path class="cls-2" d="M58.37,100.15c-.1,0-.19-.08-.19-.19v-5.32c0-.1,.08-.19,.19-.19s.19,.08,.19,.19v5.32c0,.1-.08,.19-.19,.19Z"/><path class="cls-2" d="M60.28,100.15c-.1,0-.19-.08-.19-.19v-4.44c0-.1,.08-.19,.19-.19s.19,.08,.19,.19v4.44c0,.1-.08,.19-.19,.19Z"/><path class="cls-2" d="M62.2,100.15c-.1,0-.19-.08-.19-.19v-3.44c0-.1,.08-.19,.19-.19s.19,.08,.19,.19v3.44c0,.1-.08,.19-.19,.19Z"/><path class="cls-2" d="M64.11,100.15c-.1,0-.19-.08-.19-.19v-2.3c0-.1,.08-.19,.19-.19s.19,.08,.19,.19v2.3c0,.1-.08,.19-.19,.19Z"/><path class="cls-2" d="M65.7,100.15c-.1,0-.19-.08-.19-.19v-2.3c0-.1,.08-.19,.19-.19s.19,.08,.19,.19v2.3c0,.1-.08,.19-.19,.19Z"/><path class="cls-2" d="M67.61,100.15c-.1,0-.19-.08-.19-.19v-3.05c0-.1,.08-.19,.19-.19s.19,.08,.19,.19v3.05c0,.1-.08,.19-.19,.19Z"/><rect class="cls-5" x="33.78" y="88.44" width="4.84" height="4.84"/><rect class="cls-5" x="21.76" y="81.37" width="4.84" height="4.84"/><rect class="cls-5" x="21.76" y="93.61" width="4.84" height="4.84"/><polygon class="cls-6" points="38.62 93.28 33.78 93.28 33.78 88.44 38.62 93.28"/><polygon class="cls-6" points="26.6 86.21 21.76 86.21 21.76 81.37 26.6 86.21"/><polygon class="cls-6" points="26.6 98.45 21.76 98.45 21.76 93.61 26.6 98.45"/><g><path class="cls-3" d="M96.07,101.69H35.08v-5.3c0-.1,.08-.19,.19-.19s.19,.08,.19,.19v4.92h60.24v-12.18c0-.1,.08-.19,.19-.19s.19,.08,.19,.19v12.56Z"/><polygon class="cls-3" points="94.35 90.37 94.62 90.62 95.88 89.27 97.14 90.62 97.41 90.37 95.88 88.72 94.35 90.37"/></g><g><path class="cls-3" d="M24.18,96.22c-.1,0-.19-.08-.19-.19v-1.12c0-.1,.08-.19,.18-.19h0c.1,0,.19,.08,.19,.19v1.12c0,.1-.08,.19-.18,.19h0Zm0-1.87c-.1,0-.19-.08-.19-.19v-1.12c0-.1,.08-.19,.18-.19h0c.1,0,.19,.08,.19,.19v1.12c0,.1-.08,.19-.18,.19h0Zm0-1.87c-.1,0-.19-.08-.19-.19v-1.12c0-.1,.08-.19,.18-.19h0c.1,0,.19,.08,.19,.19v1.12c0,.1-.08,.19-.18,.19h0Zm0-1.87c-.1,0-.19-.08-.19-.19v-1.12c0-.1,.08-.19,.18-.19h0c.1,0,.19,.08,.19,.19v1.12c0,.1-.08,.19-.18,.19h0Zm0-1.87c-.1,0-.19-.08-.19-.19v-1.12c0-.1,.07-.18,.18-.19,.1,0,.19,.08,.19,.19v1.12c0,.1-.08,.19-.18,.19h0Zm0-1.87c-.1,0-.19-.08-.19-.19v-1.12c0-.1,.07-.18,.18-.19,.1,0,.19,.08,.19,.19v1.12c0,.1-.08,.19-.18,.19h0Zm0-1.87c-.1,0-.19-.08-.19-.19v-1.12c0-.1,.08-.17,.18-.19,.1,0,.19,.08,.19,.19v1.12c0,.1-.08,.19-.18,.19h0Zm0-1.87c-.1,0-.19-.08-.19-.19v-1.12c0-.1,.08-.19,.18-.19h0c.1,0,.19,.08,.19,.19v1.12c0,.1-.08,.19-.18,.19h0Zm0-1.87c-.1,0-.19-.08-.19-.19v-1.12c0-.1,.08-.19,.18-.19h0c.1,0,.19,.08,.19,.19v1.12c0,.1-.07,.17-.18,.19Zm0-1.87c-.1,0-.19-.08-.19-.19v-1.12c0-.1,.08-.19,.18-.19h0c.1,0,.19,.08,.19,.19v1.12c0,.1-.07,.18-.18,.19Zm0-1.87c-.1,0-.19-.08-.19-.19v-1.12c0-.1,.08-.19,.18-.19,.12-.01,.19,.08,.19,.19v1.12c0,.1-.06,.18-.18,.19Zm0-1.87c-.1,0-.19-.08-.19-.19v-1.12c0-.1,.08-.19,.18-.19h0c.1,0,.19,.08,.19,.19v1.12c0,.1-.08,.19-.18,.19h0Zm0-1.87c-.1,0-.19-.08-.19-.19v-1.12c0-.1,.08-.19,.18-.19h0c.1,0,.19,.08,.19,.19v1.12c0,.1-.08,.19-.18,.19h0Zm0-1.87c-.1,0-.19-.08-.19-.19v-1.12c0-.1,.08-.19,.18-.19h0c.1,0,.19,.08,.19,.19v1.12c0,.1-.08,.19-.18,.19h0Zm0-1.87c-.1,0-.19-.08-.19-.19v-1.12c0-.1,.08-.19,.18-.19h0c.1,0,.19,.08,.19,.19v1.12c0,.1-.08,.19-.18,.19h0Zm0-1.87c-.1,0-.19-.08-.19-.19v-1.12c0-.1,.08-.19,.18-.19h0c.1,0,.19,.08,.19,.19v1.12c0,.1-.08,.19-.18,.19h0Zm0-1.87c-.1,0-.19-.08-.19-.19v-1.12c0-.1,.08-.19,.18-.19h0c.1,0,.19,.08,.19,.19v1.12c0,.1-.08,.19-.18,.19h0Zm0-1.87c-.1,0-.19-.08-.19-.19v-.74c0-.1,.08-.19,.18-.19h0c.1,0,.19,.08,.19,.19v.74c0,.1-.08,.19-.18,.19h0Z"/><polygon class="cls-3" points="25.62 64.68 25.34 64.93 24.08 63.58 22.83 64.94 22.55 64.69 24.08 63.03 25.62 64.68"/></g><g><path class="cls-3" d="M36.2,91.04c-.1,0-.19-.08-.19-.19v-.88c0-.1,.08-.19,.19-.19s.19,.08,.19,.19v.88c0,.1-.08,.19-.19,.19Zm0-1.63c-.1,0-.19-.08-.19-.19v-1.12c0-.1,.08-.19,.19-.19s.19,.08,.19,.19v1.12c0,.1-.08,.19-.19,.19Zm0-1.87c-.1,0-.19-.08-.19-.19v-1.12c0-.1,.08-.19,.19-.19s.19,.08,.19,.19v1.12c0,.1-.08,.19-.19,.19Zm0-1.87c-.1,0-.19-.08-.19-.19v-1.12c0-.1,.08-.19,.19-.19s.19,.08,.19,.19v1.12c0,.1-.08,.19-.19,.19Zm0-1.87c-.1,0-.19-.08-.19-.19v-1.12c0-.1,.08-.19,.19-.19s.19,.08,.19,.19v1.12c0,.1-.08,.19-.19,.19Zm0-1.87c-.1,0-.19-.08-.19-.19v-1.12c0-.1,.08-.19,.19-.19s.19,.08,.19,.19v1.12c0,.1-.08,.19-.19,.19Zm0-1.87c-.1,0-.19-.08-.19-.19v-1.12c0-.1,.08-.19,.19-.19s.19,.08,.19,.19v1.12c0,.1-.08,.19-.19,.19Zm0-1.87c-.1,0-.19-.08-.19-.19v-1.12c0-.1,.08-.19,.19-.19s.19,.08,.19,.19v1.12c0,.1-.08,.19-.19,.19Zm0-1.87c-.1,0-.19-.08-.19-.19v-1.12c0-.1,.08-.19,.19-.19s.19,.08,.19,.19v1.12c0,.1-.08,.19-.19,.19Zm0-1.87c-.1,0-.19-.08-.19-.19v-1.12c0-.1,.08-.19,.19-.19s.19,.08,.19,.19v1.12c0,.1-.08,.19-.19,.19Zm0-1.87c-.1,0-.19-.08-.19-.19v-1.12c0-.1,.08-.19,.19-.19s.19,.08,.19,.19v1.12c0,.1-.08,.19-.19,.19Z"/><polygon class="cls-3" points="34.67 72.48 34.94 72.73 36.2 71.38 37.46 72.73 37.73 72.48 36.2 70.83 34.67 72.48"/></g><rect class="cls-6" x="93.31" y="59.03" width="3.34" height="3.34"/><rect class="cls-6" x="93.31" y="54.8" width="3.34" height="3.34"/><rect class="cls-2" x="102.24" y="59.03" width="3.34" height="3.34"/><rect class="cls-8" x="102.24" y="54.8" width="3.34" height="3.34"/><rect class="cls-2" x="102.24" y="50.66" width="3.34" height="3.34"/><rect class="cls-8" x="102.24" y="46.43" width="3.34" height="3.34"/><path class="cls-3" d="M65.65,63.4h0c-.38,0-.76-.03-1.13-.07-.1,0-.18-.1-.17-.2,0-.1,.1-.18,.2-.17,.37,.03,.74,.06,1.11,.07,.1,0,.19,.09,.18,.19,0,.1-.09,.18-.19,.18Zm1.12,0c-.1,0-.18-.08-.19-.18,0-.1,.08-.19,.18-.19,.37-.01,.74-.04,1.11-.08,.11-.01,.2,.06,.21,.17,.01,.1-.06,.2-.17,.21-.37,.04-.76,.07-1.13,.08,0,0,0,0,0,0Zm-3.36-.2s-.02,0-.03,0c-.37-.06-.75-.13-1.12-.22-.1-.02-.16-.12-.14-.22,.02-.1,.12-.16,.22-.14,.36,.08,.73,.15,1.09,.21,.1,.02,.17,.11,.16,.21-.01,.09-.09,.16-.18,.16Zm5.59-.04c-.09,0-.17-.06-.18-.16-.02-.1,.05-.2,.15-.22,.36-.06,.73-.14,1.09-.23,.1-.02,.2,.04,.23,.14,.02,.1-.04,.2-.14,.23-.37,.09-.74,.17-1.11,.23-.01,0-.02,0-.03,0Zm-7.78-.46s-.04,0-.05,0c-.36-.11-.72-.23-1.08-.36-.1-.04-.15-.14-.11-.24,.04-.1,.14-.15,.24-.11,.35,.13,.7,.25,1.05,.36,.1,.03,.16,.13,.13,.23-.02,.08-.1,.13-.18,.13Zm9.96-.07c-.08,0-.15-.05-.18-.13-.03-.1,.02-.2,.12-.23,.35-.11,.7-.24,1.05-.37,.1-.04,.2,0,.24,.11,.04,.1,0,.2-.11,.24-.35,.14-.71,.27-1.07,.38-.02,0-.04,0-.06,0Zm-12.07-.72s-.05,0-.08-.02c-.34-.16-.69-.33-1.02-.5-.09-.05-.13-.16-.08-.25,.05-.09,.16-.13,.25-.08,.32,.17,.66,.34,1,.49,.09,.04,.14,.15,.09,.25-.03,.07-.1,.11-.17,.11Zm14.16-.1c-.07,0-.14-.04-.17-.11-.04-.09,0-.21,.09-.25,.33-.16,.67-.33,.99-.51,.09-.05,.2-.02,.25,.07,.05,.09,.02,.2-.07,.25-.33,.18-.67,.36-1.01,.52-.03,.01-.05,.02-.08,.02Zm-16.14-.97s-.07,0-.1-.03c-.32-.2-.64-.41-.94-.64-.08-.06-.1-.18-.04-.26,.06-.08,.18-.1,.26-.04,.3,.22,.61,.43,.92,.62,.09,.06,.11,.17,.06,.26-.04,.06-.1,.09-.16,.09Zm18.1-.12c-.06,0-.12-.03-.16-.09-.06-.09-.03-.2,.06-.26,.31-.2,.62-.41,.91-.63,.08-.06,.2-.04,.26,.04,.06,.08,.04,.2-.04,.26-.3,.23-.62,.44-.93,.65-.03,.02-.07,.03-.1,.03Zm-19.92-1.2s-.08-.01-.12-.04c-.29-.24-.58-.49-.85-.75-.08-.07-.08-.19,0-.26,.07-.07,.19-.08,.27,0,.27,.25,.55,.5,.83,.74,.08,.07,.09,.18,.02,.26-.04,.04-.09,.07-.14,.07Zm21.73-.14c-.05,0-.11-.02-.14-.07-.07-.08-.06-.2,.02-.26,.28-.24,.56-.49,.82-.75,.07-.07,.19-.07,.26,0,.07,.07,.07,.19,0,.27-.27,.26-.55,.52-.84,.76-.04,.03-.08,.04-.12,.04Zm-23.36-1.4c-.05,0-.1-.02-.14-.06-.26-.28-.51-.57-.74-.86-.06-.08-.05-.2,.03-.26,.08-.07,.2-.05,.26,.03,.23,.29,.48,.57,.73,.84,.07,.08,.07,.19-.01,.26-.04,.03-.08,.05-.13,.05Zm24.97-.16s-.09-.02-.13-.05c-.08-.07-.08-.19-.01-.26,.25-.27,.49-.56,.72-.85,.06-.08,.18-.1,.26-.03,.08,.06,.1,.18,.03,.26-.23,.3-.48,.59-.73,.87-.04,.04-.09,.06-.14,.06Zm-26.38-1.58c-.06,0-.12-.03-.15-.08-.22-.31-.43-.63-.62-.95-.05-.09-.03-.2,.06-.26,.09-.05,.2-.03,.26,.06,.19,.32,.4,.63,.61,.93,.06,.08,.04,.2-.05,.26-.03,.02-.07,.03-.11,.03Zm27.77-.18s-.07-.01-.11-.03c-.09-.06-.11-.18-.05-.26,.21-.3,.41-.62,.6-.94,.05-.09,.17-.12,.26-.07,.09,.05,.12,.17,.07,.26-.19,.32-.4,.65-.61,.96-.04,.05-.09,.08-.15,.08Zm-28.93-1.73c-.07,0-.13-.04-.17-.1-.17-.33-.34-.68-.49-1.02-.04-.09,0-.21,.1-.25,.1-.04,.21,0,.25,.1,.15,.34,.31,.68,.48,1,.05,.09,.01,.2-.08,.25-.03,.01-.06,.02-.09,.02Zm30.08-.2s-.06,0-.08-.02c-.09-.05-.13-.16-.08-.25,.17-.33,.32-.67,.47-1.01,.04-.1,.15-.14,.25-.1,.1,.04,.14,.15,.1,.25-.15,.35-.31,.7-.48,1.03-.03,.07-.1,.1-.17,.1Zm-30.98-1.85c-.08,0-.15-.05-.18-.12-.13-.35-.25-.72-.35-1.08-.03-.1,.03-.2,.13-.23,.1-.03,.2,.03,.23,.13,.1,.35,.22,.71,.34,1.06,.04,.1-.02,.2-.11,.24-.02,0-.04,.01-.06,.01Zm31.85-.22s-.04,0-.06-.01c-.1-.03-.15-.14-.12-.24,.12-.35,.23-.71,.33-1.06,.03-.1,.13-.16,.23-.13,.1,.03,.16,.13,.13,.23-.1,.36-.21,.73-.33,1.09-.03,.08-.1,.13-.18,.13Zm-32.47-1.94c-.09,0-.16-.06-.18-.15-.08-.37-.15-.74-.2-1.12-.01-.1,.06-.2,.16-.21,.11-.02,.2,.06,.21,.16,.05,.37,.12,.73,.2,1.09,.02,.1-.04,.2-.14,.22-.01,0-.03,0-.04,0Zm33.06-.23s-.02,0-.04,0c-.1-.02-.17-.12-.15-.22,.07-.36,.13-.73,.18-1.1,.01-.1,.11-.17,.21-.16,.1,.01,.17,.11,.16,.21-.05,.38-.11,.75-.19,1.12-.02,.09-.1,.15-.18,.15Zm-33.39-1.99c-.1,0-.18-.07-.19-.17-.03-.37-.05-.76-.05-1.13,0-.1,.08-.19,.18-.19h0c.1,0,.19,.08,.19,.18,0,.37,.02,.74,.05,1.11,0,.1-.07,.19-.17,.2,0,0-.01,0-.02,0Zm33.68-.23s0,0-.01,0c-.1,0-.18-.1-.17-.2,.02-.37,.04-.74,.04-1.11,0-.15,0-.31,0-.46,0-.1,.08-.19,.18-.19,.1,0,.19,.08,.19,.18,0,.16,0,.31,0,.47,0,.38-.01,.76-.04,1.14,0,.1-.09,.18-.19,.18Zm-33.71-2.01s0,0,0,0c-.1,0-.18-.09-.18-.2,.02-.38,.05-.76,.1-1.13,.01-.1,.1-.18,.21-.16,.1,.01,.18,.11,.16,.21-.04,.36-.08,.74-.09,1.11,0,.1-.09,.18-.19,.18Zm33.68-.69c-.1,0-.18-.07-.19-.17-.03-.37-.08-.74-.14-1.1-.02-.1,.05-.2,.16-.21,.1-.02,.2,.05,.21,.16,.06,.37,.11,.75,.14,1.13,0,.1-.07,.19-.17,.2,0,0-.01,0-.02,0Zm-33.41-1.54s-.02,0-.03,0c-.1-.02-.17-.12-.15-.22,.07-.37,.15-.74,.25-1.11,.03-.1,.13-.16,.23-.13,.1,.03,.16,.13,.13,.23-.09,.36-.17,.72-.24,1.08-.02,.09-.1,.15-.18,.15Zm33.05-.68c-.09,0-.16-.06-.18-.15-.08-.36-.18-.72-.29-1.07-.03-.1,.03-.2,.13-.23,.1-.03,.2,.03,.23,.13,.11,.36,.21,.73,.29,1.1,.02,.1-.04,.2-.14,.22-.01,0-.03,0-.04,0Zm-32.5-1.49s-.04,0-.06,0c-.1-.03-.15-.14-.12-.24,.12-.36,.25-.72,.39-1.07,.04-.1,.15-.14,.24-.1,.1,.04,.14,.15,.1,.24-.14,.34-.27,.69-.38,1.04-.03,.08-.1,.13-.18,.13Zm31.85-.66c-.08,0-.15-.05-.18-.12-.13-.34-.27-.69-.43-1.02-.04-.09,0-.21,.09-.25,.09-.04,.21,0,.25,.09,.16,.34,.3,.7,.44,1.05,.04,.1-.01,.2-.11,.24-.02,0-.04,.01-.07,.01Zm-31-1.43s-.06,0-.08-.02c-.09-.05-.13-.16-.09-.25,.16-.34,.34-.68,.53-1.01,.05-.09,.17-.12,.26-.07,.09,.05,.12,.17,.07,.26-.18,.32-.36,.65-.52,.98-.03,.07-.1,.11-.17,.11Zm30.07-.61c-.07,0-.13-.04-.17-.1-.17-.32-.36-.65-.56-.96-.06-.09-.03-.2,.06-.26,.09-.06,.2-.03,.26,.06,.2,.32,.39,.65,.57,.98,.05,.09,.01,.2-.08,.25-.03,.02-.06,.02-.09,.02Zm-28.95-1.34s-.07-.01-.1-.03c-.09-.06-.11-.17-.05-.26,.21-.31,.43-.62,.66-.93,.06-.08,.18-.1,.26-.04,.08,.06,.1,.18,.04,.26-.22,.29-.44,.6-.65,.91-.04,.05-.1,.08-.16,.08Zm27.76-.56c-.06,0-.12-.03-.15-.08-.22-.3-.44-.59-.68-.88-.07-.08-.06-.2,.02-.26,.08-.07,.2-.06,.26,.02,.24,.29,.48,.59,.7,.9,.06,.08,.04,.2-.04,.26-.03,.02-.07,.04-.11,.04Zm-26.4-1.22s-.09-.02-.12-.05c-.08-.07-.09-.19-.02-.26,.25-.28,.51-.56,.78-.83,.07-.07,.19-.07,.27,0,.07,.07,.07,.19,0,.27-.26,.26-.52,.54-.76,.81-.04,.04-.09,.06-.14,.06Zm24.96-.51s-.1-.02-.14-.06c-.25-.27-.52-.53-.79-.78-.08-.07-.08-.19-.01-.26,.07-.08,.19-.08,.26-.01,.28,.26,.55,.52,.81,.8,.07,.08,.07,.19,0,.27-.04,.03-.08,.05-.13,.05Zm-23.37-1.08c-.05,0-.1-.02-.14-.06-.07-.08-.06-.2,.02-.26,.28-.25,.58-.49,.88-.72,.08-.06,.2-.05,.26,.03,.06,.08,.05,.2-.03,.26-.29,.22-.58,.46-.86,.7-.04,.03-.08,.05-.12,.05Zm21.72-.44s-.08-.01-.12-.04c-.29-.23-.59-.46-.89-.67-.08-.06-.11-.18-.05-.26,.06-.08,.18-.11,.26-.05,.31,.22,.61,.45,.91,.68,.08,.06,.09,.18,.03,.26-.04,.05-.09,.07-.15,.07Zm-19.94-.92c-.06,0-.12-.03-.16-.08-.06-.09-.03-.2,.05-.26,.32-.21,.64-.41,.97-.6,.09-.05,.2-.02,.26,.07,.05,.09,.02,.2-.07,.26-.32,.18-.64,.38-.94,.58-.03,.02-.07,.03-.1,.03Zm18.1-.37s-.07,0-.1-.03c-.32-.19-.64-.38-.97-.55-.09-.05-.13-.16-.08-.25,.05-.09,.16-.13,.25-.08,.33,.17,.67,.36,.99,.56,.09,.05,.12,.17,.06,.26-.04,.06-.1,.09-.16,.09Zm-16.15-.75c-.07,0-.14-.04-.17-.11-.05-.09,0-.21,.09-.25,.34-.17,.69-.32,1.04-.46,.1-.04,.21,0,.24,.1,.04,.1,0,.21-.1,.24-.34,.14-.68,.29-1.01,.45-.03,.01-.05,.02-.08,.02Zm14.16-.29s-.05,0-.08-.02c-.34-.15-.69-.29-1.03-.41-.1-.04-.15-.14-.11-.24,.04-.1,.14-.15,.24-.11,.36,.13,.71,.27,1.06,.42,.09,.04,.14,.15,.1,.25-.03,.07-.1,.11-.17,.11Zm-12.08-.56c-.08,0-.15-.05-.18-.13-.03-.1,.02-.2,.12-.24,.36-.12,.72-.23,1.09-.32,.1-.03,.2,.03,.23,.13,.03,.1-.03,.2-.13,.23-.36,.09-.72,.2-1.07,.31-.02,0-.04,0-.06,0Zm9.96-.2s-.03,0-.05,0c-.35-.1-.72-.19-1.08-.27-.1-.02-.17-.12-.14-.22,.02-.1,.12-.17,.22-.14,.37,.08,.74,.17,1.1,.28,.1,.03,.16,.13,.13,.23-.02,.08-.1,.14-.18,.14Zm-7.79-.36c-.09,0-.17-.06-.18-.15-.02-.1,.05-.2,.15-.22,.37-.07,.75-.13,1.12-.17,.1-.01,.2,.06,.21,.16,.01,.1-.06,.2-.16,.21-.37,.04-.74,.1-1.1,.17-.01,0-.02,0-.03,0Zm5.59-.11s-.02,0-.03,0c-.36-.05-.73-.09-1.1-.12-.1,0-.18-.1-.17-.2,0-.1,.1-.18,.2-.17,.38,.03,.76,.07,1.13,.13,.1,.01,.17,.11,.16,.21-.01,.09-.09,.16-.19,.16Zm-3.36-.15c-.1,0-.18-.08-.19-.18,0-.1,.07-.19,.18-.2,.3-.02,.61-.02,.92-.02h.22c.1,0,.19,.09,.18,.19,0,.1-.09,.18-.19,.18h-.21c-.3,0-.6,0-.9,.02,0,0,0,0-.01,0Z"/><circle class="cls-9" cx="35.19" cy="101.41" r="1.84"/><circle class="cls-9" cx="95.88" cy="101.5" r="1.84"/><circle class="cls-9" cx="66.09" cy="95.25" r="1.84"/></g></svg>