<?xml version="1.0" encoding="UTF-8"?><svg id="Layer_1" xmlns="http://www.w3.org/2000/svg" viewBox="0 0 123.16 123.16"><defs><style>.cls-1{fill:#fff;}.cls-2{fill:#e2e0de;}.cls-3{fill:#4d78a3;}.cls-4{fill:#4ba5c6;}.cls-5{fill:#ff5542;}.cls-6{fill:#ff6453;}.cls-7{fill:#6b6b6b;}.cls-8{fill:#fbd350;}.cls-9{fill:#3398bd;}.cls-10{fill:none;}.cls-11{fill:#ffda70;}.cls-12{fill:#eeeded;}</style></defs><circle class="cls-1" cx="61.58" cy="61.82" r="58.24"/><g><g><polygon class="cls-2" points="85.89 53.73 85.51 53.73 85.51 23.18 90.75 23.18 90.75 23.56 85.89 23.56 85.89 53.73"/><polygon class="cls-2" points="89.51 21.84 89.26 22.11 90.61 23.37 89.26 24.63 89.51 24.9 91.16 23.37 89.51 21.84"/></g><g><polygon class="cls-2" points="77.02 53.73 76.64 53.73 76.64 23.18 81.88 23.18 81.88 23.56 77.02 23.56 77.02 53.73"/><polygon class="cls-2" points="80.64 21.84 80.39 22.11 81.74 23.37 80.39 24.63 80.64 24.9 82.29 23.37 80.64 21.84"/></g><g><polygon class="cls-2" points="94.46 53.73 94.08 53.73 94.08 23.18 99.32 23.18 99.32 23.56 94.46 23.56 94.46 53.73"/><polygon class="cls-2" points="98.08 21.84 97.82 22.11 99.18 23.37 97.82 24.63 98.08 24.9 99.73 23.37 98.08 21.84"/></g><path class="cls-2" d="M80.71,36.26c0,2.15-1.74,3.9-3.9,3.9s-3.9-1.74-3.9-3.9,1.74-3.9,3.9-3.9,3.9,1.74,3.9,3.9Z"/><path class="cls-12" d="M76.82,40.15c-2.15,0-3.9-1.74-3.9-3.9s1.74-3.9,3.9-3.9v7.79Z"/><path class="cls-6" d="M78.03,36.26c0,.67-.54,1.21-1.21,1.21s-1.21-.54-1.21-1.21,.54-1.21,1.21-1.21,1.21,.54,1.21,1.21Z"/><path class="cls-2" d="M59.57,58.93c0,2.15-1.74,3.9-3.9,3.9s-3.9-1.74-3.9-3.9,1.74-3.9,3.9-3.9,3.9,1.74,3.9,3.9Z"/><path class="cls-12" d="M55.67,62.82c-2.15,0-3.9-1.74-3.9-3.9s1.74-3.9,3.9-3.9v7.79Z"/><path class="cls-6" d="M56.89,58.93c0,.67-.54,1.21-1.21,1.21s-1.21-.54-1.21-1.21,.54-1.21,1.21-1.21,1.21,.54,1.21,1.21Z"/><circle class="cls-2" cx="39.46" cy="63.47" r="2.07"/><path class="cls-12" d="M39.46,65.53c-1.14,0-2.07-.93-2.07-2.07s.93-2.07,2.07-2.07v4.14Z"/><circle class="cls-6" cx="39.46" cy="63.47" r=".64"/><path class="cls-2" d="M46.54,63.48c0,1.14-.93,2.07-2.07,2.07s-2.07-.93-2.07-2.07,.93-2.07,2.07-2.07,2.07,.93,2.07,2.07Z"/><path class="cls-12" d="M44.47,65.55c-1.14,0-2.07-.93-2.07-2.07s.93-2.07,2.07-2.07v4.14Z"/><path class="cls-6" d="M45.12,63.48c0,.36-.29,.64-.64,.64s-.64-.29-.64-.64,.29-.64,.64-.64,.64,.29,.64,.64Z"/><path class="cls-2" d="M51.56,63.5c0,1.14-.93,2.07-2.07,2.07s-2.07-.93-2.07-2.07,.93-2.07,2.07-2.07,2.07,.93,2.07,2.07Z"/><path class="cls-12" d="M49.49,65.57c-1.14,0-2.07-.93-2.07-2.07s.93-2.07,2.07-2.07v4.14Z"/><path class="cls-6" d="M50.14,63.5c0,.36-.29,.64-.64,.64s-.64-.29-.64-.64,.29-.64,.64-.64,.64,.29,.64,.64Z"/><circle class="cls-2" cx="27.45" cy="56.69" r="3.79"/><path class="cls-12" d="M27.45,60.48c-2.09,0-3.79-1.7-3.79-3.79s1.7-3.79,3.79-3.79v7.58Z"/><path class="cls-6" d="M28.63,56.69c0,.65-.53,1.18-1.18,1.18s-1.18-.53-1.18-1.18,.53-1.18,1.18-1.18,1.18,.53,1.18,1.18Z"/><path class="cls-2" d="M89.52,36.26c0,2.15-1.74,3.9-3.9,3.9s-3.9-1.74-3.9-3.9,1.74-3.9,3.9-3.9,3.9,1.74,3.9,3.9Z"/><path class="cls-12" d="M85.62,40.15c-2.15,0-3.9-1.74-3.9-3.9s1.74-3.9,3.9-3.9v7.79Z"/><path class="cls-6" d="M86.83,36.26c0,.67-.54,1.21-1.21,1.21s-1.21-.54-1.21-1.21,.54-1.21,1.21-1.21,1.21,.54,1.21,1.21Z"/><path class="cls-2" d="M98.32,36.26c0,2.15-1.74,3.9-3.9,3.9s-3.9-1.74-3.9-3.9,1.74-3.9,3.9-3.9,3.9,1.74,3.9,3.9Z"/><path class="cls-12" d="M94.43,40.15c-2.15,0-3.9-1.74-3.9-3.9s1.74-3.9,3.9-3.9v7.79Z"/><path class="cls-6" d="M95.64,36.26c0,.67-.54,1.21-1.21,1.21s-1.21-.54-1.21-1.21,.54-1.21,1.21-1.21,1.21,.54,1.21,1.21Z"/><g><rect class="cls-7" x="62.25" y="29.9" width=".75" height="73.44"/><polygon class="cls-7" points="59.56 32.39 60.11 32.9 62.63 30.19 65.14 32.9 65.69 32.39 62.63 29.09 59.56 32.39"/><polygon class="cls-7" points="59.56 100.86 60.11 100.35 62.63 103.05 65.14 100.35 65.69 100.86 62.63 104.15 59.56 100.86"/></g><g><rect class="cls-7" x="25.3" y="67.08" width="75.17" height=".75"/><polygon class="cls-7" points="27.79 70.52 28.3 69.97 25.59 67.46 28.3 64.94 27.79 64.39 24.49 67.46 27.79 70.52"/><polygon class="cls-7" points="97.99 70.52 97.48 69.97 100.18 67.46 97.48 64.94 97.99 64.39 101.28 67.46 97.99 70.52"/></g><polygon class="cls-8" points="37.64 75.56 34.34 72.38 26.01 72.38 26.01 75.56 26.01 98.89 52.37 98.89 52.37 75.56 37.64 75.56"/><polygon class="cls-11" points="25.85 72.38 25.85 75.56 25.85 98.89 52.21 98.89 25.85 72.38"/><path class="cls-9" d="M43.68,86.67c0,2.44-1.97,4.41-4.41,4.41s-4.41-1.97-4.41-4.41,1.97-4.41,4.41-4.41,4.41,1.97,4.41,4.41Z"/><path class="cls-2" d="M41.35,86.67c0,1.19-.97,2.16-2.16,2.16s-2.16-.97-2.16-2.16,.97-2.16,2.16-2.16,2.16,.97,2.16,2.16Z"/><g><path class="cls-3" d="M16.78,63.67h-.56c-.1,0-.19-.08-.19-.19s.08-.19,.19-.19h.56c.1,0,.19,.08,.19,.19s-.08,.19-.19,.19Z"/><path class="cls-3" d="M33.85,63.67h-1.07c-.1,0-.19-.08-.19-.19s.08-.19,.19-.19h1.07c.1,0,.19,.08,.19,.19s-.08,.19-.19,.19Zm-2.13,0h-1.07c-.1,0-.19-.08-.19-.19s.08-.19,.19-.19h1.07c.1,0,.19,.08,.19,.19s-.08,.19-.19,.19Zm-2.13,0h-1.07c-.1,0-.19-.08-.19-.19s.08-.19,.19-.19h1.07c.1,0,.19,.08,.19,.19s-.08,.19-.19,.19Zm-2.13,0h-1.07c-.1,0-.19-.08-.19-.19s.08-.19,.19-.19h1.07c.1,0,.19,.08,.19,.19s-.08,.19-.19,.19Zm-2.13,0h-1.07c-.1,0-.19-.08-.19-.19s.08-.19,.19-.19h1.07c.1,0,.19,.08,.19,.19s-.08,.19-.19,.19Zm-2.13,0h-1.07c-.1,0-.19-.08-.19-.19s.08-.19,.19-.19h1.07c.1,0,.19,.08,.19,.19s-.08,.19-.19,.19Zm-2.13,0h-1.07c-.1,0-.19-.08-.19-.19s.08-.19,.19-.19h1.07c.1,0,.19,.08,.19,.19s-.08,.19-.19,.19Zm-2.13,0h-1.07c-.1,0-.19-.08-.19-.19s.08-.19,.19-.19h1.07c.1,0,.19,.08,.19,.19s-.08,.19-.19,.19Z"/><path class="cls-3" d="M35.48,63.67h-.56c-.1,0-.19-.08-.19-.19s.08-.19,.19-.19h.56c.1,0,.19,.08,.19,.19s-.08,.19-.19,.19Z"/><polygon class="cls-3" points="17.46 65.02 17.71 64.74 16.36 63.48 17.71 62.23 17.46 61.95 15.81 63.48 17.46 65.02"/></g><g><path class="cls-3" d="M108.78,62.01h-.56c-.1,0-.19-.08-.19-.19s.08-.19,.19-.19h.56c.1,0,.19,.08,.19,.19s-.08,.19-.19,.19Z"/><path class="cls-3" d="M107.15,62.01h-1.07c-.1,0-.19-.08-.19-.19s.08-.19,.19-.19h1.07c.1,0,.19,.08,.19,.19s-.08,.19-.19,.19Zm-2.13,0h-1.07c-.1,0-.19-.08-.19-.19s.08-.19,.19-.19h1.07c.1,0,.19,.08,.19,.19s-.08,.19-.19,.19Zm-2.13,0h-1.07c-.1,0-.19-.08-.19-.19s.08-.19,.19-.19h1.07c.1,0,.19,.08,.19,.19s-.08,.19-.19,.19Zm-2.13,0h-1.07c-.1,0-.19-.08-.19-.19s.08-.19,.19-.19h1.07c.1,0,.19,.08,.19,.19s-.08,.19-.19,.19Zm-2.13,0h-1.07c-.1,0-.19-.08-.19-.19s.08-.19,.19-.19h1.07c.1,0,.19,.08,.19,.19s-.08,.19-.19,.19Zm-2.13,0h-1.07c-.1,0-.19-.08-.19-.19s.08-.19,.19-.19h1.07c.1,0,.19,.08,.19,.19s-.08,.19-.19,.19Zm-2.13,0h-1.07c-.1,0-.19-.08-.19-.19s.08-.19,.19-.19h1.07c.1,0,.19,.08,.19,.19s-.08,.19-.19,.19Zm-2.13,0h-1.07c-.1,0-.19-.08-.19-.19s.08-.19,.19-.19h1.07c.1,0,.19,.08,.19,.19s-.08,.19-.19,.19Z"/><path class="cls-3" d="M90.08,62.01h-.56c-.1,0-.19-.08-.19-.19s.08-.19,.19-.19h.56c.1,0,.19,.08,.19,.19s-.08,.19-.19,.19Z"/><polygon class="cls-3" points="107.54 60.29 107.28 60.56 108.64 61.82 107.28 63.08 107.54 63.35 109.19 61.82 107.54 60.29"/></g><polygon class="cls-9" points="68.59 71.43 91.24 71.43 95.58 67.46 91.24 63.48 68.59 63.48 68.59 71.43"/><polygon class="cls-4" points="95.58 67.46 91.24 63.48 68.59 63.48 68.59 67.46 95.58 67.46"/><g><path class="cls-3" d="M71.1,67.64h-.56c-.1,0-.19-.08-.19-.19s.08-.19,.19-.19h.56c.1,0,.19,.08,.19,.19s-.08,.19-.19,.19Z"/><path class="cls-3" d="M90.02,67.64h-1.18c-.1,0-.19-.08-.19-.19s.08-.19,.19-.19h1.18c.1,0,.19,.08,.19,.19s-.08,.19-.19,.19Zm-2.36,0h-1.18c-.1,0-.19-.08-.19-.19s.08-.19,.19-.19h1.18c.1,0,.19,.08,.19,.19s-.08,.19-.19,.19Zm-2.36,0h-1.18c-.1,0-.19-.08-.19-.19s.08-.19,.19-.19h1.18c.1,0,.19,.08,.19,.19s-.08,.19-.19,.19Zm-2.36,0h-1.18c-.1,0-.19-.08-.19-.19s.08-.19,.19-.19h1.18c.1,0,.19,.08,.19,.19s-.08,.19-.19,.19Zm-2.36,0h-1.18c-.1,0-.19-.08-.19-.19s.08-.19,.19-.19h1.18c.1,0,.19,.08,.19,.19s-.08,.19-.19,.19Zm-2.36,0h-1.18c-.1,0-.19-.08-.19-.19s.08-.19,.19-.19h1.18c.1,0,.19,.08,.19,.19s-.08,.19-.19,.19Zm-2.36,0h-1.18c-.1,0-.19-.08-.19-.19s.08-.19,.19-.19h1.18c.1,0,.19,.08,.19,.19s-.08,.19-.19,.19Zm-2.36,0h-1.18c-.1,0-.19-.08-.19-.19s.08-.19,.19-.19h1.18c.1,0,.19,.08,.19,.19s-.08,.19-.19,.19Z"/><path class="cls-3" d="M91.76,67.64h-.56c-.1,0-.19-.08-.19-.19s.08-.19,.19-.19h.56c.1,0,.19,.08,.19,.19s-.08,.19-.19,.19Z"/></g><polygon class="cls-8" points="68.59 59.69 97.31 59.69 102.81 54.25 97.31 48.82 68.59 48.82 68.59 59.69"/><polygon class="cls-11" points="102.81 54.25 97.31 48.82 68.59 48.82 68.59 54.25 102.81 54.25"/><g><path class="cls-3" d="M71.63,54.44h-.56c-.1,0-.19-.08-.19-.19s.08-.19,.19-.19h.56c.1,0,.19,.08,.19,.19s-.08,.19-.19,.19Z"/><path class="cls-3" d="M96.29,54.44h-1.12c-.1,0-.19-.08-.19-.19s.08-.19,.19-.19h1.12c.1,0,.19,.08,.19,.19s-.08,.19-.19,.19Zm-2.24,0h-1.12c-.1,0-.19-.08-.19-.19s.08-.19,.19-.19h1.12c.1,0,.19,.08,.19,.19s-.08,.19-.19,.19Zm-2.24,0h-1.12c-.1,0-.19-.08-.19-.19s.08-.19,.19-.19h1.12c.1,0,.19,.08,.19,.19s-.08,.19-.19,.19Zm-2.24,0h-1.12c-.1,0-.19-.08-.19-.19s.08-.19,.19-.19h1.12c.1,0,.19,.08,.19,.19s-.08,.19-.19,.19Zm-2.24,0h-1.12c-.1,0-.19-.08-.19-.19s.08-.19,.19-.19h1.12c.1,0,.19,.08,.19,.19s-.08,.19-.19,.19Zm-2.24,0h-1.12c-.1,0-.19-.08-.19-.19s.08-.19,.19-.19h1.12c.1,0,.19,.08,.19,.19s-.08,.19-.19,.19Zm-2.24,0h-1.12c-.1,0-.19-.08-.19-.19s.08-.19,.19-.19h1.12c.1,0,.19,.08,.19,.19s-.08,.19-.19,.19Zm-2.24,0h-1.12c-.1,0-.19-.08-.19-.19s.08-.19,.19-.19h1.12c.1,0,.19,.08,.19,.19s-.08,.19-.19,.19Zm-2.24,0h-1.12c-.1,0-.19-.08-.19-.19s.08-.19,.19-.19h1.12c.1,0,.19,.08,.19,.19s-.08,.19-.19,.19Zm-2.24,0h-1.12c-.1,0-.19-.08-.19-.19s.08-.19,.19-.19h1.12c.1,0,.19,.08,.19,.19s-.08,.19-.19,.19Zm-2.24,0h-1.12c-.1,0-.19-.08-.19-.19s.08-.19,.19-.19h1.12c.1,0,.19,.08,.19,.19s-.08,.19-.19,.19Z"/><path class="cls-3" d="M97.97,54.44h-.56c-.1,0-.19-.08-.19-.19s.08-.19,.19-.19h.56c.1,0,.19,.08,.19,.19s-.08,.19-.19,.19Z"/></g><g><path class="cls-3" d="M68.59,36.67c-.1,0-.19-.08-.19-.19v-.56c0-.1,.08-.19,.19-.19s.19,.08,.19,.19v.56c0,.1-.08,.19-.19,.19Z"/><path class="cls-3" d="M68.59,100.06c-.1,0-.19-.08-.19-.19v-1.13c0-.1,.08-.19,.19-.19s.19,.08,.19,.19v1.13c0,.1-.08,.19-.19,.19Zm0-2.26c-.1,0-.19-.08-.19-.19v-1.13c0-.1,.08-.19,.19-.19s.19,.08,.19,.19v1.13c0,.1-.08,.19-.19,.19Zm0-2.26c-.1,0-.19-.08-.19-.19v-1.13c0-.1,.08-.19,.19-.19s.19,.08,.19,.19v1.13c0,.1-.08,.19-.19,.19Zm0-2.26c-.1,0-.19-.08-.19-.19v-1.13c0-.1,.08-.19,.19-.19s.19,.08,.19,.19v1.13c0,.1-.08,.19-.19,.19Zm0-2.26c-.1,0-.19-.08-.19-.19v-1.13c0-.1,.08-.19,.19-.19s.19,.08,.19,.19v1.13c0,.1-.08,.19-.19,.19Zm0-2.26c-.1,0-.19-.08-.19-.19v-1.13c0-.1,.08-.19,.19-.19s.19,.08,.19,.19v1.13c0,.1-.08,.19-.19,.19Zm0-2.26c-.1,0-.19-.08-.19-.19v-1.13c0-.1,.08-.19,.19-.19s.19,.08,.19,.19v1.13c0,.1-.08,.19-.19,.19Zm0-2.26c-.1,0-.19-.08-.19-.19v-1.13c0-.1,.08-.19,.19-.19s.19,.08,.19,.19v1.13c0,.1-.08,.19-.19,.19Zm0-2.26c-.1,0-.19-.08-.19-.19v-1.13c0-.1,.08-.19,.19-.19s.19,.08,.19,.19v1.13c0,.1-.08,.19-.19,.19Zm0-2.26c-.1,0-.19-.08-.19-.19v-1.13c0-.1,.08-.19,.19-.19s.19,.08,.19,.19v1.13c0,.1-.08,.19-.19,.19Zm0-2.26c-.1,0-.19-.08-.19-.19v-1.13c0-.1,.08-.19,.19-.19s.19,.08,.19,.19v1.13c0,.1-.08,.19-.19,.19Zm0-2.26c-.1,0-.19-.08-.19-.19v-1.13c0-.1,.08-.19,.19-.19s.19,.08,.19,.19v1.13c0,.1-.08,.19-.19,.19Zm0-2.26c-.1,0-.19-.08-.19-.19v-1.13c0-.1,.08-.19,.19-.19s.19,.08,.19,.19v1.13c0,.1-.08,.19-.19,.19Zm0-2.26c-.1,0-.19-.08-.19-.19v-1.13c0-.1,.08-.19,.19-.19s.19,.08,.19,.19v1.13c0,.1-.08,.19-.19,.19Zm0-2.26c-.1,0-.19-.08-.19-.19v-1.13c0-.1,.08-.19,.19-.19s.19,.08,.19,.19v1.13c0,.1-.08,.19-.19,.19Zm0-2.26c-.1,0-.19-.08-.19-.19v-1.13c0-.1,.08-.19,.19-.19s.19,.08,.19,.19v1.13c0,.1-.08,.19-.19,.19Zm0-2.26c-.1,0-.19-.08-.19-.19v-1.13c0-.1,.08-.19,.19-.19s.19,.08,.19,.19v1.13c0,.1-.08,.19-.19,.19Zm0-2.26c-.1,0-.19-.08-.19-.19v-1.13c0-.1,.08-.19,.19-.19s.19,.08,.19,.19v1.13c0,.1-.08,.19-.19,.19Zm0-2.26c-.1,0-.19-.08-.19-.19v-1.13c0-.1,.08-.19,.19-.19s.19,.08,.19,.19v1.13c0,.1-.08,.19-.19,.19Zm0-2.26c-.1,0-.19-.08-.19-.19v-1.13c0-.1,.08-.19,.19-.19s.19,.08,.19,.19v1.13c0,.1-.08,.19-.19,.19Zm0-2.26c-.1,0-.19-.08-.19-.19v-1.13c0-.1,.08-.19,.19-.19s.19,.08,.19,.19v1.13c0,.1-.08,.19-.19,.19Zm0-2.26c-.1,0-.19-.08-.19-.19v-1.13c0-.1,.08-.19,.19-.19s.19,.08,.19,.19v1.13c0,.1-.08,.19-.19,.19Zm0-2.26c-.1,0-.19-.08-.19-.19v-1.13c0-.1,.08-.19,.19-.19s.19,.08,.19,.19v1.13c0,.1-.08,.19-.19,.19Zm0-2.26c-.1,0-.19-.08-.19-.19v-1.13c0-.1,.08-.19,.19-.19s.19,.08,.19,.19v1.13c0,.1-.08,.19-.19,.19Zm0-2.26c-.1,0-.19-.08-.19-.19v-1.13c0-.1,.08-.19,.19-.19s.19,.08,.19,.19v1.13c0,.1-.08,.19-.19,.19Zm0-2.26c-.1,0-.19-.08-.19-.19v-1.13c0-.1,.08-.19,.19-.19s.19,.08,.19,.19v1.13c0,.1-.08,.19-.19,.19Zm0-2.26c-.1,0-.19-.08-.19-.19v-1.13c0-.1,.08-.19,.19-.19s.19,.08,.19,.19v1.13c0,.1-.08,.19-.19,.19Zm0-2.26c-.1,0-.19-.08-.19-.19v-1.13c0-.1,.08-.19,.19-.19s.19,.08,.19,.19v1.13c0,.1-.08,.19-.19,.19Z"/><path class="cls-3" d="M68.59,101.75c-.1,0-.19-.08-.19-.19v-.56c0-.1,.08-.19,.19-.19s.19,.08,.19,.19v.56c0,.1-.08,.19-.19,.19Z"/><polygon class="cls-3" points="67.06 37.16 67.33 37.42 68.59 36.06 69.85 37.42 70.12 37.16 68.59 35.51 67.06 37.16"/><polygon class="cls-3" points="67.06 100.32 67.33 100.07 68.59 101.42 69.85 100.07 70.12 100.32 68.59 101.97 67.06 100.32"/></g><path class="cls-3" d="M44.98,76.42c-.1,0-.19-.08-.19-.19v-4.49h4.49c.1,0,.19,.08,.19,.19s-.08,.19-.19,.19h-4.12v4.12c0,.1-.08,.19-.19,.19Z"/><path class="cls-3" d="M59.76,76.42c-.1,0-.19-.08-.19-.19v-4.12h-4.12c-.1,0-.19-.08-.19-.19s.08-.19,.19-.19h4.49v4.49c0,.1-.08,.19-.19,.19Z"/><path class="cls-3" d="M49.29,83.13h-4.49v-4.49c0-.1,.08-.19,.19-.19s.19,.08,.19,.19v4.12h4.12c.1,0,.19,.08,.19,.19s-.08,.19-.19,.19Z"/><path class="cls-3" d="M59.95,83.13h-4.49c-.1,0-.19-.08-.19-.19s.08-.19,.19-.19h4.12v-4.12c0-.1,.08-.19,.19-.19s.19,.08,.19,.19v4.49Z"/><g><path class="cls-3" d="M49.51,77.72h-.56c-.1,0-.19-.08-.19-.19s.08-.19,.19-.19h.56c.1,0,.19,.08,.19,.19s-.08,.19-.19,.19Z"/><path class="cls-3" d="M55.34,77.72h-.97c-.1,0-.19-.08-.19-.19s.08-.19,.19-.19h.97c.1,0,.19,.08,.19,.19s-.08,.19-.19,.19Zm-1.95,0h-.97c-.1,0-.19-.08-.19-.19s.08-.19,.19-.19h.97c.1,0,.19,.08,.19,.19s-.08,.19-.19,.19Zm-1.95,0h-.97c-.1,0-.19-.08-.19-.19s.08-.19,.19-.19h.97c.1,0,.19,.08,.19,.19s-.08,.19-.19,.19Z"/><path class="cls-3" d="M56.88,77.72h-.56c-.1,0-.19-.08-.19-.19s.08-.19,.19-.19h.56c.1,0,.19,.08,.19,.19s-.08,.19-.19,.19Z"/></g><path class="cls-5" d="M67.26,67.46c0,2.56-2.07,4.63-4.63,4.63s-4.63-2.07-4.63-4.63,2.07-4.63,4.63-4.63,4.63,2.07,4.63,4.63Z"/><path class="cls-6" d="M62.63,72.09c-2.56,0-4.63-2.07-4.63-4.63s2.07-4.63,4.63-4.63v9.26Z"/><path class="cls-1" d="M65.35,67.62c.01-.2,0-.39-.03-.58l.61-.09c-.03-.23-.09-.46-.18-.68l-.58,.22c-.07-.18-.15-.35-.26-.51l.52-.33c-.13-.2-.27-.38-.44-.55l-.44,.43c-.13-.14-.28-.26-.44-.36l.34-.52c-.19-.13-.4-.24-.62-.32l-.22,.57c-.17-.07-.36-.12-.55-.15l.1-.61c-.23-.04-.47-.05-.7-.04l.03,.62c-.19,0-.38,.04-.56,.09l-.16-.6c-.23,.06-.45,.14-.65,.25l.28,.55c-.17,.09-.33,.19-.48,.31l-.39-.48c-.18,.15-.35,.31-.5,.49l.48,.39c-.12,.15-.23,.31-.31,.47l-.55-.28c-.11,.21-.19,.43-.26,.65l.59,.16c-.05,.18-.08,.36-.09,.56,0,0,0,0,0,0l-.62-.04c-.01,.23,0,.47,.03,.7l.61-.09c.03,.19,.08,.38,.14,.55l-.58,.22c.08,.22,.19,.43,.31,.63l.52-.33c.1,.16,.22,.31,.35,.45l-.44,.43c.16,.17,.34,.32,.54,.44l.34-.51c.16,.1,.33,.19,.51,.26l-.23,.57c.22,.09,.44,.15,.67,.19l.1-.61c.09,.02,.19,.03,.28,.03,.1,0,.19,0,.29,0l.03,.62c.23,0,.47-.04,.69-.1l-.15-.6c.19-.05,.36-.12,.53-.2l.28,.55c.21-.1,.41-.23,.59-.38l-.38-.48c.15-.12,.29-.25,.41-.4l.48,.39c.15-.18,.28-.38,.39-.58l-.55-.29c.09-.17,.16-.34,.21-.53l.59,.16c.06-.22,.1-.46,.12-.69h0s-.62-.04-.62-.04Zm-4.86-.3c.07-1.18,1.09-2.08,2.27-2,1.18,.07,2.08,1.09,2,2.27-.07,1.18-1.09,2.08-2.27,2-1.18-.07-2.08-1.09-2-2.27Z"/><path class="cls-3" d="M57.06,95.2H22.95c-.1,0-.19-.08-.19-.19s.08-.19,.19-.19H57.06c.1,0,.19,.08,.19,.19s-.08,.19-.19,.19Z"/><path class="cls-3" d="M57.06,97.14h-.38c-.1,0-.19-.08-.19-.19s.08-.19,.19-.19h.38c.1,0,.19,.08,.19,.19s-.08,.19-.19,.19Zm-1.5,0h-1.12c-.1,0-.19-.08-.19-.19s.08-.19,.19-.19h1.12c.1,0,.19,.08,.19,.19s-.08,.19-.19,.19Zm-2.25,0h-1.12c-.1,0-.19-.08-.19-.19s.08-.19,.19-.19h1.12c.1,0,.19,.08,.19,.19s-.08,.19-.19,.19Zm-2.25,0h-1.12c-.1,0-.19-.08-.19-.19s.08-.19,.19-.19h1.12c.1,0,.19,.08,.19,.19s-.08,.19-.19,.19Zm-2.25,0h-1.12c-.1,0-.19-.08-.19-.19s.08-.19,.19-.19h1.12c.1,0,.19,.08,.19,.19s-.08,.19-.19,.19Zm-2.25,0h-1.12c-.1,0-.19-.08-.19-.19s.08-.19,.19-.19h1.12c.1,0,.19,.08,.19,.19s-.08,.19-.19,.19Zm-2.25,0h-1.12c-.1,0-.19-.08-.19-.19s.08-.19,.19-.19h1.12c.1,0,.19,.08,.19,.19s-.08,.19-.19,.19Zm-2.25,0h-1.12c-.1,0-.19-.08-.19-.19s.08-.19,.19-.19h1.12c.1,0,.19,.08,.19,.19s-.08,.19-.19,.19Zm-2.25,0h-1.12c-.1,0-.19-.08-.19-.19s.08-.19,.19-.19h1.12c.1,0,.19,.08,.19,.19s-.08,.19-.19,.19Zm-2.25,0h-1.12c-.1,0-.19-.08-.19-.19s.08-.19,.19-.19h1.12c.1,0,.19,.08,.19,.19s-.08,.19-.19,.19Zm-2.25,0h-1.12c-.1,0-.19-.08-.19-.19s.08-.19,.19-.19h1.12c.1,0,.19,.08,.19,.19s-.08,.19-.19,.19Zm-2.25,0h-1.12c-.1,0-.19-.08-.19-.19s.08-.19,.19-.19h1.12c.1,0,.19,.08,.19,.19s-.08,.19-.19,.19Zm-2.25,0h-1.12c-.1,0-.19-.08-.19-.19s.08-.19,.19-.19h1.12c.1,0,.19,.08,.19,.19s-.08,.19-.19,.19Zm-2.25,0h-1.12c-.1,0-.19-.08-.19-.19s.08-.19,.19-.19h1.12c.1,0,.19,.08,.19,.19s-.08,.19-.19,.19Zm-2.25,0h-1.12c-.1,0-.19-.08-.19-.19s.08-.19,.19-.19h1.12c.1,0,.19,.08,.19,.19s-.08,.19-.19,.19Zm-2.25,0h-1.12c-.1,0-.19-.08-.19-.19s.08-.19,.19-.19h1.12c.1,0,.19,.08,.19,.19s-.08,.19-.19,.19Z"/><path class="cls-3" d="M57.06,99.08H22.95c-.1,0-.19-.08-.19-.19s.08-.19,.19-.19H57.06c.1,0,.19,.08,.19,.19s-.08,.19-.19,.19Z"/><path class="cls-6" d="M34.52,41.87c0-4.82,3.92-8.75,8.75-8.75v-4.91c-.49,0-.98,.02-1.47,.08l.27,2.5c-.79,.08-1.55,.25-2.27,.49l-.79-2.4c-.9,.3-1.78,.69-2.61,1.17l1.27,2.18c-.67,.39-1.3,.85-1.88,1.37l-1.69-1.87c-.71,.64-1.35,1.35-1.9,2.12l2.04,1.48c-.45,.63-.84,1.3-1.16,2.02l-2.31-1.02c-.39,.87-.68,1.79-.88,2.72l2.47,.52c-.16,.74-.24,1.51-.24,2.29,0,0,0,.02,0,.02h-2.52c0,.96,.1,1.91,.3,2.84l2.46-.53c.16,.77,.41,1.51,.73,2.21l-2.3,1.03c.39,.87,.87,1.7,1.43,2.47l2.04-1.49c.46,.63,.98,1.21,1.56,1.73l-1.69,1.88c.71,.64,1.49,1.2,2.31,1.68l1.26-2.19c.67,.39,1.38,.71,2.13,.95l-.78,2.4c.91,.29,1.85,.49,2.8,.59l.26-2.5c.38,.04,.76,.06,1.15,.06v-2.4c-4.82,0-8.75-3.92-8.75-8.75Z"/><path class="cls-5" d="M54.41,41.85c0-.8-.09-1.58-.25-2.34l2.46-.53c-.2-.93-.5-1.85-.89-2.72l-2.3,1.04c-.32-.71-.72-1.39-1.17-2.01l2.03-1.49c-.56-.77-1.21-1.48-1.92-2.11l-1.68,1.88c-.58-.52-1.21-.97-1.89-1.36l1.26-2.19c-.83-.48-1.71-.86-2.61-1.16l-.77,2.4c-.73-.24-1.49-.4-2.28-.48l.25-2.5c-.46-.05-.92-.07-1.38-.07v4.91c4.82,0,8.75,3.92,8.75,8.75s-3.92,8.75-8.75,8.75v2.4c.4,0,.79-.02,1.18-.06l.26,2.5c.95-.1,1.89-.3,2.79-.59l-.78-2.4c.75-.24,1.46-.56,2.12-.95l1.27,2.18c.82-.48,1.6-1.04,2.31-1.68l-1.69-1.87c.58-.52,1.1-1.1,1.56-1.73l2.04,1.48c.56-.77,1.04-1.6,1.43-2.47l-2.3-1.03c.31-.7,.56-1.44,.72-2.21l2.46,.52c.2-.93,.3-1.88,.3-2.84v-.05l-2.52,.02Z"/><path class="cls-6" d="M80.11,90.67c0-4.82,3.92-8.75,8.75-8.75v-4.91c-.49,0-.98,.02-1.47,.08l.27,2.5c-.79,.08-1.55,.25-2.27,.49l-.79-2.4c-.9,.3-1.78,.69-2.61,1.17l1.27,2.18c-.67,.39-1.3,.85-1.88,1.37l-1.69-1.87c-.71,.64-1.35,1.35-1.9,2.12l2.04,1.48c-.45,.63-.84,1.3-1.16,2.02l-2.31-1.02c-.39,.87-.68,1.79-.88,2.72l2.47,.52c-.16,.74-.24,1.51-.24,2.29,0,0,0,.02,0,.02h-2.52c0,.96,.1,1.91,.3,2.84l2.46-.53c.17,.77,.41,1.51,.73,2.21l-2.3,1.03c.39,.87,.87,1.7,1.43,2.47l2.04-1.49c.46,.63,.98,1.21,1.56,1.73l-1.69,1.88c.71,.64,1.49,1.2,2.31,1.68l1.26-2.19c.67,.39,1.38,.71,2.13,.95l-.78,2.4c.91,.29,1.85,.49,2.8,.59l.26-2.5c.38,.04,.76,.06,1.15,.06v-2.4c-4.82,0-8.75-3.92-8.75-8.75Z"/><path class="cls-5" d="M100.01,90.64c0-.8-.09-1.58-.25-2.34l2.46-.53c-.2-.93-.5-1.85-.89-2.72l-2.3,1.04c-.32-.71-.72-1.39-1.17-2.01l2.03-1.49c-.56-.77-1.21-1.48-1.92-2.11l-1.68,1.88c-.58-.52-1.21-.97-1.89-1.36l1.26-2.19c-.83-.48-1.71-.86-2.61-1.15l-.77,2.4c-.73-.24-1.49-.4-2.28-.48l.25-2.5c-.46-.05-.92-.07-1.38-.07v4.91c4.82,0,8.75,3.92,8.75,8.75s-3.92,8.75-8.75,8.75v2.4c.4,0,.79-.02,1.18-.06l.26,2.5c.95-.1,1.89-.3,2.79-.59l-.78-2.4c.75-.24,1.46-.56,2.12-.95l1.27,2.18c.82-.48,1.6-1.04,2.31-1.68l-1.69-1.87c.58-.52,1.1-1.1,1.56-1.73l2.04,1.48c.56-.77,1.04-1.6,1.43-2.47l-2.3-1.03c.31-.7,.56-1.44,.72-2.21l2.46,.52c.2-.93,.3-1.88,.3-2.84v-.05l-2.52,.02Z"/><path class="cls-9" d="M43.48,45.9l-10.71-17.75c-.32-.53-.15-1.22,.38-1.54,.53-.32,1.22-.15,1.54,.38l8.37,13.88,8.7-21.78c.23-.58,.88-.86,1.46-.63,.58,.23,.86,.88,.63,1.46l-10.38,25.98Z"/><path class="cls-9" d="M89.32,95.68l-9.57-15.86c-.32-.53-.15-1.22,.38-1.54,.53-.32,1.22-.15,1.54,.38l7.23,11.98,7.56-18.92c.23-.58,.88-.86,1.46-.63,.58,.23,.86,.88,.63,1.46l-9.24,23.12Z"/></g><rect class="cls-10" width="123.16" height="123.16"/></svg>