<?xml version="1.0" encoding="UTF-8"?><svg id="Layer_1" xmlns="http://www.w3.org/2000/svg" viewBox="0 0 123.16 123.16"><defs><style>.cls-1{fill:#fff;}.cls-2{fill:#e2e0de;}.cls-3{fill:#4d78a3;}.cls-4{fill:#ff5542;}.cls-5{fill:#7fd8a7;}.cls-6{fill:#fbd350;}.cls-7{fill:none;}.cls-8{fill:#6acfa0;}.cls-9{fill:#ffda70;}.cls-10{fill:#48729c;}</style></defs><circle class="cls-1" cx="61.58" cy="61.82" r="58.24"/><rect class="cls-7" width="123.16" height="123.16"/><g><rect class="cls-6" x="40.22" y="41.22" width="42.72" height="40.9"/><polygon class="cls-9" points="82.94 82.12 40.22 82.12 40.22 41.22 82.94 82.12"/><polygon class="cls-2" points="53.1 84.91 51.76 83.57 50.41 84.91 50.15 84.65 51.76 83.04 53.37 84.65 53.1 84.91"/><polygon class="cls-2" points="53.1 86.39 51.76 85.05 50.41 86.39 50.15 86.13 51.76 84.52 53.37 86.13 53.1 86.39"/><polygon class="cls-2" points="53.1 87.87 51.76 86.53 50.41 87.87 50.15 87.61 51.76 86 53.37 87.61 53.1 87.87"/><polygon class="cls-2" points="53.1 89.35 51.76 88.01 50.41 89.35 50.15 89.09 51.76 87.48 53.37 89.09 53.1 89.35"/><polygon class="cls-2" points="53.1 90.83 51.76 89.48 50.41 90.83 50.15 90.57 51.76 88.95 53.37 90.57 53.1 90.83"/><polygon class="cls-2" points="53.1 92.31 51.76 90.96 50.41 92.31 50.15 92.05 51.76 90.43 53.37 92.05 53.1 92.31"/><polygon class="cls-2" points="53.1 93.79 51.76 92.44 50.41 93.79 50.15 93.52 51.76 91.91 53.37 93.52 53.1 93.79"/><g><polygon class="cls-4" points="77.55 49.67 45.6 49.67 45.6 23.13 47.1 23.13 47.1 48.17 76.05 48.17 76.05 35.64 77.55 35.64 77.55 49.67"/><polygon class="cls-4" points="74.26 38.63 76.8 36.08 79.34 38.63 79.34 36.47 76.8 33.93 74.26 36.47 74.26 38.63"/><polygon class="cls-4" points="48.9 26.11 46.35 23.57 43.81 26.11 43.81 23.95 46.35 21.41 48.9 23.95 48.9 26.11"/></g><g><polygon class="cls-4" points="47.1 103.45 45.6 103.45 45.6 76.91 77.55 76.91 77.55 90.94 76.05 90.94 76.05 78.41 47.1 78.41 47.1 103.45"/><polygon class="cls-4" points="79.34 87.95 76.8 90.5 74.26 87.95 74.26 90.11 76.8 92.65 79.34 90.11 79.34 87.95"/><polygon class="cls-4" points="43.81 100.47 46.35 103.01 48.9 100.47 48.9 102.62 46.35 105.16 43.81 102.62 43.81 100.47"/></g><g><polygon class="cls-4" points="57.3 98.91 55.8 98.91 55.8 76.91 66.41 76.91 66.41 90.94 64.91 90.94 64.91 78.41 57.3 78.41 57.3 98.91"/><polygon class="cls-4" points="68.2 87.95 65.66 90.5 63.12 87.95 63.12 90.11 65.66 92.65 68.2 90.11 68.2 87.95"/><polygon class="cls-4" points="54.01 95.92 56.55 98.46 59.09 95.92 59.09 98.08 56.55 100.62 54.01 98.08 54.01 95.92"/></g><rect class="cls-10" x="85.13" y="82.48" width="10.97" height="10.97"/><g><path class="cls-3" d="M41.92,84.38H24.11c-.1,0-.19-.08-.19-.19s.08-.19,.19-.19h17.81c.1,0,.19,.08,.19,.19s-.08,.19-.19,.19Z"/><g><path class="cls-3" d="M24.67,87.28h-.56c-.1,0-.19-.08-.19-.19s.08-.19,.19-.19h.56c.1,0,.19,.08,.19,.19s-.08,.19-.19,.19Z"/><path class="cls-3" d="M40.25,87.28h-1.11c-.1,0-.19-.08-.19-.19s.08-.19,.19-.19h1.11c.1,0,.19,.08,.19,.19s-.08,.19-.19,.19Zm-2.23,0h-1.11c-.1,0-.19-.08-.19-.19s.08-.19,.19-.19h1.11c.1,0,.19,.08,.19,.19s-.08,.19-.19,.19Zm-2.23,0h-1.11c-.1,0-.19-.08-.19-.19s.08-.19,.19-.19h1.11c.1,0,.19,.08,.19,.19s-.08,.19-.19,.19Zm-2.23,0h-1.11c-.1,0-.19-.08-.19-.19s.08-.19,.19-.19h1.11c.1,0,.19,.08,.19,.19s-.08,.19-.19,.19Zm-2.23,0h-1.11c-.1,0-.19-.08-.19-.19s.08-.19,.19-.19h1.11c.1,0,.19,.08,.19,.19s-.08,.19-.19,.19Zm-2.23,0h-1.11c-.1,0-.19-.08-.19-.19s.08-.19,.19-.19h1.11c.1,0,.19,.08,.19,.19s-.08,.19-.19,.19Zm-2.23,0h-1.11c-.1,0-.19-.08-.19-.19s.08-.19,.19-.19h1.11c.1,0,.19,.08,.19,.19s-.08,.19-.19,.19Z"/><path class="cls-3" d="M41.92,87.28h-.56c-.1,0-.19-.08-.19-.19s.08-.19,.19-.19h.56c.1,0,.19,.08,.19,.19s-.08,.19-.19,.19Z"/></g><path class="cls-3" d="M41.92,90.19H24.11c-.1,0-.19-.08-.19-.19s.08-.19,.19-.19h17.81c.1,0,.19,.08,.19,.19s-.08,.19-.19,.19Z"/><path class="cls-3" d="M40.97,93.1h-1.12c-.1,0-.19-.08-.19-.19s.08-.19,.19-.19h1.12c.1,0,.19,.08,.19,.19s-.08,.19-.19,.19Zm-2.25,0h-1.12c-.1,0-.19-.08-.19-.19s.08-.19,.19-.19h1.12c.1,0,.19,.08,.19,.19s-.08,.19-.19,.19Zm-2.25,0h-1.12c-.1,0-.19-.08-.19-.19s.08-.19,.19-.19h1.12c.1,0,.19,.08,.19,.19s-.08,.19-.19,.19Zm-2.25,0h-1.12c-.1,0-.19-.08-.19-.19s.08-.19,.19-.19h1.12c.1,0,.19,.08,.19,.19s-.08,.19-.19,.19Zm-2.25,0h-1.12c-.1,0-.19-.08-.19-.19s.08-.19,.19-.19h1.12c.1,0,.19,.08,.19,.19s-.08,.19-.19,.19Zm-2.25,0h-1.12c-.1,0-.19-.08-.19-.19s.08-.19,.19-.19h1.12c.1,0,.19,.08,.19,.19s-.08,.19-.19,.19Zm-2.25,0h-1.12c-.1,0-.19-.08-.19-.19s.08-.19,.19-.19h1.12c.1,0,.19,.08,.19,.19s-.08,.19-.19,.19Zm-2.25,0h-1.12c-.1,0-.19-.08-.19-.19s.08-.19,.19-.19h1.12c.1,0,.19,.08,.19,.19s-.08,.19-.19,.19Z"/><path class="cls-3" d="M35.22,96.01h-11.11c-.1,0-.19-.08-.19-.19s.08-.19,.19-.19h11.11c.1,0,.19,.08,.19,.19s-.08,.19-.19,.19Z"/></g><polygon class="cls-2" points="53.65 28.02 51.76 26.12 49.86 28.02 49.6 27.75 51.76 25.59 53.92 27.75 53.65 28.02"/><polygon class="cls-2" points="53.65 30.04 51.76 28.15 49.86 30.04 49.6 29.78 51.76 27.62 53.92 29.78 53.65 30.04"/><polygon class="cls-2" points="53.65 32.07 51.76 30.17 49.86 32.07 49.6 31.8 51.76 29.64 53.92 31.8 53.65 32.07"/><polygon class="cls-2" points="53.65 34.09 51.76 32.2 49.86 34.09 49.6 33.83 51.76 31.67 53.92 33.83 53.65 34.09"/><polygon class="cls-2" points="53.65 36.12 51.76 34.23 49.86 36.12 49.6 35.86 51.76 33.7 53.92 35.86 53.65 36.12"/><polygon class="cls-2" points="53.65 38.15 51.76 36.25 49.86 38.15 49.6 37.88 51.76 35.72 53.92 37.88 53.65 38.15"/><polygon class="cls-2" points="53.65 40.17 51.76 38.28 49.86 40.17 49.6 39.91 51.76 37.75 53.92 39.91 53.65 40.17"/><rect class="cls-10" x="55.96" y="32.66" width="6.94" height="6.65"/><rect class="cls-10" x="65.66" y="32.66" width="6.94" height="6.65"/><rect class="cls-10" x="60.79" y="24.11" width="6.94" height="6.65"/><polygon class="cls-3" points="96.09 93.45 85.13 93.45 85.13 82.48 96.09 93.45"/><polygon class="cls-3" points="55.96 32.66 55.96 39.31 62.9 39.31 55.96 32.66"/><polygon class="cls-3" points="65.66 32.66 65.66 39.31 72.6 39.31 65.66 32.66"/><polygon class="cls-3" points="60.79 24.11 60.79 30.75 67.74 30.75 60.79 24.11"/><path class="cls-2" d="M61.49,35.99c0,1.14-.92,2.06-2.06,2.06s-2.06-.92-2.06-2.06,.92-2.06,2.06-2.06,2.06,.92,2.06,2.06Z"/><path class="cls-2" d="M71.19,35.99c0,1.14-.92,2.06-2.06,2.06s-2.06-.92-2.06-2.06,.92-2.06,2.06-2.06,2.06,.92,2.06,2.06Z"/><path class="cls-2" d="M66.43,27.43c0,1.14-.92,2.06-2.06,2.06s-2.06-.92-2.06-2.06,.92-2.06,2.06-2.06,2.06,.92,2.06,2.06Z"/><circle class="cls-6" cx="33.39" cy="31.94" r="6.57"/><path class="cls-9" d="M33.39,38.5c-3.63,0-6.57-2.94-6.57-6.57s2.94-6.57,6.57-6.57v13.13Z"/><rect class="cls-2" x="77.09" y="53.06" width="3.4" height=".37"/><rect class="cls-2" x="77.09" y="54.93" width="3.4" height=".37"/><rect class="cls-2" x="77.09" y="56.8" width="3.4" height=".37"/><rect class="cls-2" x="77.09" y="58.67" width="3.4" height=".37"/><rect class="cls-2" x="77.09" y="60.55" width="3.4" height=".37"/><rect class="cls-2" x="77.09" y="62.42" width="3.4" height=".37"/><rect class="cls-2" x="77.09" y="64.29" width="3.4" height=".37"/><rect class="cls-2" x="77.09" y="66.17" width="3.4" height=".37"/><rect class="cls-2" x="77.09" y="68.04" width="3.4" height=".37"/><rect class="cls-2" x="77.09" y="69.91" width="3.4" height=".37"/><rect class="cls-10" x="82.65" y="25.37" width="9.11" height="9.11"/><rect class="cls-8" x="87.21" y="29.83" width="9.11" height="9.11"/><polygon class="cls-3" points="91.76 34.48 82.65 34.48 82.65 25.37 91.76 34.48"/><polygon class="cls-5" points="96.31 38.94 87.21 38.94 87.21 29.83 96.31 38.94"/><rect class="cls-2" x="82.94" y="79.25" width="7.21" height=".37"/><rect class="cls-2" x="82.94" y="76.48" width="12.32" height=".37"/><rect class="cls-2" x="82.94" y="73.71" width="7.21" height=".37"/><rect class="cls-2" x="82.94" y="70.94" width="17.16" height=".37"/><rect class="cls-2" x="82.94" y="68.17" width="7.21" height=".37"/><rect class="cls-2" x="82.94" y="65.4" width="21.18" height=".37"/><rect class="cls-2" x="82.94" y="62.63" width="10.59" height=".37"/><rect class="cls-2" x="82.94" y="59.86" width="7.21" height=".37"/><rect class="cls-2" x="82.94" y="57.09" width="4.77" height=".37"/><rect class="cls-2" x="82.94" y="54.32" width="7.21" height=".37"/><rect class="cls-2" x="82.94" y="51.55" width="11.17" height=".37"/><rect class="cls-2" x="82.94" y="48.78" width="7.21" height=".37"/><rect class="cls-2" x="82.94" y="46.01" width="7.21" height=".37"/><path class="cls-1" d="M70.57,63.3c0-.65-.07-1.28-.2-1.89l1.99-.43c-.16-.75-.4-1.49-.72-2.19l-1.86,.84c-.26-.57-.58-1.12-.95-1.62l1.64-1.2c-.45-.62-.97-1.19-1.55-1.7l-1.36,1.52c-.47-.42-.98-.79-1.52-1.1l1.01-1.77c-.67-.38-1.38-.7-2.11-.93l-.62,1.94c-.59-.19-1.2-.32-1.84-.39l.2-2.02c-.76-.08-1.54-.07-2.3,0l.22,2.02c-.63,.07-1.25,.2-1.84,.4l-.63-1.93c-.73,.24-1.44,.56-2.1,.94l1.02,1.76c-.54,.32-1.05,.69-1.52,1.11l-1.37-1.51c-.57,.52-1.09,1.09-1.54,1.71l1.65,1.19c-.37,.51-.68,1.05-.94,1.63l-1.86-.82c-.31,.7-.55,1.44-.71,2.19l1.99,.42c-.13,.6-.19,1.22-.19,1.85,0,0,0,.01,0,.02h-2.03c0,.77,.08,1.54,.24,2.29l1.99-.42c.13,.62,.33,1.22,.59,1.78l-1.86,.83c.31,.7,.7,1.37,1.16,1.99l1.64-1.2c.37,.51,.79,.97,1.26,1.39l-1.36,1.51c.57,.51,1.2,.97,1.86,1.35l1.02-1.76c.54,.31,1.11,.57,1.71,.76l-.63,1.93c.73,.24,1.49,.4,2.26,.47l.21-2.02c.31,.03,.62,.05,.93,.05s.64-.02,.95-.05l.21,2.02c.77-.08,1.52-.24,2.25-.48l-.63-1.93c.6-.2,1.17-.45,1.71-.77l1.02,1.76c.66-.38,1.29-.84,1.86-1.36l-1.36-1.51c.47-.42,.89-.89,1.26-1.4l1.65,1.2c.45-.62,.84-1.29,1.15-1.99l-1.86-.83c.25-.57,.45-1.16,.58-1.79l1.99,.42c.16-.75,.24-1.52,.24-2.29v-.04l-2.03,.02Zm-16.05,.02c0-3.89,3.17-7.06,7.06-7.06s7.06,3.17,7.06,7.06-3.17,7.06-7.06,7.06-7.06-3.17-7.06-7.06Z"/><path class="cls-4" d="M104.98,64.34c-.69,0-1.24,.56-1.24,1.24s.56,1.24,1.24,1.24,1.24-.56,1.24-1.24-.56-1.24-1.24-1.24Z"/><path class="cls-4" d="M100.87,69.88c-.69,0-1.24,.56-1.24,1.24s.56,1.24,1.24,1.24,1.24-.56,1.24-1.24-.56-1.24-1.24-1.24Z"/><circle class="cls-4" cx="91.08" cy="68.35" r="1.24"/><circle class="cls-4" cx="96.32" cy="76.66" r="1.24"/><circle class="cls-4" cx="94.77" cy="51.73" r="1.24"/><path class="cls-4" d="M91.01,44.95c-.69,0-1.24,.56-1.24,1.24s.56,1.24,1.24,1.24,1.24-.56,1.24-1.24-.56-1.24-1.24-1.24Z"/><circle class="cls-4" cx="90.61" cy="60.04" r="1.24"/><rect class="cls-2" x="33.01" y="79.25" width="7.21" height=".37"/><rect class="cls-2" x="27.91" y="76.48" width="12.32" height=".37"/><rect class="cls-2" x="33.01" y="73.71" width="7.21" height=".37"/><rect class="cls-2" x="23.07" y="70.94" width="17.16" height=".37"/><rect class="cls-2" x="33.01" y="68.17" width="7.21" height=".37"/><rect class="cls-2" x="19.05" y="65.4" width="21.18" height=".37"/><rect class="cls-2" x="29.63" y="62.63" width="10.59" height=".37"/><rect class="cls-2" x="33.01" y="59.86" width="7.21" height=".37"/><rect class="cls-2" x="35.45" y="57.09" width="4.77" height=".37"/><rect class="cls-2" x="33.01" y="54.32" width="7.21" height=".37"/><rect class="cls-2" x="29.05" y="51.55" width="11.17" height=".37"/><rect class="cls-2" x="33.01" y="48.78" width="7.21" height=".37"/><rect class="cls-2" x="33.01" y="46.01" width="7.21" height=".37"/><circle class="cls-4" cx="18.18" cy="65.58" r="1.24"/><path class="cls-4" d="M22.29,69.88c.69,0,1.24,.56,1.24,1.24s-.56,1.24-1.24,1.24-1.24-.56-1.24-1.24,.56-1.24,1.24-1.24Z"/><path class="cls-4" d="M32.08,67.11c.69,0,1.24,.56,1.24,1.24s-.56,1.24-1.24,1.24-1.24-.56-1.24-1.24,.56-1.24,1.24-1.24Z"/><path class="cls-4" d="M26.84,75.42c.69,0,1.24,.56,1.24,1.24s-.56,1.24-1.24,1.24-1.24-.56-1.24-1.24,.56-1.24,1.24-1.24Z"/><circle class="cls-4" cx="28.39" cy="51.73" r="1.24"/><circle class="cls-4" cx="32.15" cy="46.19" r="1.24"/><circle class="cls-4" cx="32.55" cy="60.04" r="1.24"/><path class="cls-1" d="M64.4,60.96c0,.44-.06,.82-.19,1.16-.13,.34-.3,.62-.53,.85-.23,.23-.5,.41-.81,.54-.31,.13-.66,.2-1.05,.21l-.04,1.94c0,.06-.03,.11-.09,.14-.06,.03-.16,.05-.31,.05-.07,0-.14,0-.19-.01-.05,0-.1-.02-.13-.04-.03-.02-.05-.04-.07-.06-.01-.02-.02-.05-.02-.08l-.04-2.18c0-.09,.01-.16,.03-.22,.02-.06,.05-.11,.09-.14,.04-.04,.09-.06,.15-.08,.06-.01,.13-.02,.21-.02h.19c.35,0,.64-.05,.89-.16,.24-.11,.44-.25,.58-.44,.15-.18,.25-.39,.32-.64,.07-.24,.1-.5,.1-.76,0-.3-.04-.58-.12-.82-.08-.25-.21-.47-.37-.65-.17-.18-.38-.32-.63-.42-.25-.1-.56-.15-.9-.15-.3,0-.56,.03-.78,.1-.23,.07-.42,.14-.58,.22-.16,.08-.3,.15-.4,.22-.1,.07-.18,.1-.23,.1-.03,0-.06,0-.09-.02-.03-.01-.05-.03-.07-.07-.02-.03-.03-.07-.04-.12,0-.05-.01-.11-.01-.19,0-.09,0-.16,.02-.21,.01-.05,.04-.1,.09-.15,.05-.05,.14-.11,.29-.19,.14-.08,.31-.15,.51-.22,.2-.07,.42-.12,.65-.17,.24-.05,.48-.07,.73-.07,.49,0,.91,.07,1.27,.21,.36,.14,.65,.33,.88,.58,.23,.25,.41,.54,.52,.87,.11,.33,.17,.69,.17,1.07Zm-2.37,6.56c0,.14,0,.25-.03,.34-.02,.09-.05,.16-.1,.21-.05,.05-.11,.09-.19,.11-.08,.02-.18,.03-.3,.03s-.23-.01-.31-.03c-.08-.02-.14-.06-.19-.11-.05-.05-.08-.12-.1-.21-.02-.09-.03-.2-.03-.34s0-.25,.03-.34c.02-.09,.05-.16,.1-.21,.05-.05,.11-.09,.19-.11,.08-.02,.18-.03,.31-.03s.22,.01,.3,.03c.08,.02,.14,.06,.19,.11,.05,.05,.08,.12,.1,.21,.02,.09,.03,.21,.03,.34Z"/><path class="cls-4" d="M36.45,31.7c0,1.72-1.4,3.12-3.12,3.12s-3.12-1.4-3.12-3.12,1.4-3.12,3.12-3.12,3.12,1.4,3.12,3.12Z"/><g><path class="cls-3" d="M32.98,31.89h-.56c-.1,0-.19-.08-.19-.19s.08-.19,.19-.19h.56c.1,0,.19,.08,.19,.19s-.08,.19-.19,.19Z"/><path class="cls-3" d="M31.23,31.89h-1.19c-.1,0-.19-.08-.19-.19s.08-.19,.19-.19h1.19c.1,0,.19,.08,.19,.19s-.08,.19-.19,.19Zm-2.38,0h-1.19c-.1,0-.19-.08-.19-.19s.08-.19,.19-.19h1.19c.1,0,.19,.08,.19,.19s-.08,.19-.19,.19Zm-2.38,0h-1.19c-.1,0-.19-.08-.19-.19s.08-.19,.19-.19h1.19c.1,0,.19,.08,.19,.19s-.08,.19-.19,.19Z"/><path class="cls-3" d="M23.53,32.45c-.1,0-.19-.08-.19-.19v-.75h.75c.1,0,.19,.08,.19,.19s-.08,.19-.19,.19h-.37v.37c0,.1-.08,.19-.19,.19Z"/><path class="cls-3" d="M23.53,63.69c-.1,0-.19-.08-.19-.19v-1.12c0-.1,.08-.19,.19-.19s.19,.08,.19,.19v1.12c0,.1-.08,.19-.19,.19Zm0-2.23c-.1,0-.19-.08-.19-.19v-1.12c0-.1,.08-.19,.19-.19s.19,.08,.19,.19v1.12c0,.1-.08,.19-.19,.19Zm0-2.23c-.1,0-.19-.08-.19-.19v-1.12c0-.1,.08-.19,.19-.19s.19,.08,.19,.19v1.12c0,.1-.08,.19-.19,.19Zm0-2.23c-.1,0-.19-.08-.19-.19v-1.12c0-.1,.08-.19,.19-.19s.19,.08,.19,.19v1.12c0,.1-.08,.19-.19,.19Zm0-2.23c-.1,0-.19-.08-.19-.19v-1.12c0-.1,.08-.19,.19-.19s.19,.08,.19,.19v1.12c0,.1-.08,.19-.19,.19Zm0-2.23c-.1,0-.19-.08-.19-.19v-1.12c0-.1,.08-.19,.19-.19s.19,.08,.19,.19v1.12c0,.1-.08,.19-.19,.19Zm0-2.23c-.1,0-.19-.08-.19-.19v-1.12c0-.1,.08-.19,.19-.19s.19,.08,.19,.19v1.12c0,.1-.08,.19-.19,.19Zm0-2.23c-.1,0-.19-.08-.19-.19v-1.12c0-.1,.08-.19,.19-.19s.19,.08,.19,.19v1.12c0,.1-.08,.19-.19,.19Zm0-2.23c-.1,0-.19-.08-.19-.19v-1.12c0-.1,.08-.19,.19-.19s.19,.08,.19,.19v1.12c0,.1-.08,.19-.19,.19Zm0-2.23c-.1,0-.19-.08-.19-.19v-1.12c0-.1,.08-.19,.19-.19s.19,.08,.19,.19v1.12c0,.1-.08,.19-.19,.19Zm0-2.23c-.1,0-.19-.08-.19-.19v-1.12c0-.1,.08-.19,.19-.19s.19,.08,.19,.19v1.12c0,.1-.08,.19-.19,.19Zm0-2.23c-.1,0-.19-.08-.19-.19v-1.12c0-.1,.08-.19,.19-.19s.19,.08,.19,.19v1.12c0,.1-.08,.19-.19,.19Zm0-2.23c-.1,0-.19-.08-.19-.19v-1.12c0-.1,.08-.19,.19-.19s.19,.08,.19,.19v1.12c0,.1-.08,.19-.19,.19Zm0-2.23c-.1,0-.19-.08-.19-.19v-1.12c0-.1,.08-.19,.19-.19s.19,.08,.19,.19v1.12c0,.1-.08,.19-.19,.19Z"/><path class="cls-3" d="M23.53,65.36c-.1,0-.19-.08-.19-.19v-.56c0-.1,.08-.19,.19-.19s.19,.08,.19,.19v.56c0,.1-.08,.19-.19,.19Z"/><polygon class="cls-3" points="31.74 30.17 31.48 30.44 32.84 31.7 31.48 32.96 31.74 33.23 33.39 31.7 31.74 30.17"/><polygon class="cls-3" points="22 63.93 22.28 63.68 23.53 65.03 24.79 63.68 25.07 63.93 23.53 65.58 22 63.93"/></g><g><path class="cls-3" d="M99.88,88.24c-.1,0-.19-.08-.19-.19v-.56c0-.1,.08-.19,.19-.19s.19,.08,.19,.19v.56c0,.1-.08,.19-.19,.19Z"/><path class="cls-3" d="M99.88,95.38c-.1,0-.19-.08-.19-.19v-1.19c0-.1,.08-.19,.19-.19s.19,.08,.19,.19v1.19c0,.1-.08,.19-.19,.19Zm0-2.38c-.1,0-.19-.08-.19-.19v-1.19c0-.1,.08-.19,.19-.19s.19,.08,.19,.19v1.19c0,.1-.08,.19-.19,.19Zm0-2.38c-.1,0-.19-.08-.19-.19v-1.19c0-.1,.08-.19,.19-.19s.19,.08,.19,.19v1.19c0,.1-.08,.19-.19,.19Z"/><path class="cls-3" d="M100.07,97.13h-.75c-.1,0-.19-.08-.19-.19s.08-.19,.19-.19h.37v-.37c0-.1,.08-.19,.19-.19s.19,.08,.19,.19v.75Z"/><path class="cls-3" d="M98.2,97.13h-1.12c-.1,0-.19-.08-.19-.19s.08-.19,.19-.19h1.12c.1,0,.19,.08,.19,.19s-.08,.19-.19,.19Zm-2.23,0h-1.12c-.1,0-.19-.08-.19-.19s.08-.19,.19-.19h1.12c.1,0,.19,.08,.19,.19s-.08,.19-.19,.19Zm-2.23,0h-1.12c-.1,0-.19-.08-.19-.19s.08-.19,.19-.19h1.12c.1,0,.19,.08,.19,.19s-.08,.19-.19,.19Zm-2.23,0h-1.12c-.1,0-.19-.08-.19-.19s.08-.19,.19-.19h1.12c.1,0,.19,.08,.19,.19s-.08,.19-.19,.19Zm-2.23,0h-1.12c-.1,0-.19-.08-.19-.19s.08-.19,.19-.19h1.12c.1,0,.19,.08,.19,.19s-.08,.19-.19,.19Zm-2.23,0h-1.12c-.1,0-.19-.08-.19-.19s.08-.19,.19-.19h1.12c.1,0,.19,.08,.19,.19s-.08,.19-.19,.19Zm-2.23,0h-1.12c-.1,0-.19-.08-.19-.19s.08-.19,.19-.19h1.12c.1,0,.19,.08,.19,.19s-.08,.19-.19,.19Zm-2.23,0h-1.12c-.1,0-.19-.08-.19-.19s.08-.19,.19-.19h1.12c.1,0,.19,.08,.19,.19s-.08,.19-.19,.19Zm-2.23,0h-1.12c-.1,0-.19-.08-.19-.19s.08-.19,.19-.19h1.12c.1,0,.19,.08,.19,.19s-.08,.19-.19,.19Zm-2.23,0h-1.12c-.1,0-.19-.08-.19-.19s.08-.19,.19-.19h1.12c.1,0,.19,.08,.19,.19s-.08,.19-.19,.19Zm-2.23,0h-1.12c-.1,0-.19-.08-.19-.19s.08-.19,.19-.19h1.12c.1,0,.19,.08,.19,.19s-.08,.19-.19,.19Zm-2.23,0h-1.12c-.1,0-.19-.08-.19-.19s.08-.19,.19-.19h1.12c.1,0,.19,.08,.19,.19s-.08,.19-.19,.19Zm-2.23,0h-1.12c-.1,0-.19-.08-.19-.19s.08-.19,.19-.19h1.12c.1,0,.19,.08,.19,.19s-.08,.19-.19,.19Zm-2.23,0h-1.12c-.1,0-.19-.08-.19-.19s.08-.19,.19-.19h1.12c.1,0,.19,.08,.19,.19s-.08,.19-.19,.19Z"/><path class="cls-3" d="M66.96,97.13h-.56c-.1,0-.19-.08-.19-.19s.08-.19,.19-.19h.56c.1,0,.19,.08,.19,.19s-.08,.19-.19,.19Z"/><polygon class="cls-3" points="98.35 88.74 98.62 88.99 99.88 87.64 101.14 88.99 101.41 88.74 99.88 87.09 98.35 88.74"/><polygon class="cls-3" points="67.64 95.41 67.9 95.68 66.55 96.94 67.9 98.2 67.64 98.47 66 96.94 67.64 95.41"/></g><path class="cls-4" d="M99.88,95.7c-.69,0-1.24,.56-1.24,1.24s.56,1.24,1.24,1.24,1.24-.56,1.24-1.24-.56-1.24-1.24-1.24Z"/><path class="cls-4" d="M23.53,30.46c.69,0,1.24,.56,1.24,1.24s-.56,1.24-1.24,1.24-1.24-.56-1.24-1.24,.56-1.24,1.24-1.24Z"/><path class="cls-1" d="M90.43,91.71c-.08,0-.15-.05-.17-.12l-2.02-5.09c-.04-.1,0-.21,.11-.24,.1-.04,.2,0,.24,.11l1.84,4.65,2.81-7.12c.04-.1,.15-.14,.24-.11,.1,.04,.14,.15,.11,.24l-2.98,7.56c-.03,.07-.1,.12-.17,.12h0Z"/></g></svg>