<?xml version="1.0" encoding="UTF-8"?><svg id="Layer_1" xmlns="http://www.w3.org/2000/svg" viewBox="0 0 123.16 123.16"><defs><style>.cls-1{fill:#fff;}.cls-2{fill:#e2e0de;}.cls-3{fill:#ff5542;}.cls-4{fill:#ff6453;}.cls-5{fill:#6b6b6b;}.cls-6{fill:#fbd350;}.cls-7{fill:#3398bd;}.cls-8{fill:none;}.cls-9{fill:#ffda70;}.cls-10{fill:#eeeded;}.cls-11{fill:#5e5e5e;}</style></defs><circle class="cls-1" cx="60.81" cy="62.17" r="58.24"/><rect class="cls-8" width="123.16" height="123.16"/><g><polygon class="cls-7" points="21.86 66.57 20.09 69.72 22.02 69.72 22.02 88.91 25.23 88.91 25.23 69.72 27.16 69.72 25.39 66.57 23.62 63.41 21.86 66.57"/><polygon class="cls-2" points="85.47 62.17 83.26 59.97 81.05 62.17 80.81 61.93 83.26 59.47 85.72 61.93 85.47 62.17"/><polygon class="cls-2" points="85.47 64.51 83.26 62.3 81.05 64.51 80.81 64.26 83.26 61.8 85.72 64.26 85.47 64.51"/><polygon class="cls-2" points="85.47 66.84 83.26 64.63 81.05 66.84 80.81 66.59 83.26 64.13 85.72 66.59 85.47 66.84"/><polygon class="cls-2" points="85.47 69.17 83.26 66.96 81.05 69.17 80.81 68.92 83.26 66.46 85.72 68.92 85.47 69.17"/><polygon class="cls-2" points="85.47 71.5 83.26 69.29 81.05 71.5 80.81 71.25 83.26 68.79 85.72 71.25 85.47 71.5"/><polygon class="cls-2" points="85.47 73.83 83.26 71.62 81.05 73.83 80.81 73.58 83.26 71.13 85.72 73.58 85.47 73.83"/><polygon class="cls-2" points="85.47 76.16 83.26 73.95 81.05 76.16 80.81 75.91 83.26 73.46 85.72 75.91 85.47 76.16"/><path class="cls-2" d="M50.56,97.21c0,1.89-1.53,3.43-3.43,3.43s-3.43-1.53-3.43-3.43,1.53-3.43,3.43-3.43,3.43,1.53,3.43,3.43Z"/><path class="cls-2" d="M47.13,100.64c-1.89,0-3.43-1.53-3.43-3.43s1.53-3.43,3.43-3.43v6.86Z"/><path d="M47.13,98.46c-.69,0-1.24-.56-1.24-1.24s.56-1.24,1.24-1.24,1.24,.56,1.24,1.24-.56,1.24-1.24,1.24Zm0-2.14c-.49,0-.89,.4-.89,.89s.4,.89,.89,.89,.89-.4,.89-.89-.4-.89-.89-.89Z"/><path class="cls-7" d="M55.7,99.31h-2.42l-1.21-2.09,1.21-2.09h2.42l1.21,2.09-1.21,2.09Zm-1.81-1.06h1.2l.6-1.04-.6-1.04h-1.2l-.6,1.04,.6,1.04Z"/><path class="cls-7" d="M26.13,94.03h-2.42l-1.21-2.09,1.21-2.09h2.42l1.21,2.09-1.21,2.09Zm-1.81-1.06h1.2l.6-1.04-.6-1.04h-1.2l-.6,1.04,.6,1.04Z"/><path class="cls-7" d="M61.48,99.31h-2.42l-1.21-2.09,1.21-2.09h2.42l1.21,2.09-1.21,2.09Zm-1.81-1.06h1.2l.6-1.04-.6-1.04h-1.2l-.6,1.04,.6,1.04Z"/><path class="cls-7" d="M67.27,99.31h-2.42l-1.21-2.09,1.21-2.09h2.42l1.21,2.09-1.21,2.09Zm-1.81-1.06h1.2l.6-1.04-.6-1.04h-1.2l-.6,1.04,.6,1.04Z"/><path class="cls-7" d="M63.36,85.85h-3l-1.5-2.6,1.5-2.6h3l1.5,2.6-1.5,2.6Zm-2.39-1.06h1.78l.89-1.54-.89-1.54h-1.78l-.89,1.54,.89,1.54Z"/><g><polygon class="cls-2" points="98.24 83.99 97.56 83.83 99.57 74.98 95.06 72.33 95.12 66.41 98.58 58.68 95.8 53.56 99 48.06 96.34 42.21 98.62 34.95 98.51 22.93 87.08 30.41 73.08 23.3 73.08 42.22 72.38 42.22 72.38 22.15 87.04 29.6 99.21 21.64 99.32 35.05 97.1 42.16 99.79 48.1 96.61 53.58 99.36 58.65 95.82 66.56 95.77 71.93 100.37 74.63 98.24 83.99"/><polygon class="cls-2" points="101.22 82.28 100.83 81.7 97.96 83.65 96.22 80.65 95.61 81 97.73 84.66 101.22 82.28"/></g><path class="cls-6" d="M97.73,34.96c0,.63,.51,1.15,1.15,1.15s1.15-.51,1.15-1.15-.51-1.15-1.15-1.15-1.15,.51-1.15,1.15Z"/><path class="cls-6" d="M85.94,30.17c0,.63,.51,1.15,1.15,1.15s1.15-.51,1.15-1.15-.51-1.15-1.15-1.15-1.15,.51-1.15,1.15Z"/><path class="cls-6" d="M95.15,53.56c0,.63,.51,1.15,1.15,1.15s1.15-.51,1.15-1.15-.51-1.15-1.15-1.15-1.15,.51-1.15,1.15Z"/><path class="cls-6" d="M97.68,58.66c0,.63,.51,1.15,1.15,1.15s1.15-.51,1.15-1.15-.51-1.15-1.15-1.15-1.15,.51-1.15,1.15Z"/><path class="cls-6" d="M94.37,66.35c0,.63,.51,1.15,1.15,1.15s1.15-.51,1.15-1.15-.51-1.15-1.15-1.15-1.15,.51-1.15,1.15Z"/><path class="cls-6" d="M94.37,72.4c0,.63,.51,1.15,1.15,1.15s1.15-.51,1.15-1.15-.51-1.15-1.15-1.15-1.15,.51-1.15,1.15Z"/><path class="cls-6" d="M98.88,74.81c0,.63,.51,1.15,1.15,1.15s1.15-.51,1.15-1.15-.51-1.15-1.15-1.15-1.15,.51-1.15,1.15Z"/><path class="cls-6" d="M95.52,41.53c0,.63,.51,1.15,1.15,1.15s1.15-.51,1.15-1.15-.51-1.15-1.15-1.15-1.15,.51-1.15,1.15Z"/><path class="cls-6" d="M98.12,48c0,.63,.51,1.15,1.15,1.15s1.15-.51,1.15-1.15-.51-1.15-1.15-1.15-1.15,.51-1.15,1.15Z"/><path class="cls-6" d="M74.82,36.11c0,1.15-.93,2.09-2.09,2.09s-2.09-.93-2.09-2.09,.93-2.09,2.09-2.09,2.09,.93,2.09,2.09Z"/><path class="cls-7" d="M90.59,53.31c0,1.15-.93,2.09-2.09,2.09s-2.09-.93-2.09-2.09,.93-2.09,2.09-2.09,2.09,.93,2.09,2.09Z"/><path class="cls-11" d="M86.36,26.69c-.2-.01-.39-.02-.58-.05-.1-.02-.16-.11-.14-.2,.02-.1,.11-.16,.2-.14,.17,.03,.36,.06,.52,.04,.17,0,.35-.02,.52-.05,.1-.02,.19,.05,.2,.14,.02,.1-.05,.19-.14,.2-.19,.03-.38,.05-.58,.05Zm-1.59-.42s-.06,0-.09-.02c-.34-.2-.64-.45-.89-.74-.06-.07-.05-.19,.02-.25,.07-.06,.19-.05,.25,.02,.23,.27,.49,.49,.8,.67,.08,.05,.11,.16,.06,.24-.03,.06-.09,.09-.15,.09Zm3.17,0c-.06,0-.12-.03-.15-.09-.05-.08-.02-.19,.06-.24,.3-.17,.57-.4,.79-.67,.06-.07,.17-.08,.25-.02,.07,.06,.08,.17,.02,.25-.25,.3-.55,.55-.89,.75-.03,.02-.06,.02-.09,.02Zm-4.56-1.65c-.07,0-.14-.04-.17-.12-.13-.37-.2-.75-.2-1.14,0-.1,.08-.18,.18-.18h0c.1,0,.18,.08,.18,.18,0,.35,.06,.7,.18,1.02,.03,.09-.01,.19-.1,.23-.02,0-.04,.01-.06,.01Zm5.95,0s-.04,0-.06-.01c-.09-.03-.14-.13-.1-.23,.12-.33,.18-.67,.18-1.02,0-.1,.08-.18,.18-.18s.18,.07,.18,.17h0c0,.41-.07,.79-.2,1.16-.03,.07-.09,.12-.17,.12Zm-5.96-2.16s-.04,0-.06-.01c-.09-.03-.14-.13-.11-.23,.13-.37,.33-.71,.58-1.01,.06-.07,.17-.08,.25-.02,.07,.06,.08,.17,.02,.25-.23,.27-.4,.57-.52,.9-.03,.07-.09,.12-.17,.12Zm5.95-.02c-.07,0-.14-.04-.17-.12-.12-.33-.3-.63-.52-.9-.06-.07-.05-.19,.02-.25,.07-.06,.18-.05,.25,.02,.25,.3,.45,.64,.58,1,.03,.09-.01,.19-.1,.23-.02,0-.04,.01-.06,.01Zm-4.56-1.64c-.06,0-.12-.03-.15-.09-.05-.08-.02-.19,.06-.24,.34-.2,.7-.33,1.09-.4,.1-.02,.19,.05,.2,.14,.02,.1-.05,.19-.14,.2-.34,.06-.67,.18-.97,.36-.03,.02-.06,.02-.09,.02Zm3.16,0s-.06,0-.09-.02c-.3-.17-.63-.29-.98-.35-.1-.02-.16-.11-.14-.2,.02-.1,.11-.16,.2-.14,.39,.07,.75,.2,1.09,.39,.08,.05,.11,.16,.06,.24-.03,.06-.09,.09-.15,.09Z"/><path class="cls-11" d="M88.51,58.1c-.1,0-.18-.08-.18-.18,0-.1,.08-.18,.18-.18,.33,0,.67-.04,.99-.11,.1-.02,.19,.04,.21,.13,.02,.09-.04,.19-.13,.21-.35,.08-.7,.12-1.07,.12h0Zm-1.03-.11s-.03,0-.04,0c-.35-.08-.69-.2-1.01-.35-.09-.04-.12-.15-.08-.23,.04-.09,.15-.12,.23-.08,.3,.14,.61,.25,.94,.33,.09,.02,.15,.12,.13,.21-.02,.08-.09,.14-.17,.14Zm3.03-.34c-.07,0-.13-.04-.16-.1-.04-.09,0-.19,.08-.23,.3-.14,.58-.32,.84-.53,.08-.06,.19-.05,.25,.03,.06,.08,.05,.19-.03,.25-.28,.22-.58,.42-.91,.57-.02,.01-.05,.02-.08,.02Zm-4.88-.55s-.08-.01-.11-.04c-.28-.22-.54-.48-.76-.76-.06-.08-.05-.19,.03-.25,.08-.06,.19-.05,.25,.03,.21,.26,.44,.49,.7,.7,.08,.06,.09,.17,.03,.25-.03,.04-.09,.07-.14,.07Zm6.48-.74s-.08-.01-.11-.04c-.08-.06-.09-.17-.03-.25,.21-.26,.39-.54,.53-.84,.04-.09,.15-.12,.23-.08,.09,.04,.12,.15,.08,.23-.15,.32-.35,.63-.57,.91-.03,.04-.09,.07-.14,.07Zm-7.76-.87c-.07,0-.13-.04-.16-.1-.16-.32-.28-.66-.36-1.01-.02-.09,.04-.19,.13-.21,.09-.02,.19,.04,.21,.13,.07,.32,.18,.64,.33,.94,.04,.09,0,.19-.08,.23-.02,.01-.05,.02-.08,.02Zm8.65-.98s-.03,0-.04,0c-.09-.02-.15-.12-.13-.21,.07-.32,.11-.65,.11-.99,0-.1,.08-.19,.18-.19s.18,.07,.18,.17h0c0,.38-.04,.74-.12,1.08-.02,.08-.09,.14-.17,.14Zm-9.11-1.02c-.1,0-.18-.07-.18-.17h0c0-.37,.04-.72,.12-1.07,.02-.09,.12-.15,.21-.13,.09,.02,.15,.12,.13,.21-.07,.32-.11,.65-.11,.98,0,.1-.08,.18-.18,.18Zm9.11-1.05c-.08,0-.15-.05-.17-.14-.07-.32-.19-.64-.33-.94-.04-.09,0-.19,.08-.23,.09-.04,.19,0,.24,.08,.16,.32,.28,.66,.36,1.01,.02,.09-.04,.19-.13,.21-.01,0-.03,0-.04,0Zm-8.66-.95s-.05,0-.08-.02c-.09-.04-.12-.15-.08-.23,.15-.32,.35-.63,.57-.91,.06-.08,.17-.09,.25-.03,.08,.06,.09,.17,.03,.25-.21,.26-.38,.54-.53,.84-.03,.06-.09,.1-.16,.1Zm7.76-.9c-.05,0-.1-.02-.14-.07-.21-.26-.45-.49-.7-.7-.08-.06-.09-.17-.03-.25,.06-.08,.17-.09,.25-.03,.28,.22,.54,.48,.76,.76,.06,.08,.05,.19-.03,.25-.03,.03-.07,.04-.11,.04Zm-6.48-.71c-.05,0-.1-.02-.14-.07-.06-.08-.05-.19,.03-.25,.28-.22,.58-.42,.91-.57,.09-.04,.19,0,.23,.08,.04,.09,0,.19-.08,.24-.3,.14-.58,.32-.84,.53-.03,.03-.07,.04-.11,.04Zm4.87-.56s-.05,0-.08-.02c-.3-.14-.61-.25-.94-.32-.09-.02-.15-.12-.13-.21,.02-.09,.12-.15,.21-.13,.35,.08,.69,.2,1.01,.35,.09,.04,.12,.15,.08,.23-.03,.06-.09,.1-.16,.1Zm-3.03-.33c-.08,0-.15-.05-.17-.14-.02-.09,.04-.19,.13-.21,.35-.08,.7-.12,1.06-.12h0c.1,0,.18,.08,.18,.18,0,.1-.08,.18-.18,.18-.33,0-.67,.04-.99,.11-.01,0-.03,0-.04,0Z"/><circle class="cls-7" cx="64.13" cy="26.08" r="1.52"/><path class="cls-11" d="M64.13,29.6c-.1,0-.18-.08-.18-.18,0-.1,.08-.18,.18-.18,.34,0,.67-.05,.98-.16,.09-.03,.19,.02,.22,.11,.03,.09-.02,.19-.11,.22-.35,.11-.72,.17-1.09,.17h0Zm-1.04-.16s-.04,0-.05,0c-.35-.11-.68-.28-.98-.5-.08-.06-.1-.17-.04-.25,.06-.08,.17-.1,.25-.04,.27,.2,.57,.35,.89,.45,.09,.03,.14,.13,.11,.22-.02,.07-.09,.12-.17,.12Zm3-.48c-.05,0-.11-.03-.14-.07-.06-.08-.04-.19,.04-.25,.27-.2,.51-.43,.7-.7,.06-.08,.17-.1,.25-.04,.08,.06,.1,.17,.04,.25-.22,.3-.48,.56-.78,.78-.03,.02-.07,.03-.1,.03Zm-4.68-.74c-.05,0-.11-.03-.14-.07-.22-.3-.39-.63-.5-.98-.03-.09,.02-.19,.11-.22,.09-.03,.19,.02,.22,.11,.1,.32,.26,.61,.45,.88,.06,.08,.04,.19-.04,.25-.03,.02-.07,.03-.1,.03Zm5.9-.94s-.04,0-.05,0c-.09-.03-.14-.13-.11-.22,.1-.32,.15-.65,.15-.98,0-.1,.08-.18,.18-.18s.18,.07,.18,.17h0c0,.39-.06,.75-.17,1.1-.02,.07-.09,.12-.17,.12Zm-6.54-1.03c-.1,0-.18-.08-.18-.17h0c0-.38,.06-.74,.17-1.09,.03-.09,.13-.14,.22-.11,.09,.03,.14,.13,.11,.22-.1,.31-.15,.64-.15,.98,0,.1-.08,.18-.18,.18Zm6.54-1.05c-.07,0-.14-.05-.17-.12-.1-.32-.26-.61-.45-.88-.06-.08-.04-.19,.04-.25,.08-.06,.19-.04,.25,.04,.22,.3,.39,.63,.51,.98,.03,.09-.02,.19-.11,.22-.02,0-.04,0-.05,0Zm-5.9-.92s-.07-.01-.1-.03c-.08-.06-.1-.17-.04-.25,.22-.3,.48-.56,.78-.78,.08-.06,.19-.04,.25,.04,.06,.08,.04,.19-.04,.25-.27,.2-.51,.43-.7,.7-.03,.05-.09,.07-.14,.07Zm4.68-.75s-.07-.01-.1-.03c-.27-.2-.57-.35-.89-.45-.09-.03-.14-.13-.11-.22,.03-.09,.13-.14,.22-.11,.35,.11,.68,.28,.98,.5,.08,.06,.1,.17,.04,.25-.03,.05-.09,.07-.14,.07Zm-3.01-.47c-.07,0-.14-.05-.17-.12-.03-.09,.02-.19,.11-.22,.35-.12,.72-.17,1.09-.17h0c.1,0,.18,.08,.18,.18,0,.1-.08,.18-.18,.18-.34,0-.67,.05-.98,.16-.02,0-.04,0-.05,0Z"/><path class="cls-7" d="M66.88,36.76c0,.68-.55,1.24-1.24,1.24s-1.24-.55-1.24-1.24,.55-1.24,1.24-1.24,1.24,.55,1.24,1.24Z"/><path class="cls-11" d="M65.65,39.66h0c-.38,0-.76-.07-1.11-.22-.09-.04-.13-.14-.1-.23,.04-.09,.14-.13,.23-.1,.31,.13,.64,.19,.97,.19,.1,0,.18,.08,.18,.18s-.08,.18-.17,.18Zm1.04-.21c-.07,0-.13-.04-.16-.11-.04-.09,0-.19,.1-.23,.31-.13,.59-.32,.83-.56,.07-.07,.18-.07,.25,0,.07,.07,.07,.18,0,.25-.27,.27-.59,.48-.94,.63-.02,0-.04,.01-.07,.01Zm-2.98-.59s-.09-.02-.12-.05c-.27-.27-.49-.59-.63-.94-.04-.09,0-.19,.09-.23,.09-.04,.19,0,.23,.09,.13,.31,.32,.59,.56,.83,.07,.07,.07,.18,0,.25-.03,.03-.08,.05-.12,.05Zm4.45-.89s-.05,0-.07-.01c-.09-.04-.13-.14-.1-.23,.13-.31,.19-.64,.19-.98,0-.1,.08-.19,.18-.19s.18,.07,.18,.17v.02c0,.38-.07,.76-.22,1.11-.03,.07-.09,.11-.16,.11Zm-5.26-1.04c-.1,0-.18-.07-.18-.17h0c0-.39,.07-.76,.22-1.11,.04-.09,.14-.13,.23-.1,.09,.04,.13,.14,.1,.23-.13,.31-.19,.63-.19,.97,0,.1-.08,.18-.18,.18Zm5.25-1.07c-.07,0-.13-.04-.16-.11-.13-.31-.32-.59-.56-.82-.07-.07-.07-.18,0-.25,.07-.07,.18-.07,.25,0,.27,.27,.49,.59,.64,.94,.04,.09,0,.19-.09,.23-.02,0-.05,.01-.07,.01Zm-4.46-.86s-.09-.02-.12-.05c-.07-.07-.07-.18,0-.25,.27-.27,.59-.49,.94-.63,.09-.04,.19,0,.23,.09,.04,.09,0,.19-.09,.23-.31,.13-.59,.32-.83,.56-.03,.03-.08,.05-.12,.05Zm2.97-.61s-.04,0-.07-.01c-.31-.12-.63-.19-.96-.19-.1,0-.18-.08-.18-.18s.07-.18,.17-.18h.01c.38,0,.75,.07,1.1,.21,.09,.04,.13,.14,.1,.23-.03,.07-.09,.11-.16,.11Z"/><circle class="cls-7" cx="60.98" cy="63.47" r="1.66"/><path class="cls-11" d="M60.46,67.27s-.02,0-.02,0c-.36-.05-.72-.15-1.05-.31-.09-.04-.13-.14-.09-.23,.04-.09,.14-.13,.23-.09,.3,.14,.62,.23,.95,.28,.1,.01,.16,.1,.15,.2-.01,.09-.09,.15-.17,.15Zm1.04,0c-.09,0-.16-.06-.17-.15-.01-.1,.05-.19,.15-.2,.33-.05,.65-.14,.95-.28,.09-.04,.19,0,.23,.09,.04,.09,0,.19-.09,.23-.33,.15-.69,.26-1.05,.31,0,0-.02,0-.02,0Zm-2.92-.85s-.08-.01-.11-.04c-.28-.24-.52-.52-.72-.82-.05-.08-.03-.19,.05-.24,.08-.05,.19-.03,.24,.05,.18,.28,.4,.53,.65,.75,.07,.06,.08,.17,.02,.25-.03,.04-.08,.06-.13,.06Zm4.8,0s-.1-.02-.13-.06c-.06-.07-.06-.18,.02-.25,.25-.22,.47-.47,.65-.75,.05-.08,.16-.11,.24-.05,.08,.05,.11,.16,.05,.24-.2,.31-.44,.59-.72,.83-.03,.03-.07,.04-.12,.04Zm-5.92-1.73c-.08,0-.15-.05-.17-.13-.1-.35-.16-.71-.16-1.08,0-.1,.08-.18,.18-.18h0c.1,0,.18,.08,.18,.18,0,.33,.05,.66,.14,.98,.03,.09-.03,.19-.12,.22-.02,0-.03,0-.05,0Zm7.03,0s-.03,0-.05,0c-.09-.03-.15-.13-.12-.22,.09-.32,.14-.65,.14-.98,0-.1,.08-.18,.18-.18s.18,.07,.18,.17v.02c0,.37-.05,.73-.15,1.08-.02,.08-.09,.13-.17,.13Zm-7.04-2.06s-.03,0-.05,0c-.09-.03-.15-.12-.12-.22,.1-.35,.25-.69,.45-.99,.05-.08,.16-.11,.24-.05,.08,.05,.11,.16,.05,.24-.18,.28-.32,.58-.41,.9-.02,.08-.09,.13-.17,.13Zm7.03-.02c-.08,0-.15-.05-.17-.13-.1-.32-.23-.62-.42-.9-.05-.08-.03-.19,.05-.24,.08-.05,.19-.03,.24,.05,.2,.31,.35,.64,.46,.99,.03,.09-.03,.19-.12,.22-.02,0-.03,0-.05,0Zm-5.92-1.72s-.1-.02-.13-.06c-.06-.07-.06-.18,.02-.25,.28-.24,.59-.44,.92-.59,.09-.04,.19,0,.23,.09,.04,.09,0,.19-.09,.23-.3,.14-.58,.32-.83,.54-.03,.03-.07,.04-.12,.04Zm4.8-.02s-.08-.01-.11-.04c-.25-.22-.53-.4-.84-.53-.09-.04-.13-.14-.09-.23,.04-.09,.14-.13,.23-.09,.33,.15,.64,.35,.92,.59,.07,.06,.08,.17,.02,.25-.03,.04-.08,.06-.13,.06Zm-2.92-.85c-.09,0-.16-.06-.17-.15-.01-.1,.05-.19,.15-.2,.36-.05,.73-.05,1.09,0,.1,.01,.16,.1,.15,.2-.01,.1-.1,.16-.2,.15-.33-.05-.67-.04-.99,0,0,0-.02,0-.03,0Z"/><polygon class="cls-3" points="72.87 103.36 39.23 103.36 39.23 92.32 40.64 92.32 40.64 101.95 71.46 101.95 71.46 72.25 72.87 72.25 72.87 103.36"/><polygon class="cls-7" points="81.36 84.03 75.4 84.03 75.4 78.07 81.36 84.03"/><polygon class="cls-7" points="88.18 84.03 82.22 84.03 82.22 78.07 88.18 84.03"/><polygon class="cls-7" points="94.99 84.03 89.04 84.03 89.04 78.07 94.99 84.03"/><path class="cls-2" d="M70.12,102.21c0,.97,.79,1.76,1.76,1.76s1.76-.79,1.76-1.76-.79-1.76-1.76-1.76-1.76,.79-1.76,1.76Z"/><path class="cls-2" d="M38.17,102.53c0,.97,.79,1.76,1.76,1.76s1.76-.79,1.76-1.76-.79-1.76-1.76-1.76-1.76,.79-1.76,1.76Z"/><path class="cls-3" d="M81.91,51.1c0-5.15-4.18-9.33-9.33-9.33s-9.33,4.18-9.33,9.33c0,2.86,1.29,5.41,3.31,7.13,.71,2.81,1.32,5.63,1.32,8.51,3.13,0,6.26,0,9.4,0,0-2.88,.62-5.7,1.32-8.51,2.02-1.71,3.31-4.27,3.31-7.13Z"/><path class="cls-4" d="M72.58,41.76c-5.15,0-9.33,4.18-9.33,9.33,0,2.86,1.29,5.41,3.31,7.13,.71,2.81,1.32,5.63,1.32,8.51h4.7v-24.97Z"/><path class="cls-1" d="M74.29,67.26h-3.43c-.27,0-.49-.2-.52-.46l-1.71-13.61c-.03-.21,.08-.42,.27-.53,.19-.1,.42-.08,.59,.05,.4,.33,.93,.62,1.16,.66,.26-1.08,1.07-1.83,2-1.84,.68-.03,1.49,.39,1.79,1.57,.05,.2,.11,.27,.14,.28,.17,.05,.69-.26,1.05-.63,.16-.16,.4-.2,.61-.11,.2,.1,.32,.32,.29,.54l-1.71,13.61c-.03,.26-.26,.46-.52,.46Zm-2.96-1.06h2.5l1.5-11.95c-.32,.15-.68,.23-1.02,.14-.3-.08-.7-.33-.88-1.04-.13-.5-.4-.78-.75-.77-.39,0-.85,.37-1,1.04-.11,.5-.43,.68-.62,.75-.38,.13-.83,.01-1.24-.19l1.51,12.02Z"/><path class="cls-2" d="M78.36,65.4h-11.57c0,4.92,2.59,8.91,5.79,8.91s5.79-3.99,5.79-8.91Z"/><path class="cls-10" d="M72.61,65.4h-5.82c0,4.92,2.59,8.91,5.79,8.91l.04-8.91Z"/><path class="cls-2" d="M50.04,25.69c.37-.07,.74-.11,1.13-.11,3.53,0,6.38,2.86,6.38,6.38,0,1.92-.85,3.64-2.19,4.81,3.63,.62,6.39,3.78,6.39,7.58s-2.75,6.95-6.37,7.58c1.33,1.17,2.17,2.88,2.17,4.79,0,3.53-2.86,6.38-6.38,6.38-.38,0-.76-.04-1.12-.1-.61,1.64-2.19,2.81-4.04,2.81-2.38,0-4.31-1.93-4.31-4.31V27.22c0-2.38,1.93-4.31,4.31-4.31,1.84,0,3.41,1.16,4.03,2.79Z"/><path class="cls-10" d="M31.35,25.69c-.37-.07-.74-.11-1.13-.11-3.53,0-6.38,2.86-6.38,6.38,0,1.92,.85,3.64,2.19,4.81-3.63,.62-6.39,3.78-6.39,7.58s2.75,6.95,6.37,7.58c-1.33,1.17-2.17,2.88-2.17,4.79,0,3.53,2.86,6.38,6.38,6.38,.38,0,.76-.04,1.12-.1,.61,1.64,2.19,2.81,4.04,2.81,2.38,0,4.31-1.93,4.31-4.31V27.22c0-2.38-1.93-4.31-4.31-4.31-1.84,0-3.41,1.16-4.03,2.79Z"/><path class="cls-7" d="M46.01,65.98c-.07,0-.15,0-.22,0-.1,0-.17-.09-.17-.18,0-.1,.08-.18,.18-.17,.34,.02,.68,0,1.01-.07,.1-.02,.19,.04,.21,.14,.02,.1-.04,.19-.14,.21-.29,.06-.58,.09-.88,.09Zm-1.25-.18s-.03,0-.05,0c-.35-.11-.69-.25-1-.44-.08-.05-.11-.16-.06-.24,.05-.08,.16-.11,.24-.06,.29,.17,.6,.31,.92,.41,.09,.03,.15,.13,.12,.22-.02,.08-.09,.13-.17,.13Zm3.09-.23c-.07,0-.13-.04-.16-.1-.04-.09,0-.19,.08-.23,.3-.14,.59-.33,.85-.54,.08-.06,.19-.05,.25,.02,.06,.07,.05,.19-.02,.25-.28,.23-.59,.43-.93,.59-.02,.01-.05,.02-.08,.02Zm-4.88-.84s-.09-.02-.12-.05c-.26-.26-.49-.55-.68-.86-.05-.08-.02-.19,.06-.24,.08-.05,.19-.02,.24,.06,.17,.29,.38,.56,.62,.79,.07,.07,.07,.18,0,.25-.03,.03-.08,.05-.12,.05Zm6.5-.48s-.07-.01-.1-.03c-.08-.06-.09-.17-.04-.25,.2-.27,.37-.57,.5-.88,.04-.09,.14-.13,.23-.09,.09,.04,.13,.14,.09,.23-.14,.34-.32,.66-.54,.95-.03,.05-.09,.07-.14,.07Zm1.71-.97c-.08,0-.17,0-.25,0-.1,0-.17-.09-.17-.18s.09-.17,.18-.17c.08,0,.17,0,.24,0,.26,0,.53-.02,.78-.05,.1-.01,.18,.06,.2,.15,.01,.1-.06,.18-.15,.2-.27,.03-.55,.05-.83,.05Zm1.84-.27c-.08,0-.15-.05-.17-.13-.03-.09,.02-.19,.12-.22,.33-.1,.65-.22,.95-.38,.09-.04,.19,0,.24,.08,.04,.09,0,.19-.08,.24-.32,.16-.66,.29-1.01,.4-.02,0-.03,0-.05,0Zm-11.13-.07c-.08,0-.14-.05-.17-.12-.11-.35-.17-.71-.19-1.08,0-.1,.07-.18,.17-.18,.09,0,.18,.07,.19,.17,.02,.34,.08,.67,.18,.99,.03,.09-.02,.19-.12,.22-.02,0-.03,0-.05,0Zm13.01-.86c-.05,0-.11-.03-.14-.07-.06-.08-.04-.19,.04-.25,.28-.2,.54-.42,.78-.67,.07-.07,.18-.07,.25,0,.07,.07,.07,.18,0,.25-.25,.26-.53,.49-.82,.7-.03,.02-.07,.03-.1,.03Zm-13.2-1.23c-.1,0-.18-.08-.18-.18v-1.06c0-.1,.08-.18,.18-.18s.18,.08,.18,.18v1.06c0,.1-.08,.18-.18,.18Zm14.68-.26s-.07-.01-.1-.03c-.08-.06-.1-.17-.04-.25,.2-.28,.37-.58,.52-.88,.04-.09,.15-.12,.23-.08,.09,.04,.12,.15,.08,.24-.16,.32-.34,.64-.55,.93-.03,.05-.09,.07-.14,.07Zm-14.68-1.85c-.1,0-.18-.08-.18-.18v-1.06c0-.1,.08-.18,.18-.18s.18,.08,.18,.18v1.06c0,.1-.08,.18-.18,.18Zm15.6-.04s-.03,0-.05,0c-.09-.03-.15-.13-.12-.22,.1-.33,.17-.66,.21-1,.01-.1,.1-.17,.2-.15,.1,.01,.17,.1,.15,.2-.04,.36-.12,.72-.22,1.06-.02,.08-.09,.13-.17,.13Zm-15.6-2.07c-.1,0-.18-.08-.18-.18v-1.06c0-.1,.08-.18,.18-.18s.18,.08,.18,.18v1.06c0,.1-.08,.18-.18,.18Zm15.85-.02c-.09,0-.17-.07-.18-.17-.02-.34-.06-.68-.13-1.02-.02-.1,.04-.19,.14-.21,.09-.02,.19,.04,.21,.14,.08,.35,.12,.71,.14,1.07,0,.1-.07,.18-.17,.18,0,0,0,0,0,0Zm-.44-2.05c-.07,0-.14-.04-.16-.11-.13-.32-.28-.63-.46-.92-.05-.08-.02-.19,.06-.24,.08-.05,.19-.02,.24,.06,.19,.31,.35,.64,.48,.97,.04,.09,0,.19-.1,.23-.02,0-.04,.01-.06,.01Zm-15.41-.04c-.1,0-.18-.08-.18-.18v-1.06c0-.1,.08-.18,.18-.18s.18,.08,.18,.18v1.06c0,.1-.08,.18-.18,.18Zm14.32-1.76s-.1-.02-.13-.06c-.19-.22-.4-.44-.62-.63-.05-.04-.07-.11-.05-.18,.02-.07,.07-.11,.14-.13l.14-.03c.1-.02,.19,.04,.21,.14,0,.04,0,.07-.01,.1,.16,.16,.32,.32,.47,.49,.06,.07,.05,.18-.02,.25-.03,.03-.07,.04-.11,.04Zm-14.32-.35c-.1,0-.18-.08-.18-.18v-1.06c0-.1,.08-.18,.18-.18s.18,.08,.18,.18v1.06c0,.1-.08,.18-.18,.18Zm14.85-.6c-.07,0-.14-.05-.17-.12-.03-.09,.02-.19,.11-.22,.32-.11,.64-.24,.95-.4,.09-.04,.19,0,.24,.08,.04,.09,0,.19-.08,.24-.32,.16-.65,.3-.99,.42-.02,0-.04,0-.06,0Zm1.88-.95c-.06,0-.11-.03-.15-.08-.06-.08-.04-.19,.04-.24,.28-.19,.55-.41,.81-.64,.07-.07,.18-.06,.25,.01,.07,.07,.06,.18-.01,.25-.26,.24-.55,.47-.84,.67-.03,.02-.07,.03-.1,.03Zm-16.72-.57c-.1,0-.18-.08-.18-.18v-1.06c0-.1,.08-.18,.18-.18s.18,.08,.18,.18v1.06c0,.1-.08,.18-.18,.18Zm18.28-.85s-.08-.01-.11-.04c-.07-.06-.09-.17-.02-.25,.22-.26,.42-.55,.6-.84,.05-.08,.16-.11,.24-.06,.08,.05,.11,.16,.06,.24-.19,.3-.4,.6-.63,.87-.03,.04-.09,.06-.14,.06Zm-18.28-1.26c-.1,0-.18-.08-.18-.18v-1.06c0-.1,.08-.18,.18-.18s.18,.08,.18,.18v1.06c0,.1-.08,.18-.18,.18Zm19.39-.53s-.05,0-.07-.02c-.09-.04-.13-.14-.09-.23,.14-.31,.26-.64,.35-.97,.03-.09,.12-.15,.22-.12,.09,.03,.15,.12,.12,.22-.1,.34-.22,.69-.37,1.01-.03,.07-.09,.1-.16,.1Zm-19.39-1.58c-.1,0-.18-.08-.18-.18v-1.06c0-.1,.08-.18,.18-.18s.18,.08,.18,.18v1.06c0,.1-.08,.18-.18,.18Zm19.97-.44s-.02,0-.03,0c-.1-.01-.16-.1-.15-.2,.05-.34,.07-.68,.08-1.03,0-.1,.07-.19,.18-.17,.1,0,.18,.08,.17,.18,0,.36-.03,.72-.08,1.07-.01,.09-.09,.15-.17,.15Zm-19.97-1.67c-.1,0-.18-.08-.18-.18v-1.06c0-.1,.08-.18,.18-.18s.18,.08,.18,.18v1.06c0,.1-.08,.18-.18,.18Zm19.99-.43c-.09,0-.16-.06-.17-.15-.04-.34-.11-.68-.2-1.01-.03-.09,.03-.19,.12-.22,.09-.02,.19,.03,.22,.12,.09,.35,.17,.7,.21,1.06,.01,.1-.06,.18-.15,.2,0,0-.02,0-.02,0Zm-19.99-1.68c-.1,0-.18-.08-.18-.18v-1.06c0-.1,.08-.18,.18-.18s.18,.08,.18,.18v1.06c0,.1-.08,.18-.18,.18Zm19.43-.35c-.07,0-.13-.04-.16-.11-.14-.32-.29-.62-.47-.92-.05-.08-.02-.19,.06-.24,.08-.05,.19-.02,.24,.06,.18,.31,.35,.63,.49,.96,.04,.09,0,.19-.09,.23-.02,.01-.05,.01-.07,.01Zm-19.43-1.76c-.1,0-.18-.08-.18-.18v-1.06c0-.1,.08-.18,.18-.18s.18,.08,.18,.18v1.06c0,.1-.08,.18-.18,.18Zm18.35-.04c-.05,0-.1-.02-.14-.07-.21-.27-.45-.52-.7-.76-.07-.07-.07-.18,0-.25,.07-.07,.18-.07,.25,0,.26,.25,.51,.51,.73,.79,.06,.08,.05,.19-.03,.25-.03,.03-.07,.04-.11,.04Zm-1.53-1.44s-.07-.01-.1-.03c-.28-.2-.58-.38-.88-.54-.09-.05-.12-.15-.07-.24,.04-.09,.15-.12,.24-.07,.32,.17,.63,.36,.92,.56,.08,.06,.1,.17,.04,.25-.03,.05-.09,.07-.14,.07Zm-16.82-.63c-.1,0-.18-.08-.18-.18v-1.06c0-.1,.08-.18,.18-.18s.18,.08,.18,.18v1.06c0,.1-.08,.18-.18,.18Zm14.95-.34s-.04,0-.06-.01c-.32-.12-.66-.21-.99-.28-.1-.02-.16-.11-.14-.21,.02-.1,.11-.16,.21-.14,.35,.07,.7,.17,1.04,.29,.09,.03,.14,.13,.11,.23-.03,.07-.09,.12-.17,.12Zm-.73-.88s-.08-.01-.12-.05c-.07-.06-.08-.18-.01-.25,.23-.25,.44-.53,.62-.82,.05-.08,.16-.11,.24-.05,.08,.05,.11,.16,.05,.24-.19,.3-.42,.59-.66,.86-.03,.04-.08,.06-.13,.06Zm-14.22-.88c-.1,0-.18-.08-.18-.18v-1.06c0-.1,.08-.18,.18-.18s.18,.08,.18,.18v1.06c0,.1-.08,.18-.18,.18Zm15.35-.89s-.05,0-.07-.01c-.09-.04-.13-.14-.09-.23,.13-.31,.24-.64,.32-.97,.02-.09,.12-.15,.21-.13,.09,.02,.15,.12,.13,.21-.08,.35-.2,.7-.34,1.03-.03,.07-.09,.11-.16,.11Zm-15.35-1.22c-.1,0-.18-.08-.18-.18v-1.06c0-.1,.08-.18,.18-.18s.18,.08,.18,.18v1.06c0,.1-.08,.18-.18,.18Zm15.84-.82s0,0-.01,0c-.1,0-.17-.09-.16-.19,0-.14,.01-.29,.01-.43,0-.2,0-.4-.03-.59,0-.1,.06-.18,.16-.19,.1,0,.18,.06,.19,.16,.02,.21,.03,.42,.03,.63,0,.15,0,.31-.02,.46,0,.09-.08,.16-.18,.16Zm-15.84-1.29c-.1,0-.18-.08-.18-.18v-1.06c0-.1,.08-.18,.18-.18s.18,.08,.18,.18v1.06c0,.1-.08,.18-.18,.18Zm15.64-.8c-.08,0-.15-.05-.17-.13-.09-.33-.2-.65-.35-.97-.04-.09,0-.19,.09-.23,.09-.04,.19,0,.23,.09,.15,.33,.27,.67,.36,1.02,.02,.09-.03,.19-.12,.22-.02,0-.03,0-.05,0Zm-15.64-1.31c-.1,0-.18-.08-.18-.18v-1.06c0-.1,.08-.18,.18-.18s.18,.08,.18,.18v1.06c0,.1-.08,.18-.18,.18Zm14.77-.6c-.06,0-.11-.03-.15-.08-.19-.28-.41-.55-.64-.8-.07-.07-.06-.18,0-.25,.07-.07,.18-.06,.25,0,.25,.26,.48,.55,.68,.85,.05,.08,.03,.19-.05,.24-.03,.02-.06,.03-.1,.03Zm-14.76-1.51s0,0-.01,0c-.1,0-.17-.09-.16-.19,.03-.37,.1-.73,.21-1.07,.03-.09,.13-.14,.22-.11,.09,.03,.14,.13,.11,.22-.11,.32-.17,.65-.2,.99,0,.09-.08,.16-.18,.16Zm13.32-.02s-.07-.01-.11-.04c-.27-.21-.56-.39-.86-.55-.09-.05-.12-.15-.07-.24,.05-.09,.15-.12,.24-.07,.32,.17,.63,.36,.91,.58,.08,.06,.09,.17,.03,.25-.03,.05-.09,.07-.14,.07Zm-1.86-.98s-.04,0-.05,0c-.32-.11-.66-.19-1-.24-.1-.01-.16-.1-.15-.2,.01-.1,.1-.16,.2-.15,.36,.05,.71,.14,1.05,.25,.09,.03,.14,.13,.11,.22-.02,.07-.09,.12-.17,.12Zm-3.13-.21c-.08,0-.16-.06-.17-.14,0,0-.01-.02-.01-.03-.12-.31-.29-.61-.48-.89-.06-.08-.04-.19,.04-.25,.08-.06,.19-.04,.25,.04,.2,.28,.36,.58,.5,.89,.32-.05,.63-.08,.94-.08,.1-.01,.18,.08,.18,.17,0,.1-.08,.18-.17,.18-.33,0-.66,.04-1.02,.1-.01,0-.02,0-.03,0Zm-7.68-.77s-.06,0-.09-.03c-.08-.05-.11-.16-.05-.24,.2-.31,.43-.59,.69-.85,.07-.07,.18-.06,.25,0,.07,.07,.06,.18,0,.25-.24,.23-.46,.5-.64,.78-.03,.05-.09,.08-.15,.08Zm6.44-.98s-.08-.01-.11-.04c-.26-.22-.54-.41-.84-.56-.09-.04-.12-.15-.08-.24,.04-.09,.15-.12,.24-.08,.33,.16,.64,.37,.91,.6,.07,.06,.08,.17,.02,.25-.03,.04-.08,.06-.13,.06Zm-4.93-.46c-.06,0-.12-.03-.15-.09-.05-.08-.02-.19,.07-.24,.32-.18,.66-.33,1.01-.42,.09-.03,.19,.03,.22,.12,.03,.09-.03,.19-.12,.22-.32,.09-.64,.22-.93,.39-.03,.02-.06,.02-.09,.02Zm3.06-.47s-.02,0-.04,0c-.3-.06-.6-.1-.9-.09-.03,0-.07,0-.1,0-.1,0-.18-.07-.18-.17,0-.1,.07-.18,.17-.18,.05,0,.09,0,.14,0,.32,0,.64,.03,.95,.1,.1,.02,.16,.11,.13,.21-.02,.08-.09,.14-.17,.14Z"/><path class="cls-7" d="M35.38,65.98c-.29,0-.59-.03-.88-.09-.1-.02-.16-.11-.14-.21,.02-.1,.11-.16,.21-.14,.33,.07,.67,.09,1.01,.07,.1-.02,.18,.07,.18,.17,0,.1-.07,.18-.17,.18-.07,0-.14,0-.22,0Zm1.25-.18c-.08,0-.15-.05-.17-.13-.03-.09,.02-.19,.12-.22,.32-.1,.63-.23,.92-.41,.08-.05,.19-.02,.24,.06,.05,.08,.02,.19-.06,.24-.32,.19-.65,.34-1,.44-.02,0-.03,0-.05,0Zm-3.09-.23s-.05,0-.08-.02c-.33-.16-.64-.35-.93-.59-.08-.06-.09-.17-.02-.25,.06-.07,.17-.09,.25-.02,.26,.21,.55,.4,.85,.54,.09,.04,.13,.15,.08,.23-.03,.06-.09,.1-.16,.1Zm4.88-.84s-.09-.02-.12-.05c-.07-.07-.07-.18,0-.25,.24-.24,.45-.51,.62-.79,.05-.08,.16-.11,.24-.06,.08,.05,.11,.16,.06,.24-.19,.31-.42,.6-.68,.86-.03,.03-.08,.05-.12,.05Zm-6.5-.48c-.05,0-.11-.02-.14-.07-.22-.29-.4-.61-.54-.95-.04-.09,0-.19,.09-.23,.09-.04,.19,0,.23,.09,.13,.31,.3,.61,.5,.88,.06,.08,.04,.19-.04,.25-.03,.02-.07,.03-.1,.03Zm-1.71-.97c-.28,0-.55-.02-.83-.05-.1-.01-.16-.1-.15-.2,.01-.1,.1-.16,.2-.15,.26,.03,.52,.03,.79,.05,.08,0,.15,0,.23,0,.1,0,.18,.07,.18,.17,0,.1-.07,.18-.17,.18-.08,0-.17,0-.25,0Zm-1.84-.27s-.03,0-.05,0c-.34-.1-.68-.24-1.01-.4-.09-.04-.12-.15-.08-.24,.04-.09,.15-.12,.24-.08,.31,.15,.63,.28,.95,.38,.09,.03,.15,.13,.12,.22-.02,.08-.09,.13-.17,.13Zm11.13-.07s-.03,0-.05,0c-.09-.03-.14-.13-.12-.22,.1-.32,.16-.66,.18-.99,0-.1,.09-.17,.19-.17,.1,0,.17,.09,.17,.18-.02,.37-.08,.73-.19,1.08-.02,.08-.09,.12-.17,.12Zm-13.01-.86s-.07-.01-.1-.03c-.29-.21-.57-.45-.82-.7-.07-.07-.07-.18,0-.25,.07-.07,.18-.07,.25,0,.24,.24,.5,.47,.78,.67,.08,.06,.1,.17,.04,.25-.03,.05-.09,.07-.14,.07Zm13.2-1.23c-.1,0-.18-.08-.18-.18v-1.06c0-.1,.08-.18,.18-.18s.18,.08,.18,.18v1.06c0,.1-.08,.18-.18,.18Zm-14.68-.26c-.06,0-.11-.03-.14-.07-.21-.29-.39-.61-.55-.93-.04-.09,0-.19,.08-.24,.09-.04,.19,0,.24,.08,.15,.31,.32,.6,.52,.88,.06,.08,.04,.19-.04,.25-.03,.02-.07,.03-.1,.03Zm14.68-1.85c-.1,0-.18-.08-.18-.18v-1.06c0-.1,.08-.18,.18-.18s.18,.08,.18,.18v1.06c0,.1-.08,.18-.18,.18Zm-15.6-.04c-.08,0-.15-.05-.17-.13-.1-.34-.17-.7-.22-1.06-.01-.1,.06-.18,.15-.2,.1-.01,.18,.06,.2,.15,.04,.34,.11,.68,.21,1,.03,.09-.03,.19-.12,.22-.02,0-.03,0-.05,0Zm15.6-2.07c-.1,0-.18-.08-.18-.18v-1.06c0-.1,.08-.18,.18-.18s.18,.08,.18,.18v1.06c0,.1-.08,.18-.18,.18Zm-15.85-.02s0,0,0,0c-.1,0-.17-.09-.17-.18,.02-.36,.06-.72,.14-1.07,.02-.09,.11-.15,.21-.14,.09,.02,.16,.11,.14,.21-.07,.33-.11,.67-.13,1.02,0,.09-.08,.17-.18,.17Zm.44-2.05s-.04,0-.06-.01c-.09-.04-.13-.14-.1-.23,.13-.33,.29-.66,.48-.97,.05-.08,.16-.11,.24-.06,.08,.05,.11,.16,.06,.24-.18,.29-.33,.6-.46,.92-.03,.07-.09,.11-.16,.11Zm15.41-.04c-.1,0-.18-.08-.18-.18v-1.06c0-.1,.08-.18,.18-.18s.18,.08,.18,.18v1.06c0,.1-.08,.18-.18,.18Zm-14.32-1.76s-.08-.01-.11-.04c-.07-.06-.08-.17-.02-.25,.15-.17,.3-.34,.47-.49-.01-.03-.02-.07-.01-.1,.02-.1,.11-.16,.21-.14l.14,.03c.07,.01,.12,.06,.14,.13,.02,.06,0,.13-.05,.18-.22,.19-.43,.41-.62,.63-.03,.04-.08,.06-.13,.06Zm14.32-.35c-.1,0-.18-.08-.18-.18v-1.06c0-.1,.08-.18,.18-.18s.18,.08,.18,.18v1.06c0,.1-.08,.18-.18,.18Zm-14.85-.6s-.04,0-.06,0c-.34-.12-.67-.26-.99-.42-.09-.04-.12-.15-.08-.24,.04-.09,.15-.12,.24-.08,.31,.15,.63,.29,.95,.4,.09,.03,.14,.13,.11,.22-.02,.07-.09,.12-.17,.12Zm-1.88-.95s-.07,0-.1-.03c-.3-.2-.58-.43-.84-.67-.07-.07-.08-.18-.01-.25,.07-.07,.18-.08,.25-.01,.25,.23,.52,.45,.81,.64,.08,.05,.1,.16,.04,.24-.03,.05-.09,.08-.14,.08Zm16.72-.57c-.1,0-.18-.08-.18-.18v-1.06c0-.1,.08-.18,.18-.18s.18,.08,.18,.18v1.06c0,.1-.08,.18-.18,.18Zm-18.28-.85c-.05,0-.1-.02-.14-.06-.23-.28-.44-.57-.63-.87-.05-.08-.03-.19,.06-.24,.08-.05,.19-.03,.24,.06,.18,.29,.38,.57,.6,.84,.06,.07,.05,.19-.02,.25-.03,.03-.07,.04-.11,.04Zm18.28-1.26c-.1,0-.18-.08-.18-.18v-1.06c0-.1,.08-.18,.18-.18s.18,.08,.18,.18v1.06c0,.1-.08,.18-.18,.18Zm-19.39-.53c-.07,0-.13-.04-.16-.1-.15-.33-.27-.67-.37-1.01-.03-.09,.03-.19,.12-.22,.09-.03,.19,.03,.22,.12,.09,.33,.21,.65,.35,.97,.04,.09,0,.19-.09,.23-.02,.01-.05,.02-.07,.02Zm19.39-1.58c-.1,0-.18-.08-.18-.18v-1.06c0-.1,.08-.18,.18-.18s.18,.08,.18,.18v1.06c0,.1-.08,.18-.18,.18Zm-19.97-.44c-.09,0-.16-.06-.17-.15-.05-.35-.08-.71-.08-1.07,0-.1,.08-.18,.17-.18h0c.1,0,.18,.08,.18,.17,0,.34,.03,.69,.08,1.03,.01,.1-.05,.19-.15,.2,0,0-.02,0-.03,0Zm19.97-1.67c-.1,0-.18-.08-.18-.18v-1.06c0-.1,.08-.18,.18-.18s.18,.08,.18,.18v1.06c0,.1-.08,.18-.18,.18Zm-19.99-.43s-.02,0-.02,0c-.1-.01-.16-.1-.15-.2,.05-.36,.12-.71,.21-1.06,.03-.09,.12-.15,.22-.12,.09,.03,.15,.12,.12,.22-.09,.33-.16,.67-.2,1.01-.01,.09-.09,.15-.17,.15Zm19.99-1.68c-.1,0-.18-.08-.18-.18v-1.06c0-.1,.08-.18,.18-.18s.18,.08,.18,.18v1.06c0,.1-.08,.18-.18,.18Zm-19.43-.35s-.05,0-.07-.01c-.09-.04-.13-.14-.09-.23,.14-.33,.31-.65,.49-.96,.05-.08,.16-.11,.24-.06,.08,.05,.11,.16,.06,.24-.18,.29-.33,.6-.47,.92-.03,.07-.09,.11-.16,.11Zm19.43-1.76c-.1,0-.18-.08-.18-.18v-1.06c0-.1,.08-.18,.18-.18s.18,.08,.18,.18v1.06c0,.1-.08,.18-.18,.18Zm-18.35-.04s-.08-.01-.11-.04c-.08-.06-.09-.17-.03-.25,.22-.28,.47-.55,.73-.79,.07-.07,.18-.06,.25,0,.07,.07,.06,.18,0,.25-.25,.24-.49,.49-.7,.76-.03,.04-.09,.07-.14,.07Zm1.53-1.44c-.05,0-.11-.03-.14-.07-.06-.08-.04-.19,.04-.25,.29-.21,.6-.4,.92-.56,.09-.04,.19-.01,.24,.07,.04,.09,.01,.19-.07,.24-.3,.16-.6,.34-.88,.54-.03,.02-.07,.03-.1,.03Zm16.82-.63c-.1,0-.18-.08-.18-.18v-1.06c0-.1,.08-.18,.18-.18s.18,.08,.18,.18v1.06c0,.1-.08,.18-.18,.18Zm-14.95-.34c-.07,0-.14-.04-.17-.12-.03-.09,.01-.19,.11-.23,.34-.12,.69-.22,1.04-.29,.09-.02,.19,.04,.21,.14,.02,.09-.04,.19-.14,.21-.34,.07-.67,.16-.99,.28-.02,0-.04,.01-.06,.01Zm.73-.88s-.1-.02-.13-.06c-.24-.27-.46-.56-.66-.86-.05-.08-.03-.19,.05-.24,.08-.05,.19-.03,.24,.05,.18,.29,.39,.56,.62,.82,.06,.07,.06,.18-.01,.25-.03,.03-.08,.05-.12,.05Zm14.22-.88c-.1,0-.18-.08-.18-.18v-1.06c0-.1,.08-.18,.18-.18s.18,.08,.18,.18v1.06c0,.1-.08,.18-.18,.18Zm-15.35-.89c-.07,0-.13-.04-.16-.11-.14-.33-.26-.68-.34-1.03-.02-.09,.04-.19,.13-.21,.1-.02,.19,.04,.21,.13,.08,.33,.19,.66,.32,.97,.04,.09,0,.19-.09,.23-.02,0-.05,.01-.07,.01Zm15.35-1.22c-.1,0-.18-.08-.18-.18v-1.06c0-.1,.08-.18,.18-.18s.18,.08,.18,.18v1.06c0,.1-.08,.18-.18,.18Zm-15.84-.82c-.09,0-.17-.07-.18-.16-.01-.15-.02-.3-.02-.46,0-.21,0-.42,.03-.63,0-.1,.09-.16,.19-.16,.1,0,.17,.1,.16,.19-.02,.2-.03,.4-.03,.59,0,.15,0,.29,.01,.43,0,.1-.07,.18-.16,.19,0,0,0,0-.01,0Zm15.84-1.29c-.1,0-.18-.08-.18-.18v-1.06c0-.1,.08-.18,.18-.18s.18,.08,.18,.18v1.06c0,.1-.08,.18-.18,.18Zm-15.64-.8s-.03,0-.05,0c-.09-.03-.15-.12-.12-.22,.09-.35,.22-.69,.37-1.02,.04-.09,.14-.13,.23-.09,.09,.04,.13,.14,.09,.23-.14,.31-.26,.64-.35,.97-.02,.08-.09,.13-.17,.13Zm15.64-1.31c-.1,0-.18-.08-.18-.18v-1.06c0-.1,.08-.18,.18-.18s.18,.08,.18,.18v1.06c0,.1-.08,.18-.18,.18Zm-14.77-.6s-.07,0-.1-.03c-.08-.05-.1-.16-.05-.24,.2-.3,.43-.58,.68-.85,.07-.07,.18-.07,.25,0,.07,.07,.07,.18,0,.25-.23,.25-.45,.52-.64,.8-.03,.05-.09,.08-.15,.08Zm14.76-1.51c-.09,0-.17-.07-.18-.16-.02-.34-.09-.67-.2-.99-.03-.09,.02-.19,.11-.22,.09-.03,.19,.02,.22,.11,.11,.35,.19,.71,.21,1.07,0,.1-.07,.18-.16,.19,0,0,0,0-.01,0Zm-13.32-.02c-.05,0-.11-.02-.14-.07-.06-.08-.04-.19,.03-.25,.29-.22,.59-.41,.91-.58,.09-.05,.19-.01,.24,.07,.05,.09,.01,.19-.07,.24-.3,.16-.59,.34-.86,.55-.03,.02-.07,.04-.11,.04Zm1.86-.98c-.07,0-.14-.05-.17-.12-.03-.09,.02-.19,.11-.22,.34-.11,.7-.2,1.05-.25,.1-.02,.19,.05,.2,.15,.01,.1-.05,.19-.15,.2-.34,.05-.67,.13-1,.24-.02,0-.04,0-.05,0Zm3.13-.21s-.02,0-.03,0c-.36-.06-.69-.1-1.02-.1-.1,0-.17-.08-.17-.18,0-.1,.09-.19,.18-.17,.3,0,.61,.03,.94,.08,.13-.31,.3-.61,.5-.89,.06-.08,.17-.1,.25-.04,.08,.06,.1,.17,.04,.25-.2,.27-.36,.57-.48,.89,0,.01,0,.02-.01,.03-.02,.08-.09,.14-.17,.14Zm7.68-.77c-.06,0-.12-.03-.15-.08-.18-.28-.39-.55-.64-.78-.07-.07-.07-.18,0-.25,.07-.07,.18-.07,.25,0,.26,.25,.5,.54,.69,.85,.05,.08,.03,.19-.05,.24-.03,.02-.06,.03-.09,.03Zm-6.44-.98s-.1-.02-.13-.06c-.06-.07-.05-.18,.02-.25,.28-.24,.59-.44,.91-.6,.09-.04,.19,0,.24,.08,.04,.09,0,.19-.08,.24-.3,.15-.58,.34-.84,.56-.03,.03-.07,.04-.11,.04Zm4.93-.46s-.06,0-.09-.02c-.29-.17-.61-.3-.93-.39-.09-.03-.15-.12-.12-.22,.03-.09,.13-.15,.22-.12,.35,.1,.69,.24,1.01,.42,.08,.05,.11,.16,.07,.24-.03,.06-.09,.09-.15,.09Zm-3.06-.47c-.08,0-.15-.06-.17-.14-.02-.1,.04-.19,.13-.21,.32-.07,.65-.1,.98-.1,.04,0,.07,0,.11,0,.1,0,.17,.08,.17,.18,0,.1-.09,.17-.18,.17-.04,0-.08,0-.12,0-.3,0-.59,.03-.88,.09-.01,0-.03,0-.04,0Z"/><path class="cls-9" d="M31.19,63.81c1.43,0,2.59,1.16,2.59,2.59v-.96c0-1.43,1.16-2.59,2.59-2.59s2.59,1.16,2.59,2.59v-1.87c0-1.43,1.16-2.59,2.59-2.59s2.59,1.16,2.59,2.59v-11.86c0-1.43,1.16-2.59,2.59-2.59s2.59,1.16,2.59,2.59l-.12,23.78,2.87-7.13c.9-1.11,2.53-1.28,3.64-.37h0c1.11,.9,1.28,2.53,.37,3.64l-4,9.28s-.66,4.88-6.39,7.1v4.11h-11.9v-4.34c-2.63-1.48-4.53-4.1-5.05-7.18-.09-.26-.14-.54-.14-.83v-13.37c0-1.43,1.16-2.59,2.59-2.59Z"/><g><path class="cls-6" d="M44.13,72.35c-.19,0-.35-.16-.35-.35v-8.43c0-.19,.16-.35,.35-.35s.35,.16,.35,.35v8.43c0,.19-.16,.35-.35,.35Z"/><path class="cls-6" d="M38.96,72.35c-.19,0-.35-.16-.35-.35v-7.57c0-.19,.16-.35,.35-.35s.35,.16,.35,.35v7.57c0,.19-.16,.35-.35,.35Z"/><path class="cls-6" d="M33.78,72.35c-.19,0-.35-.16-.35-.35v-6.23c0-.19,.16-.35,.35-.35s.35,.16,.35,.35v6.23c0,.19-.16,.35-.35,.35Z"/><path class="cls-6" d="M46.04,92.47h-12.6v-4.49c-2.69-1.59-4.52-4.24-5.04-7.3-.1-.3-.15-.61-.15-.92v-13.37c0-1.62,1.32-2.94,2.94-2.94,.96,0,1.81,.46,2.35,1.17,.35-1.23,1.49-2.14,2.83-2.14,.89,0,1.7,.4,2.24,1.03,.02-1.6,1.33-2.9,2.94-2.9,.89,0,1.7,.4,2.24,1.03v-9.95c0-1.62,1.32-2.94,2.94-2.94s2.94,1.32,2.94,2.94l-.11,21.94,2.24-5.52c1.02-1.26,2.88-1.45,4.14-.42,1.24,1.01,1.44,2.84,.46,4.1l-3.97,9.21c-.25,1.25-1.42,5.21-6.38,7.23v4.22Zm-11.9-.7h11.2v-4l.22-.09c4.84-1.87,5.94-5.67,6.16-6.79,0-.05,.02-.09,.04-.13l4.01-9.32,.03-.04c.78-.96,.63-2.37-.32-3.15-.94-.77-2.33-.64-3.11,.28l-3.54,8.79,.13-25.62c0-1.23-1-2.24-2.24-2.24s-2.24,1-2.24,2.24v11.86h-.7c0-1.23-1-2.24-2.24-2.24s-2.24,1-2.24,2.24v1.87h-.7c0-1.23-1-2.24-2.24-2.24s-2.24,1-2.24,2.24v.96h-.7c0-1.23-1-2.24-2.24-2.24s-2.24,1-2.24,2.24v13.37c0,.24,.04,.49,.12,.72v.06c.5,2.93,2.28,5.46,4.88,6.93l.18,.1v4.19Z"/></g><path class="cls-7" d="M28.15,95.6h-6.44c-.19,0-.35-.16-.35-.35v-6.44c0-.19,.16-.35,.35-.35h6.44c.19,0,.35,.16,.35,.35v6.44c0,.19-.16,.35-.35,.35Zm-6.09-.7h5.74v-5.74h-5.74v5.74Z"/><g><path class="cls-5" d="M28.32,104.26h-.7c-.1,0-.18-.08-.18-.18s.08-.18,.18-.18h.35v-.35c0-.1,.08-.18,.18-.18s.18,.08,.18,.18v.7Z"/><path class="cls-5" d="M26.54,104.26h-1.08c-.1,0-.18-.08-.18-.18s.08-.18,.18-.18h1.08c.1,0,.18,.08,.18,.18s-.08,.18-.18,.18Zm-2.16,0h-1.08c-.1,0-.18-.08-.18-.18s.08-.18,.18-.18h1.08c.1,0,.18,.08,.18,.18s-.08,.18-.18,.18Z"/><path class="cls-5" d="M22.23,104.26h-.7v-.7c0-.1,.08-.18,.18-.18s.18,.08,.18,.18v.35h.35c.1,0,.18,.08,.18,.18s-.08,.18-.18,.18Z"/><path class="cls-5" d="M21.7,102.65c-.1,0-.18-.08-.18-.18v-1.08c0-.1,.08-.18,.18-.18s.18,.08,.18,.18v1.08c0,.1-.08,.18-.18,.18Zm0-2.16c-.1,0-.18-.08-.18-.18v-1.08c0-.1,.08-.18,.18-.18s.18,.08,.18,.18v1.08c0,.1-.08,.18-.18,.18Z"/><path class="cls-5" d="M21.7,98.34c-.1,0-.18-.08-.18-.18v-.7h.7c.1,0,.18,.08,.18,.18s-.08,.18-.18,.18h-.35v.35c0,.1-.08,.18-.18,.18Z"/><path class="cls-5" d="M26.54,97.82h-1.08c-.1,0-.18-.08-.18-.18s.08-.18,.18-.18h1.08c.1,0,.18,.08,.18,.18s-.08,.18-.18,.18Zm-2.16,0h-1.08c-.1,0-.18-.08-.18-.18s.08-.18,.18-.18h1.08c.1,0,.18,.08,.18,.18s-.08,.18-.18,.18Z"/><path class="cls-5" d="M28.15,98.34c-.1,0-.18-.08-.18-.18v-.35h-.35c-.1,0-.18-.08-.18-.18s.08-.18,.18-.18h.7v.7c0,.1-.08,.18-.18,.18Z"/><path class="cls-5" d="M28.15,102.65c-.1,0-.18-.08-.18-.18v-1.08c0-.1,.08-.18,.18-.18s.18,.08,.18,.18v1.08c0,.1-.08,.18-.18,.18Zm0-2.16c-.1,0-.18-.08-.18-.18v-1.08c0-.1,.08-.18,.18-.18s.18,.08,.18,.18v1.08c0,.1-.08,.18-.18,.18Z"/></g><path class="cls-2" d="M36.2,95.43h-6.8v-6.8h6.8v6.8Zm-6.44-.35h6.09v-6.09h-6.09v6.09Z"/><rect class="cls-2" x="29.58" y="97.64" width="6.44" height="6.44"/><polygon class="cls-2" points="36.03 104.08 29.58 104.08 29.58 97.64 36.03 104.08"/><path class="cls-7" d="M93.14,94.02h-7.23c-.19,0-.35-.16-.35-.35v-7.23c0-.19,.16-.35,.35-.35h7.23c.19,0,.35,.16,.35,.35v7.23c0,.19-.16,.35-.35,.35Zm-6.88-.7h6.53v-6.53h-6.53v6.53Z"/><g><path class="cls-5" d="M93.31,103.75h-.7c-.1,0-.18-.08-.18-.18s.08-.18,.18-.18h.35v-.35c0-.1,.08-.18,.18-.18s.18,.08,.18,.18v.7Z"/><path class="cls-5" d="M91.37,103.75h-1.24c-.1,0-.18-.08-.18-.18s.08-.18,.18-.18h1.24c.1,0,.18,.08,.18,.18s-.08,.18-.18,.18Zm-2.47,0h-1.24c-.1,0-.18-.08-.18-.18s.08-.18,.18-.18h1.24c.1,0,.18,.08,.18,.18s-.08,.18-.18,.18Z"/><path class="cls-5" d="M86.43,103.75h-.7v-.7c0-.1,.08-.18,.18-.18s.18,.08,.18,.18v.35h.35c.1,0,.18,.08,.18,.18s-.08,.18-.18,.18Z"/><path class="cls-5" d="M85.9,101.99c-.1,0-.18-.08-.18-.18v-1.24c0-.1,.08-.18,.18-.18s.18,.08,.18,.18v1.24c0,.1-.08,.18-.18,.18Zm0-2.47c-.1,0-.18-.08-.18-.18v-1.24c0-.1,.08-.18,.18-.18s.18,.08,.18,.18v1.24c0,.1-.08,.18-.18,.18Z"/><path class="cls-5" d="M85.9,97.05c-.1,0-.18-.08-.18-.18v-.7h.7c.1,0,.18,.08,.18,.18s-.08,.18-.18,.18h-.35v.35c0,.1-.08,.18-.18,.18Z"/><path class="cls-5" d="M91.37,96.52h-1.24c-.1,0-.18-.08-.18-.18s.08-.18,.18-.18h1.24c.1,0,.18,.08,.18,.18s-.08,.18-.18,.18Zm-2.47,0h-1.24c-.1,0-.18-.08-.18-.18s.08-.18,.18-.18h1.24c.1,0,.18,.08,.18,.18s-.08,.18-.18,.18Z"/><path class="cls-5" d="M93.14,97.05c-.1,0-.18-.08-.18-.18v-.35h-.35c-.1,0-.18-.08-.18-.18s.08-.18,.18-.18h.7v.7c0,.1-.08,.18-.18,.18Z"/><path class="cls-5" d="M93.14,101.99c-.1,0-.18-.08-.18-.18v-1.24c0-.1,.08-.18,.18-.18s.18,.08,.18,.18v1.24c0,.1-.08,.18-.18,.18Zm0-2.47c-.1,0-.18-.08-.18-.18v-1.24c0-.1,.08-.18,.18-.18s.18,.08,.18,.18v1.24c0,.1-.08,.18-.18,.18Z"/></g><path class="cls-2" d="M102.15,93.84h-7.58v-7.58h7.58v7.58Zm-7.23-.35h6.88v-6.88h-6.88v6.88Z"/><rect class="cls-2" x="94.75" y="96.34" width="7.23" height="7.23"/><polygon class="cls-2" points="101.98 103.58 94.75 103.58 94.75 96.34 101.98 103.58"/><path class="cls-1" d="M34.72,44.05c0-.36-.04-.71-.11-1.05l1.1-.24c-.09-.42-.22-.83-.4-1.22l-1.03,.46c-.14-.32-.32-.62-.53-.9l.91-.67c-.25-.34-.54-.66-.86-.95l-.75,.84c-.26-.23-.54-.44-.85-.61l.56-.98c-.37-.21-.76-.39-1.17-.52l-.35,1.07c-.33-.11-.67-.18-1.02-.21l.11-1.12c-.42-.04-.86-.04-1.28,0l.12,1.12c-.35,.04-.69,.11-1.02,.22l-.35-1.07c-.41,.13-.8,.31-1.17,.52l.57,.98c-.3,.18-.58,.38-.84,.62l-.76-.84c-.32,.29-.6,.61-.85,.95l.92,.66c-.2,.28-.38,.58-.52,.9l-1.03-.46c-.17,.39-.31,.8-.39,1.22l1.1,.23c-.07,.33-.11,.68-.11,1.03,0,0,0,0,0,.01h-1.13c0,.43,.05,.86,.13,1.27l1.1-.24c.07,.34,.18,.68,.33,.99l-1.03,.46c.17,.39,.39,.76,.64,1.11l.91-.67c.21,.28,.44,.54,.7,.77l-.76,.84c.32,.29,.67,.54,1.03,.75l.56-.98c.3,.17,.62,.32,.95,.42l-.35,1.07c.41,.13,.83,.22,1.25,.26l.12-1.12c.17,.02,.34,.03,.52,.03s.35,0,.53-.03l.12,1.12c.43-.04,.85-.13,1.25-.27l-.35-1.07c.33-.11,.65-.25,.95-.43l.57,.98c.37-.21,.72-.47,1.03-.75l-.76-.84c.26-.23,.49-.49,.7-.78l.91,.67c.25-.35,.47-.72,.64-1.11l-1.03-.46c.14-.31,.25-.65,.32-.99l1.1,.23c.09-.42,.13-.84,.13-1.27v-.02h-1.13Zm-8.91,.02c0-2.16,1.76-3.92,3.92-3.92s3.92,1.76,3.92,3.92-1.76,3.92-3.92,3.92-3.92-1.76-3.92-3.92Z"/><path class="cls-1" d="M57.23,43.39c0-.36-.04-.71-.11-1.05l1.1-.24c-.09-.42-.22-.83-.4-1.22l-1.03,.46c-.14-.32-.32-.62-.53-.9l.91-.67c-.25-.34-.54-.66-.86-.95l-.75,.84c-.26-.23-.54-.44-.85-.61l.56-.98c-.37-.21-.76-.39-1.17-.52l-.35,1.08c-.33-.11-.67-.18-1.02-.21l.11-1.12c-.42-.04-.86-.04-1.28,0l.12,1.12c-.35,.04-.69,.11-1.02,.22l-.35-1.07c-.41,.13-.8,.31-1.17,.52l.57,.98c-.3,.18-.58,.38-.84,.62l-.76-.84c-.32,.29-.6,.61-.85,.95l.92,.66c-.2,.28-.38,.58-.52,.9l-1.03-.46c-.17,.39-.31,.8-.39,1.22l1.1,.23c-.07,.33-.11,.68-.11,1.03,0,0,0,0,0,.01h-1.13c0,.43,.05,.86,.13,1.27l1.1-.24c.07,.34,.18,.68,.33,.99l-1.03,.46c.17,.39,.39,.76,.64,1.11l.91-.67c.21,.28,.44,.54,.7,.77l-.76,.84c.32,.29,.67,.54,1.03,.75l.56-.98c.3,.17,.62,.32,.95,.42l-.35,1.07c.41,.13,.83,.22,1.25,.26l.12-1.12c.17,.02,.34,.03,.52,.03s.35,0,.53-.03l.12,1.12c.43-.04,.85-.13,1.25-.27l-.35-1.07c.33-.11,.65-.25,.95-.43l.57,.98c.37-.21,.72-.47,1.03-.75l-.76-.84c.26-.23,.49-.49,.7-.78l.91,.66c.25-.35,.47-.72,.64-1.11l-1.03-.46c.14-.31,.25-.65,.32-.99l1.1,.23c.09-.42,.13-.84,.13-1.27v-.02h-1.13Zm-8.91,.02c0-2.16,1.76-3.92,3.92-3.92s3.92,1.76,3.92,3.92-1.76,3.92-3.92,3.92-3.92-1.76-3.92-3.92Z"/><path class="cls-7" d="M87.82,42.62h-3.1l-1.55-2.68,1.55-2.68h3.1l1.55,2.68-1.55,2.68Zm-2.49-1.06h1.88l.94-1.63-.94-1.62h-1.88l-.94,1.62,.94,1.63Z"/><g><path class="cls-11" d="M51.86,44.22h-.64c-.1,0-.18-.08-.18-.18s.08-.18,.18-.18h.64c.1,0,.18,.08,.18,.18s-.08,.18-.18,.18Zm-1.7,0h-1.06c-.1,0-.18-.08-.18-.18s.08-.18,.18-.18h1.06c.1,0,.18,.08,.18,.18s-.08,.18-.18,.18Zm-2.11,0h-1.06c-.1,0-.18-.08-.18-.18s.08-.18,.18-.18h1.06c.1,0,.18,.08,.18,.18s-.08,.18-.18,.18Zm-2.11,0h-1.06c-.1,0-.18-.08-.18-.18s.08-.18,.18-.18h1.06c.1,0,.18,.08,.18,.18s-.08,.18-.18,.18Zm-2.11,0h-1.06c-.1,0-.18-.08-.18-.18s.08-.18,.18-.18h1.06c.1,0,.18,.08,.18,.18s-.08,.18-.18,.18Zm-2.11,0h-1.06c-.1,0-.18-.08-.18-.18s.08-.18,.18-.18h1.06c.1,0,.18,.08,.18,.18s-.08,.18-.18,.18Zm-2.11,0h-1.06c-.1,0-.18-.08-.18-.18s.08-.18,.18-.18h1.06c.1,0,.18,.08,.18,.18s-.08,.18-.18,.18Zm-2.11,0h-1.06c-.1,0-.18-.08-.18-.18s.08-.18,.18-.18h1.06c.1,0,.18,.08,.18,.18s-.08,.18-.18,.18Zm-2.11,0h-1.06c-.1,0-.18-.08-.18-.18s.08-.18,.18-.18h1.06c.1,0,.18,.08,.18,.18s-.08,.18-.18,.18Zm-2.11,0h-1.06c-.1,0-.18-.08-.18-.18s.08-.18,.18-.18h1.06c.1,0,.18,.08,.18,.18s-.08,.18-.18,.18Zm-2.11,0h-1.06c-.1,0-.18-.08-.18-.18s.08-.18,.18-.18h1.06c.1,0,.18,.08,.18,.18s-.08,.18-.18,.18Z"/><polygon class="cls-11" points="31.28 45.48 31.52 45.22 30.25 44.04 31.52 42.86 31.28 42.6 29.73 44.04 31.28 45.48"/><polygon class="cls-11" points="50.7 45.48 50.46 45.22 51.73 44.04 50.46 42.86 50.7 42.6 52.24 44.04 50.7 45.48"/></g><g><path class="cls-5" d="M89.04,76.9c-.1,0-.18-.08-.18-.18v-.53c0-.1,.08-.18,.18-.18s.18,.08,.18,.18v.53c0,.1-.08,.18-.18,.18Z"/><path class="cls-5" d="M89.04,75.34c-.1,0-.18-.08-.18-.18v-1.03c0-.1,.08-.18,.18-.18s.18,.08,.18,.18v1.03c0,.1-.08,.18-.18,.18Zm0-2.06c-.1,0-.18-.08-.18-.18v-1.03c0-.1,.08-.18,.18-.18s.18,.08,.18,.18v1.03c0,.1-.08,.18-.18,.18Zm0-2.06c-.1,0-.18-.08-.18-.18v-1.03c0-.1,.08-.18,.18-.18s.18,.08,.18,.18v1.03c0,.1-.08,.18-.18,.18Zm0-2.06c-.1,0-.18-.08-.18-.18v-1.03c0-.1,.08-.18,.18-.18s.18,.08,.18,.18v1.03c0,.1-.08,.18-.18,.18Zm0-2.06c-.1,0-.18-.08-.18-.18v-1.03c0-.1,.08-.18,.18-.18s.18,.08,.18,.18v1.03c0,.1-.08,.18-.18,.18Zm0-2.06c-.1,0-.18-.08-.18-.18v-1.03c0-.1,.08-.18,.18-.18s.18,.08,.18,.18v1.03c0,.1-.08,.18-.18,.18Zm0-2.06c-.1,0-.18-.08-.18-.18v-1.03c0-.1,.08-.18,.18-.18s.18,.08,.18,.18v1.03c0,.1-.08,.18-.18,.18Z"/><path class="cls-5" d="M89.04,60.95c-.1,0-.18-.08-.18-.18v-.53c0-.1,.08-.18,.18-.18s.18,.08,.18,.18v.53c0,.1-.08,.18-.18,.18Z"/><polygon class="cls-5" points="90.48 75.56 90.22 75.32 89.04 76.59 87.86 75.32 87.6 75.56 89.04 77.1 90.48 75.56"/><polygon class="cls-5" points="90.48 61.41 90.22 61.65 89.04 60.38 87.86 61.65 87.6 61.41 89.04 59.87 90.48 61.41"/></g><g><path class="cls-7" d="M98.36,92.9c-.1,0-.18-.08-.18-.18v-1.06c0-.1,.08-.18,.18-.18s.18,.08,.18,.18v1.06c0,.1-.08,.18-.18,.18Zm0-2.11c-.1,0-.18-.08-.18-.18v-1.06c0-.1,.08-.18,.18-.18s.18,.08,.18,.18v1.06c0,.1-.08,.18-.18,.18Zm0-2.11c-.1,0-.18-.08-.18-.18v-1.06c0-.1,.08-.18,.18-.18s.18,.08,.18,.18v1.06c0,.1-.08,.18-.18,.18Z"/><polygon class="cls-7" points="99.8 91.56 99.54 91.32 98.36 92.59 97.18 91.32 96.92 91.56 98.36 93.11 99.8 91.56"/><polygon class="cls-7" points="99.8 88.38 99.54 88.62 98.36 87.35 97.18 88.62 96.92 88.38 98.36 86.84 99.8 88.38"/></g><g><path class="cls-7" d="M98.27,102.89c-.1,0-.18-.08-.18-.18v-1.06c0-.1,.08-.18,.18-.18s.18,.08,.18,.18v1.06c0,.1-.08,.18-.18,.18Zm0-2.11c-.1,0-.18-.08-.18-.18v-1.06c0-.1,.08-.18,.18-.18s.18,.08,.18,.18v1.06c0,.1-.08,.18-.18,.18Zm0-2.11c-.1,0-.18-.08-.18-.18v-1.06c0-.1,.08-.18,.18-.18s.18,.08,.18,.18v1.06c0,.1-.08,.18-.18,.18Z"/><polygon class="cls-7" points="99.71 101.55 99.45 101.31 98.27 102.58 97.09 101.31 96.83 101.55 98.27 103.1 99.71 101.55"/><polygon class="cls-7" points="99.71 98.37 99.45 98.61 98.27 97.34 97.09 98.61 96.83 98.37 98.27 96.82 99.71 98.37"/></g><g><path class="cls-5" d="M52.58,92.72c-.1,0-.18-.08-.18-.18v-.53c0-.1,.08-.18,.18-.18s.18,.08,.18,.18v.53c0,.1-.08,.18-.18,.18Z"/><path class="cls-5" d="M52.58,91.3c-.1,0-.18-.08-.18-.18v-.89c0-.1,.08-.18,.18-.18s.18,.08,.18,.18v.89c0,.1-.08,.18-.18,.18Zm0-1.78c-.1,0-.18-.08-.18-.18v-.89c0-.1,.08-.18,.18-.18s.18,.08,.18,.18v.89c0,.1-.08,.18-.18,.18Z"/><path class="cls-5" d="M52.58,87.74c-.1,0-.18-.08-.18-.18v-.53c0-.1,.08-.18,.18-.18s.18,.08,.18,.18v.53c0,.1-.08,.18-.18,.18Z"/><polygon class="cls-5" points="54.02 91.38 53.76 91.14 52.58 92.41 51.4 91.14 51.14 91.38 52.58 92.93 54.02 91.38"/><polygon class="cls-5" points="54.02 88.2 53.76 88.44 52.58 87.17 51.4 88.44 51.14 88.2 52.58 86.65 54.02 88.2"/></g><g><path class="cls-5" d="M60.98,73.84c-.1,0-.18-.08-.18-.18v-.53c0-.1,.08-.18,.18-.18s.18,.08,.18,.18v.53c0,.1-.08,.18-.18,.18Z"/><path class="cls-5" d="M60.98,71.98c-.1,0-.18-.08-.18-.18v-1.33c0-.1,.08-.18,.18-.18s.18,.08,.18,.18v1.33c0,.1-.08,.18-.18,.18Z"/><path class="cls-5" d="M60.98,69.32c-.1,0-.18-.08-.18-.18v-.53c0-.1,.08-.18,.18-.18s.18,.08,.18,.18v.53c0,.1-.08,.18-.18,.18Z"/><polygon class="cls-5" points="62.42 72.5 62.16 72.26 60.98 73.53 59.8 72.26 59.54 72.5 60.98 74.05 62.42 72.5"/><polygon class="cls-5" points="62.42 69.79 62.16 70.03 60.98 68.76 59.8 70.03 59.54 69.79 60.98 68.24 62.42 69.79"/></g><path class="cls-7" d="M34.01,94.03h-2.42l-1.21-2.09,1.21-2.09h2.42l1.21,2.09-1.21,2.09Zm-1.81-1.06h1.2l.6-1.04-.6-1.04h-1.2l-.6,1.04,.6,1.04Z"/><path class="cls-4" d="M82.1,39.95c0-2.3,1.87-4.17,4.17-4.17v-2.34c-.23,0-.47,.01-.7,.04l.13,1.19c-.37,.04-.74,.12-1.08,.23l-.37-1.14c-.43,.14-.85,.33-1.24,.56l.61,1.04c-.32,.19-.62,.41-.9,.65l-.81-.89c-.34,.3-.64,.65-.91,1.01l.97,.71c-.22,.3-.4,.62-.55,.96l-1.1-.49c-.18,.42-.32,.85-.42,1.3l1.18,.25c-.07,.35-.11,.72-.11,1.09,0,0,0,0,0,.01h-1.2c0,.46,.05,.91,.14,1.35l1.17-.25c.08,.37,.2,.72,.35,1.05l-1.1,.49c.19,.41,.42,.81,.68,1.18l.97-.71c.22,.3,.47,.58,.74,.82l-.8,.89c.34,.3,.71,.57,1.1,.8l.6-1.04c.32,.18,.66,.34,1.01,.45l-.37,1.14c.43,.14,.88,.23,1.33,.28l.12-1.19c.18,.02,.36,.03,.55,.03v-1.14c-2.3,0-4.17-1.87-4.17-4.17Z"/><path class="cls-3" d="M91.59,39.94c0-.38-.04-.76-.12-1.11l1.17-.25c-.1-.44-.24-.88-.43-1.29l-1.1,.49c-.15-.34-.34-.66-.56-.96l.97-.71c-.27-.37-.58-.7-.91-1.01l-.8,.9c-.28-.25-.58-.46-.9-.65l.6-1.04c-.39-.23-.81-.41-1.25-.55l-.37,1.14c-.35-.11-.71-.19-1.09-.23l.12-1.19c-.22-.02-.44-.03-.66-.03v2.34c2.3,0,4.17,1.87,4.17,4.17s-1.87,4.17-4.17,4.17v1.14c.19,0,.38-.01,.56-.03l.13,1.19c.45-.05,.9-.14,1.33-.28l-.37-1.14c.36-.12,.69-.27,1.01-.45l.6,1.04c.39-.23,.76-.5,1.1-.8l-.81-.89c.28-.25,.52-.52,.74-.83l.97,.71c.27-.37,.5-.76,.68-1.18l-1.1-.49c.15-.34,.27-.69,.34-1.06l1.18,.25c.09-.44,.14-.9,.14-1.35v-.02h-1.2Z"/><path class="cls-4" d="M57,83.2c0-2.61,2.13-4.74,4.74-4.74v-2.66c-.27,0-.53,.01-.79,.04l.15,1.36c-.43,.05-.84,.14-1.23,.27l-.43-1.3c-.49,.16-.97,.37-1.41,.63l.69,1.18c-.37,.21-.71,.46-1.02,.74l-.92-1.01c-.38,.35-.73,.73-1.03,1.15l1.11,.8c-.25,.34-.46,.71-.63,1.09l-1.25-.55c-.21,.47-.37,.97-.48,1.47l1.34,.28c-.08,.4-.13,.82-.13,1.24,0,0,0,0,0,.01h-1.36c0,.52,.06,1.04,.16,1.54l1.34-.29c.09,.42,.22,.82,.39,1.2l-1.25,.56c.21,.47,.47,.92,.78,1.34l1.1-.81c.25,.34,.53,.65,.85,.94l-.91,1.02c.38,.35,.81,.65,1.25,.91l.68-1.19c.36,.21,.75,.38,1.15,.51l-.42,1.3c.49,.16,1,.27,1.52,.32l.14-1.36c.21,.02,.41,.03,.63,.03v-1.3c-2.61,0-4.74-2.13-4.74-4.74Z"/><path class="cls-3" d="M67.79,83.19c0-.43-.05-.86-.14-1.27l1.34-.29c-.11-.51-.27-1-.48-1.47l-1.25,.56c-.17-.39-.39-.75-.64-1.09l1.1-.81c-.3-.42-.65-.8-1.04-1.14l-.91,1.02c-.31-.28-.66-.53-1.02-.74l.68-1.19c-.45-.26-.93-.47-1.42-.63l-.42,1.3c-.4-.13-.81-.22-1.24-.26l.14-1.36c-.25-.02-.5-.04-.75-.04v2.66c2.61,0,4.74,2.13,4.74,4.74s-2.13,4.74-4.74,4.74v1.3c.22,0,.43-.01,.64-.03l.14,1.36c.51-.05,1.02-.16,1.51-.32l-.42-1.3c.4-.13,.79-.31,1.15-.52l.69,1.18c.45-.26,.87-.56,1.25-.91l-.92-1.02c.31-.28,.6-.6,.84-.94l1.11,.8c.3-.42,.56-.87,.77-1.34l-1.25-.56c.17-.38,.3-.78,.39-1.2l1.34,.28c.11-.5,.16-1.02,.16-1.54v-.02h-1.36Z"/><g><rect class="cls-2" x="75.38" y="86.53" width="13.54" height=".35"/><g><rect class="cls-2" x="75.38" y="88.27" width=".53" height=".35"/><path class="cls-2" d="M87.25,88.62h-1.13v-.35h1.13v.35Zm-2.27,0h-1.13v-.35h1.13v.35Zm-2.27,0h-1.13v-.35h1.13v.35Zm-2.27,0h-1.13v-.35h1.13v.35Zm-2.27,0h-1.13v-.35h1.13v.35Z"/><rect class="cls-2" x="88.39" y="88.27" width=".53" height=".35"/></g><rect class="cls-2" x="75.38" y="90.01" width="13.54" height=".35"/><rect class="cls-2" x="75.38" y="91.76" width="13.54" height=".35"/><g><rect class="cls-2" x="75.38" y="93.5" width=".53" height=".35"/><path class="cls-2" d="M82.24,93.85h-1.06v-.35h1.06v.35Zm-2.11,0h-1.06v-.35h1.06v.35Zm-2.11,0h-1.06v-.35h1.06v.35Z"/><rect class="cls-2" x="83.3" y="93.5" width=".53" height=".35"/></g><rect class="cls-2" x="75.38" y="95.38" width="13.54" height=".35"/><g><rect class="cls-2" x="75.38" y="98.86" width=".53" height=".35"/><path class="cls-2" d="M87.25,99.21h-1.13v-.35h1.13v.35Zm-2.27,0h-1.13v-.35h1.13v.35Zm-2.27,0h-1.13v-.35h1.13v.35Zm-2.27,0h-1.13v-.35h1.13v.35Zm-2.27,0h-1.13v-.35h1.13v.35Z"/><rect class="cls-2" x="88.39" y="98.86" width=".53" height=".35"/></g><rect class="cls-2" x="75.38" y="100.61" width="13.54" height=".35"/><rect class="cls-2" x="75.38" y="102.35" width="8.44" height=".35"/><rect class="cls-2" x="75.43" y="97.04" width="13.54" height=".35"/></g></g></svg>