<?xml version="1.0" encoding="UTF-8"?><svg id="Layer_1" xmlns="http://www.w3.org/2000/svg" viewBox="0 0 123.16 123.16"><defs><style>.cls-1{fill:#fff;}.cls-2{fill:#e2e0de;}.cls-3{fill:#4ba5c6;}.cls-4{fill:#ff5542;}.cls-5{fill:#ff6453;}.cls-6{fill:#7fd8a7;}.cls-7{fill:#fbd350;}.cls-8{fill:#3398bd;}.cls-9{fill:none;}.cls-10{fill:#6acfa0;}.cls-11{fill:#ffda70;}.cls-12{fill:#eeeded;}.cls-13{fill:#48729c;}</style></defs><circle class="cls-1" cx="62.16" cy="61.31" r="58.24"/><rect class="cls-9" width="123.16" height="123.16"/><g><path class="cls-13" d="M26.34,34.76c-.09,0-.18-.03-.25-.1-.15-.14-.16-.37-.02-.52l3.6-3.92c.07-.08,.17-.12,.27-.12h17.07c.2,0,.37,.17,.37,.37s-.17,.37-.37,.37H30.1l-3.49,3.8c-.07,.08-.17,.12-.27,.12Z"/><path class="cls-4" d="M50.76,30.48c0,1.21-.99,2.18-2.2,2.18-1.21,0-2.18-.99-2.18-2.2,0-1.21,.99-2.18,2.2-2.18s2.18,.99,2.18,2.2Z"/><path class="cls-5" d="M48.56,32.66c-1.21,0-2.18-.99-2.18-2.2,0-1.21,.99-2.18,2.2-2.18l-.02,4.38Z"/><circle class="cls-1" cx="47.71" cy="29.86" r=".61"/><rect class="cls-12" x="20.15" y="33.23" width="5.54" height="67.35"/><polygon class="cls-2" points="30.92 33.23 25.69 33.23 25.69 100.58 30.92 100.58 30.92 37.6 33.23 33.23 30.92 33.23"/><path class="cls-7" d="M49.77,78.5v-15.63h-2.96v38.38c6.65,0,12.04-5.17,12.04-11.55,0-5.4-3.86-9.93-9.08-11.2Z"/><path class="cls-11" d="M43.84,62.87v15.63c-5.22,1.27-9.08,5.8-9.08,11.2,0,6.38,5.39,11.55,12.04,11.55V62.87h-2.96Z"/><path class="cls-6" d="M36.21,89.66c0,5.61,4.74,10.16,10.6,10.16v-13.73c-5.3,0-10.6,1.19-10.6,3.56Z"/><path class="cls-10" d="M46.81,86.1v13.73c5.85,0,10.6-4.55,10.6-10.16,0-2.38-5.3-3.56-10.6-3.56Z"/><path class="cls-13" d="M79.15,56.97c-.12,0-.24,0-.36-.02-3.81-.31-10.15-5.48-15.79-12.86-7.26-9.5-10.7-19.04-7.85-21.73,.58-.55,1.37-.78,2.35-.7,3.81,.31,10.15,5.48,15.79,12.86,7.26,9.5,10.7,19.04,7.85,21.73-.51,.48-1.17,.72-1.98,.72ZM57.15,22.4c-.62,0-1.12,.17-1.48,.52-2.5,2.35,1.13,11.84,7.93,20.74,5.43,7.11,11.71,12.28,15.26,12.57,.76,.06,1.36-.11,1.78-.5,2.5-2.35-1.13-11.84-7.93-20.74-5.43-7.11-11.71-12.28-15.26-12.57-.1,0-.2-.01-.3-.01Z"/><path class="cls-13" d="M57.14,56.97c-.81,0-1.48-.24-1.98-.72-2.86-2.69,.59-12.23,7.85-21.73h0c5.64-7.38,11.98-12.55,15.79-12.86,.98-.08,1.77,.16,2.35,.7,2.86,2.69-.59,12.23-7.85,21.73-5.64,7.38-11.98,12.55-15.79,12.86-.12,.01-.24,.02-.36,.02Zm6.45-21.99c-6.79,8.89-10.42,18.39-7.93,20.74,.42,.4,1.02,.57,1.78,.5,3.55-.29,9.83-5.46,15.26-12.57,6.79-8.89,10.42-18.39,7.93-20.74-.42-.4-1.02-.57-1.78-.5-3.55,.29-9.83,5.46-15.26,12.57h0Z"/><path class="cls-13" d="M68.22,44.34c-9.46,0-19.25-2.02-19.25-5.4s9.79-5.4,19.25-5.4,19.25,2.02,19.25,5.4-9.79,5.4-19.25,5.4Zm0-10.05c-11.07,0-18.51,2.41-18.51,4.65s7.44,4.65,18.51,4.65,18.51-2.41,18.51-4.65-7.44-4.65-18.51-4.65Z"/><rect class="cls-8" x="21.41" y="51.56" width="8.56" height="47.74"/><rect class="cls-3" x="21.41" y="51.56" width="4.28" height="47.74"/><rect class="cls-12" x="19.1" y="22.94" width="5.08" height="4.87"/><rect class="cls-7" x="26.37" y="22.95" width="5.08" height="4.87"/><rect class="cls-7" x="33.6" y="36.88" width="7.09" height="6.8"/><rect class="cls-12" x="33.64" y="22.96" width="5.08" height="4.87"/><rect class="cls-7" x="40.92" y="22.96" width="5.08" height="4.87"/><polygon class="cls-11" points="31.45 27.81 26.37 27.81 26.37 22.94 31.45 27.81"/><polygon class="cls-11" points="40.69 43.67 33.6 43.67 33.6 36.86 40.69 43.67"/><polygon class="cls-11" points="45.99 27.82 40.92 27.82 40.92 22.95 45.99 27.82"/><polygon class="cls-2" points="24.18 27.81 19.1 27.81 19.1 22.94 24.18 27.81"/><polygon class="cls-2" points="38.72 27.84 33.64 27.84 33.64 22.96 38.72 27.84"/><rect class="cls-12" x="77.59" y="81.13" width="5.16" height="4.95"/><polygon class="cls-2" points="82.75 86.08 77.59 86.08 77.59 81.13 82.75 86.08"/><rect class="cls-12" x="59.55" y="57.53" width="5" height="4.95"/><polygon class="cls-2" points="64.55 62.48 59.55 62.48 59.55 57.53 64.55 62.48"/><rect class="cls-8" x="59.55" y="63.23" width="5" height="4.95"/><polygon class="cls-3" points="64.55 68.19 59.55 68.19 59.55 63.24 64.55 68.19"/><rect class="cls-8" x="83.34" y="55.59" width="3.27" height="3.24"/><polygon class="cls-3" points="86.61 58.83 83.34 58.83 83.34 55.59 86.61 58.83"/><rect class="cls-12" x="83.34" y="59.32" width="3.27" height="3.24"/><polygon class="cls-2" points="86.61 62.56 83.34 62.56 83.34 59.33 86.61 62.56"/><path class="cls-1" d="M41.44,90.01c0,.58-.49,1.04-1.09,1.04s-1.09-.47-1.09-1.04,.49-1.04,1.09-1.04,1.09,.47,1.09,1.04Z"/><path class="cls-1" d="M42.53,94.28c0,.58-.49,1.04-1.09,1.04s-1.09-.47-1.09-1.04,.49-1.04,1.09-1.04,1.09,.47,1.09,1.04Z"/><ellipse class="cls-1" cx="45.72" cy="89.35" rx="1.09" ry="1.04"/><path class="cls-1" d="M49.63,93.24c0,.58-.49,1.04-1.09,1.04s-1.09-.47-1.09-1.04,.49-1.04,1.09-1.04,1.09,.47,1.09,1.04Z"/><path class="cls-1" d="M53.58,94.28c0,.58-.49,1.04-1.09,1.04s-1.09-.47-1.09-1.04,.49-1.04,1.09-1.04,1.09,.47,1.09,1.04Z"/><ellipse class="cls-1" cx="48.8" cy="97.01" rx="1.09" ry="1.04"/><path class="cls-1" d="M55.87,90.39c0,.58-.49,1.04-1.09,1.04s-1.09-.47-1.09-1.04,.49-1.04,1.09-1.04,1.09,.47,1.09,1.04Z"/><path class="cls-1" d="M45.36,92.39c0,.47-.4,.85-.89,.85s-.89-.38-.89-.85,.4-.85,.89-.85,.89,.38,.89,.85Z"/><path class="cls-1" d="M51.02,90.01c0,.47-.4,.85-.89,.85s-.89-.38-.89-.85,.4-.85,.89-.85,.89,.38,.89,.85Z"/><path class="cls-1" d="M46.25,97.01c0,.47-.4,.85-.89,.85s-.89-.38-.89-.85,.4-.85,.89-.85,.89,.38,.89,.85Z"/><path class="cls-7" d="M71.33,70.2v-10.43h-1.98v25.62c4.44,0,8.04-3.45,8.04-7.71,0-3.6-2.58-6.63-6.06-7.47Z"/><path class="cls-11" d="M67.37,59.77v10.43c-3.48,.85-6.06,3.87-6.06,7.47,0,4.26,3.6,7.71,8.04,7.71v-25.62h-1.98Z"/><path class="cls-3" d="M62.27,77.65c0,3.75,3.17,6.78,7.07,6.78v-9.16c-3.54,0-7.07,.79-7.07,2.38Z"/><path class="cls-8" d="M69.35,75.27v9.16c3.91,0,7.07-3.04,7.07-6.78,0-1.59-3.54-2.38-7.07-2.38Z"/><path class="cls-1" d="M65.77,77.88c0,.38-.32,.7-.73,.7s-.73-.31-.73-.7,.32-.7,.73-.7,.73,.31,.73,.7Z"/><ellipse class="cls-1" cx="65.77" cy="80.73" rx=".73" ry=".7"/><path class="cls-1" d="M69.35,77.44c0,.38-.32,.7-.73,.7s-.73-.31-.73-.7,.32-.7,.73-.7,.73,.31,.73,.7Z"/><path class="cls-1" d="M71.23,80.03c0,.38-.32,.7-.73,.7s-.73-.31-.73-.7,.32-.7,.73-.7,.73,.31,.73,.7Z"/><path class="cls-1" d="M73.87,80.73c0,.38-.32,.7-.73,.7s-.73-.31-.73-.7,.32-.7,.73-.7,.73,.31,.73,.7Z"/><ellipse class="cls-1" cx="70.68" cy="82.55" rx=".73" ry=".7"/><path class="cls-1" d="M75.39,78.13c0,.38-.32,.7-.73,.7s-.73-.31-.73-.7,.32-.7,.73-.7,.73,.31,.73,.7Z"/><ellipse class="cls-1" cx="67.79" cy="79.47" rx=".59" ry=".57"/><path class="cls-1" d="M72.16,77.88c0,.31-.27,.57-.59,.57s-.59-.25-.59-.57,.27-.57,.59-.57,.59,.25,.59,.57Z"/><path class="cls-1" d="M68.97,82.55c0,.31-.27,.57-.59,.57s-.59-.25-.59-.57,.27-.57,.59-.57,.59,.25,.59,.57Z"/><path class="cls-13" d="M30.92,41.32h-3.37c-.1,0-.19-.08-.19-.19s.08-.19,.19-.19h3.37c.1,0,.19,.08,.19,.19s-.08,.19-.19,.19Z"/><path class="cls-13" d="M30.92,43.73h-1.88c-.1,0-.19-.08-.19-.19s.08-.19,.19-.19h1.88c.1,0,.19,.08,.19,.19s-.08,.19-.19,.19Z"/><path class="cls-13" d="M30.92,45.74h-3.37c-.1,0-.19-.08-.19-.19s.08-.19,.19-.19h3.37c.1,0,.19,.08,.19,.19s-.08,.19-.19,.19Z"/><path class="cls-13" d="M30.92,48.15h-1.88c-.1,0-.19-.08-.19-.19s.08-.19,.19-.19h1.88c.1,0,.19,.08,.19,.19s-.08,.19-.19,.19Z"/><path class="cls-13" d="M30.92,50.16h-3.37c-.1,0-.19-.08-.19-.19s.08-.19,.19-.19h3.37c.1,0,.19,.08,.19,.19s-.08,.19-.19,.19Z"/><path class="cls-13" d="M30.92,52.57h-1.88c-.1,0-.19-.08-.19-.19s.08-.19,.19-.19h1.88c.1,0,.19,.08,.19,.19s-.08,.19-.19,.19Z"/><path class="cls-13" d="M30.92,54.59h-3.37c-.1,0-.19-.08-.19-.19s.08-.19,.19-.19h3.37c.1,0,.19,.08,.19,.19s-.08,.19-.19,.19Z"/><path class="cls-13" d="M30.92,57h-1.88c-.1,0-.19-.08-.19-.19s.08-.19,.19-.19h1.88c.1,0,.19,.08,.19,.19s-.08,.19-.19,.19Z"/><path class="cls-13" d="M30.92,59.01h-3.37c-.1,0-.19-.08-.19-.19s.08-.19,.19-.19h3.37c.1,0,.19,.08,.19,.19s-.08,.19-.19,.19Z"/><path class="cls-13" d="M30.92,61.42h-1.88c-.1,0-.19-.08-.19-.19s.08-.19,.19-.19h1.88c.1,0,.19,.08,.19,.19s-.08,.19-.19,.19Z"/><path class="cls-13" d="M30.92,63.44h-3.37c-.1,0-.19-.08-.19-.19s.08-.19,.19-.19h3.37c.1,0,.19,.08,.19,.19s-.08,.19-.19,.19Z"/><path class="cls-13" d="M30.92,65.84h-1.88c-.1,0-.19-.08-.19-.19s.08-.19,.19-.19h1.88c.1,0,.19,.08,.19,.19s-.08,.19-.19,.19Z"/><path class="cls-13" d="M30.92,67.86h-3.37c-.1,0-.19-.08-.19-.19s.08-.19,.19-.19h3.37c.1,0,.19,.08,.19,.19s-.08,.19-.19,.19Z"/><path class="cls-13" d="M30.92,70.27h-1.88c-.1,0-.19-.08-.19-.19s.08-.19,.19-.19h1.88c.1,0,.19,.08,.19,.19s-.08,.19-.19,.19Z"/><path class="cls-13" d="M30.92,72.28h-3.37c-.1,0-.19-.08-.19-.19s.08-.19,.19-.19h3.37c.1,0,.19,.08,.19,.19s-.08,.19-.19,.19Z"/><path class="cls-13" d="M30.92,74.69h-1.88c-.1,0-.19-.08-.19-.19s.08-.19,.19-.19h1.88c.1,0,.19,.08,.19,.19s-.08,.19-.19,.19Z"/><path class="cls-13" d="M30.92,76.71h-3.37c-.1,0-.19-.08-.19-.19s.08-.19,.19-.19h3.37c.1,0,.19,.08,.19,.19s-.08,.19-.19,.19Z"/><path class="cls-13" d="M30.92,79.12h-1.88c-.1,0-.19-.08-.19-.19s.08-.19,.19-.19h1.88c.1,0,.19,.08,.19,.19s-.08,.19-.19,.19Z"/><path class="cls-13" d="M30.92,81.13h-3.37c-.1,0-.19-.08-.19-.19s.08-.19,.19-.19h3.37c.1,0,.19,.08,.19,.19s-.08,.19-.19,.19Z"/><path class="cls-13" d="M30.92,83.54h-1.88c-.1,0-.19-.08-.19-.19s.08-.19,.19-.19h1.88c.1,0,.19,.08,.19,.19s-.08,.19-.19,.19Z"/><path class="cls-13" d="M30.92,85.55h-3.37c-.1,0-.19-.08-.19-.19s.08-.19,.19-.19h3.37c.1,0,.19,.08,.19,.19s-.08,.19-.19,.19Z"/><path class="cls-13" d="M30.92,87.96h-1.88c-.1,0-.19-.08-.19-.19s.08-.19,.19-.19h1.88c.1,0,.19,.08,.19,.19s-.08,.19-.19,.19Z"/><path class="cls-13" d="M30.92,89.98h-3.37c-.1,0-.19-.08-.19-.19s.08-.19,.19-.19h3.37c.1,0,.19,.08,.19,.19s-.08,.19-.19,.19Z"/><path class="cls-13" d="M30.92,92.39h-1.88c-.1,0-.19-.08-.19-.19s.08-.19,.19-.19h1.88c.1,0,.19,.08,.19,.19s-.08,.19-.19,.19Z"/><path class="cls-13" d="M30.92,94.4h-3.37c-.1,0-.19-.08-.19-.19s.08-.19,.19-.19h3.37c.1,0,.19,.08,.19,.19s-.08,.19-.19,.19Z"/><path class="cls-13" d="M30.92,39.37h-1.88c-.1,0-.19-.08-.19-.19s.08-.19,.19-.19h1.88c.1,0,.19,.08,.19,.19s-.08,.19-.19,.19Z"/><g><rect class="cls-4" x="89.2" y="24.45" width="1.86" height="73.82" transform="translate(-.06 .09) rotate(-.06)"/><polygon class="cls-4" points="93.24 28.14 90.09 25 86.95 28.15 86.94 25.48 90.09 22.33 93.24 25.47 93.24 28.14"/></g><g><polygon class="cls-10" points="97.68 100.96 96.57 100.95 96.62 81.71 103.66 74.63 96.59 67.35 96.58 23.6 97.69 23.6 97.7 66.9 105.22 74.64 97.73 82.17 97.68 100.96"/><polygon class="cls-10" points="99.02 25.82 97.13 23.93 95.25 25.82 95.25 24.22 97.13 22.33 99.02 24.21 99.02 25.82"/></g><rect class="cls-4" x="81.53" y="65.94" width="17.27" height="17.27" transform="translate(-26.32 85.6) rotate(-45)"/><polygon class="cls-5" points="90.16 86.78 77.95 74.57 90.16 62.36 90.16 86.78"/><rect class="cls-7" x="85.55" y="69.95" width="9.24" height="9.24" transform="translate(-26.32 85.6) rotate(-45)"/><rect class="cls-11" x="85.52" y="69.95" width="9.24" height="9.24" transform="translate(-26.33 85.58) rotate(-45)"/><rect class="cls-2" x="87.22" y="48.42" width="5.46" height="5.46" transform="translate(-9.82 78.58) rotate(-45)"/><rect class="cls-7" x="87.22" y="42.91" width="5.46" height="5.46" transform="translate(-5.93 76.97) rotate(-45)"/><polygon class="cls-11" points="89.95 49.5 86.09 45.64 89.95 41.78 89.95 49.5"/><polygon class="cls-2" points="48.34 62.87 47.97 62.87 47.97 45.42 49.45 45.42 46.81 41.07 44.17 45.42 45.64 45.42 45.64 62.87 45.27 62.87 45.27 45.79 43.51 45.79 46.81 40.36 50.1 45.79 48.34 45.79 48.34 62.87"/><polygon class="cls-10" points="38.14 65.15 35.75 62.76 33.36 65.15 33.1 64.89 35.75 62.24 38.4 64.89 38.14 65.15"/><polygon class="cls-10" points="38.14 67.67 35.75 65.28 33.36 67.67 33.1 67.41 35.75 64.76 38.4 67.41 38.14 67.67"/><polygon class="cls-10" points="38.14 70.19 35.75 67.8 33.36 70.19 33.1 69.92 35.75 67.28 38.4 69.92 38.14 70.19"/><polygon class="cls-10" points="38.14 72.71 35.75 70.32 33.36 72.71 33.1 72.44 35.75 69.79 38.4 72.44 38.14 72.71"/><polygon class="cls-10" points="38.14 75.22 35.75 72.84 33.36 75.22 33.1 74.96 35.75 72.31 38.4 74.96 38.14 75.22"/><polygon class="cls-10" points="38.14 77.74 35.75 75.35 33.36 77.74 33.1 77.48 35.75 74.83 38.4 77.48 38.14 77.74"/><polygon class="cls-10" points="38.14 80.26 35.75 77.87 33.36 80.26 33.1 80 35.75 77.35 38.4 80 38.14 80.26"/><polygon class="cls-10" points="57.87 62.09 55.77 59.99 53.67 62.09 53.4 61.83 55.77 59.47 58.13 61.83 57.87 62.09"/><polygon class="cls-10" points="57.87 64.32 55.77 62.22 53.67 64.32 53.4 64.06 55.77 61.7 58.13 64.06 57.87 64.32"/><polygon class="cls-10" points="57.87 66.55 55.77 64.45 53.67 66.55 53.4 66.29 55.77 63.93 58.13 66.29 57.87 66.55"/><polygon class="cls-10" points="57.87 68.78 55.77 66.68 53.67 68.78 53.4 68.52 55.77 66.16 58.13 68.52 57.87 68.78"/><polygon class="cls-10" points="57.87 71.02 55.77 68.92 53.67 71.02 53.4 70.75 55.77 68.39 58.13 70.75 57.87 71.02"/><polygon class="cls-10" points="57.87 73.25 55.77 71.15 53.67 73.25 53.4 72.98 55.77 70.62 58.13 72.98 57.87 73.25"/><polygon class="cls-10" points="57.87 75.48 55.77 73.38 53.67 75.48 53.4 75.22 55.77 72.85 58.13 75.22 57.87 75.48"/><polygon class="cls-2" points="79.72 60.74 78.08 59.09 76.43 60.74 76.17 60.48 78.08 58.57 79.99 60.48 79.72 60.74"/><polygon class="cls-2" points="79.72 62.52 78.08 60.87 76.43 62.52 76.17 62.25 78.08 60.34 79.99 62.25 79.72 62.52"/><polygon class="cls-2" points="79.72 64.29 78.08 62.65 76.43 64.29 76.17 64.03 78.08 62.12 79.99 64.03 79.72 64.29"/><polygon class="cls-2" points="79.72 66.07 78.08 64.42 76.43 66.07 76.17 65.81 78.08 63.9 79.99 65.81 79.72 66.07"/><polygon class="cls-2" points="79.72 67.85 78.08 66.2 76.43 67.85 76.17 67.58 78.08 65.68 79.99 67.58 79.72 67.85"/><polygon class="cls-2" points="79.72 69.62 78.08 67.98 76.43 69.62 76.17 69.36 78.08 67.45 79.99 69.36 79.72 69.62"/><polygon class="cls-2" points="79.72 71.4 78.08 69.76 76.43 71.4 76.17 71.14 78.08 69.23 79.99 71.14 79.72 71.4"/><polygon class="cls-10" points="99.32 31.89 97.13 29.7 94.94 31.89 94.68 31.63 97.13 29.17 99.59 31.63 99.32 31.89"/><polygon class="cls-10" points="99.32 34.21 97.13 32.02 94.94 34.21 94.68 33.95 97.13 31.5 99.59 33.95 99.32 34.21"/><polygon class="cls-10" points="99.32 36.53 97.13 34.34 94.94 36.53 94.68 36.27 97.13 33.82 99.59 36.27 99.32 36.53"/><polygon class="cls-10" points="99.32 38.85 97.13 36.66 94.94 38.85 94.68 38.59 97.13 36.14 99.59 38.59 99.32 38.85"/><polygon class="cls-10" points="99.32 41.17 97.13 38.98 94.94 41.17 94.68 40.91 97.13 38.46 99.59 40.91 99.32 41.17"/><polygon class="cls-10" points="99.32 43.49 97.13 41.3 94.94 43.49 94.68 43.23 97.13 40.78 99.59 43.23 99.32 43.49"/><polygon class="cls-10" points="99.32 45.81 97.13 43.62 94.94 45.81 94.68 45.55 97.13 43.1 99.59 45.55 99.32 45.81"/><polygon class="cls-10" points="99.32 87.1 97.13 84.91 94.94 87.1 94.68 86.83 97.13 84.38 99.59 86.83 99.32 87.1"/><polygon class="cls-10" points="99.32 89.42 97.13 87.23 94.94 89.42 94.68 89.16 97.13 86.7 99.59 89.16 99.32 89.42"/><polygon class="cls-10" points="99.32 91.74 97.13 89.55 94.94 91.74 94.68 91.48 97.13 89.02 99.59 91.48 99.32 91.74"/><polygon class="cls-10" points="99.32 94.06 97.13 91.87 94.94 94.06 94.68 93.8 97.13 91.34 99.59 93.8 99.32 94.06"/><polygon class="cls-10" points="99.32 96.38 97.13 94.19 94.94 96.38 94.68 96.12 97.13 93.67 99.59 96.12 99.32 96.38"/><polygon class="cls-10" points="99.32 98.7 97.13 96.51 94.94 98.7 94.68 98.44 97.13 95.99 99.59 98.44 99.32 98.7"/><polygon class="cls-10" points="99.32 101.02 97.13 98.83 94.94 101.02 94.68 100.76 97.13 98.31 99.59 100.76 99.32 101.02"/><g><rect class="cls-2" x="61.02" y="87.23" width="23.96" height=".37"/><g><rect class="cls-2" x="61.02" y="88.42" width=".56" height=".37"/><path class="cls-2" d="M83.33,88.79h-1.09v-.37h1.09v.37Zm-2.18,0h-1.09v-.37h1.09v.37Zm-2.18,0h-1.09v-.37h1.09v.37Zm-2.18,0h-1.09v-.37h1.09v.37Zm-2.18,0h-1.09v-.37h1.09v.37Zm-2.18,0h-1.09v-.37h1.09v.37Zm-2.18,0h-1.09v-.37h1.09v.37Zm-2.18,0h-1.09v-.37h1.09v.37Zm-2.18,0h-1.09v-.37h1.09v.37Zm-2.18,0h-1.09v-.37h1.09v.37Z"/><rect class="cls-2" x="84.42" y="88.42" width=".56" height=".37"/></g><rect class="cls-2" x="61.02" y="89.62" width="23.96" height=".37"/><rect class="cls-2" x="61.02" y="90.82" width="23.96" height=".37"/><g><rect class="cls-2" x="61.02" y="92.01" width=".56" height=".37"/><path class="cls-2" d="M74.34,92.39h-1.06v-.37h1.06v.37Zm-2.13,0h-1.06v-.37h1.06v.37Zm-2.13,0h-1.06v-.37h1.06v.37Zm-2.13,0h-1.06v-.37h1.06v.37Zm-2.13,0h-1.06v-.37h1.06v.37Zm-2.13,0h-1.06v-.37h1.06v.37Z"/><rect class="cls-2" x="75.41" y="92.01" width=".56" height=".37"/></g><rect class="cls-2" x="61.02" y="93.3" width="23.96" height=".37"/><g><rect class="cls-2" x="61.02" y="95.69" width=".56" height=".37"/><path class="cls-2" d="M83.33,96.07h-1.09v-.37h1.09v.37Zm-2.18,0h-1.09v-.37h1.09v.37Zm-2.18,0h-1.09v-.37h1.09v.37Zm-2.18,0h-1.09v-.37h1.09v.37Zm-2.18,0h-1.09v-.37h1.09v.37Zm-2.18,0h-1.09v-.37h1.09v.37Zm-2.18,0h-1.09v-.37h1.09v.37Zm-2.18,0h-1.09v-.37h1.09v.37Zm-2.18,0h-1.09v-.37h1.09v.37Zm-2.18,0h-1.09v-.37h1.09v.37Z"/><rect class="cls-2" x="84.42" y="95.69" width=".56" height=".37"/></g><rect class="cls-2" x="61.02" y="96.89" width="23.96" height=".37"/><rect class="cls-2" x="61.02" y="98.09" width="14.95" height=".37"/><rect class="cls-2" x="61.1" y="94.44" width="23.96" height=".37"/></g><path class="cls-13" d="M49.79,89.37c-.1,0-.19-.08-.19-.19v-3.89c0-.1,.08-.19,.19-.19h3.89c.1,0,.19,.08,.19,.19s-.08,.19-.19,.19h-3.71v3.71c0,.1-.08,.19-.19,.19Z"/><path class="cls-13" d="M63.16,89.37c-.1,0-.19-.08-.19-.19v-3.71h-3.71c-.1,0-.19-.08-.19-.19s.08-.19,.19-.19h3.89c.1,0,.19,.08,.19,.19v3.89c0,.1-.08,.19-.19,.19Z"/><path class="cls-13" d="M53.69,95.44h-3.89c-.1,0-.19-.08-.19-.19v-3.89c0-.1,.08-.19,.19-.19s.19,.08,.19,.19v3.71h3.71c.1,0,.19,.08,.19,.19s-.08,.19-.19,.19Z"/><path class="cls-13" d="M63.16,95.44h-3.89c-.1,0-.19-.08-.19-.19s.08-.19,.19-.19h3.71v-3.71c0-.1,.08-.19,.19-.19s.19,.08,.19,.19v3.89c0,.1-.08,.19-.19,.19Z"/><path class="cls-13" d="M60.55,90.54h-.49c-.1,0-.19-.08-.19-.19s.08-.19,.19-.19h.49c.1,0,.19,.08,.19,.19s-.08,.19-.19,.19Zm-1.61,0h-1.11c-.1,0-.19-.08-.19-.19s.08-.19,.19-.19h1.11c.1,0,.19,.08,.19,.19s-.08,.19-.19,.19Zm-2.23,0h-1.11c-.1,0-.19-.08-.19-.19s.08-.19,.19-.19h1.11c.1,0,.19,.08,.19,.19s-.08,.19-.19,.19Zm-2.23,0h-1.11c-.1,0-.19-.08-.19-.19s.08-.19,.19-.19h1.11c.1,0,.19,.08,.19,.19s-.08,.19-.19,.19Z"/><g><path class="cls-2" d="M41.76,45.4h-9.26c-.1,0-.19-.08-.19-.19s.08-.19,.19-.19h9.26c.1,0,.19,.08,.19,.19s-.08,.19-.19,.19Z"/><path class="cls-2" d="M41.76,46.89h-.36c-.1,0-.19-.08-.19-.19s.08-.19,.19-.19h.36c.1,0,.19,.08,.19,.19s-.08,.19-.19,.19Zm-1.47,0h-1.11c-.1,0-.19-.08-.19-.19s.08-.19,.19-.19h1.11c.1,0,.19,.08,.19,.19s-.08,.19-.19,.19Zm-2.23,0h-1.11c-.1,0-.19-.08-.19-.19s.08-.19,.19-.19h1.11c.1,0,.19,.08,.19,.19s-.08,.19-.19,.19Zm-2.23,0h-1.11c-.1,0-.19-.08-.19-.19s.08-.19,.19-.19h1.11c.1,0,.19,.08,.19,.19s-.08,.19-.19,.19Zm-2.23,0h-1.11c-.1,0-.19-.08-.19-.19s.08-.19,.19-.19h1.11c.1,0,.19,.08,.19,.19s-.08,.19-.19,.19Z"/><path class="cls-2" d="M41.76,48.38h-9.26c-.1,0-.19-.08-.19-.19s.08-.19,.19-.19h9.26c.1,0,.19,.08,.19,.19s-.08,.19-.19,.19Z"/><path class="cls-2" d="M41.76,49.87h-9.26c-.1,0-.19-.08-.19-.19s.08-.19,.19-.19h9.26c.1,0,.19,.08,.19,.19s-.08,.19-.19,.19Z"/><path class="cls-2" d="M38.06,51.36h-1.11c-.1,0-.19-.08-.19-.19s.08-.19,.19-.19h1.11c.1,0,.19,.08,.19,.19s-.08,.19-.19,.19Zm-2.23,0h-1.11c-.1,0-.19-.08-.19-.19s.08-.19,.19-.19h1.11c.1,0,.19,.08,.19,.19s-.08,.19-.19,.19Zm-2.23,0h-1.11c-.1,0-.19-.08-.19-.19s.08-.19,.19-.19h1.11c.1,0,.19,.08,.19,.19s-.08,.19-.19,.19Z"/><path class="cls-2" d="M41.76,52.96h-9.26c-.1,0-.19-.08-.19-.19s.08-.19,.19-.19h9.26c.1,0,.19,.08,.19,.19s-.08,.19-.19,.19Z"/><path class="cls-2" d="M41.76,54.45h-.36c-.1,0-.19-.08-.19-.19s.08-.19,.19-.19h.36c.1,0,.19,.08,.19,.19s-.08,.19-.19,.19Zm-1.47,0h-1.11c-.1,0-.19-.08-.19-.19s.08-.19,.19-.19h1.11c.1,0,.19,.08,.19,.19s-.08,.19-.19,.19Zm-2.23,0h-1.11c-.1,0-.19-.08-.19-.19s.08-.19,.19-.19h1.11c.1,0,.19,.08,.19,.19s-.08,.19-.19,.19Zm-2.23,0h-1.11c-.1,0-.19-.08-.19-.19s.08-.19,.19-.19h1.11c.1,0,.19,.08,.19,.19s-.08,.19-.19,.19Zm-2.23,0h-1.11c-.1,0-.19-.08-.19-.19s.08-.19,.19-.19h1.11c.1,0,.19,.08,.19,.19s-.08,.19-.19,.19Z"/><path class="cls-2" d="M41.76,55.95h-9.26c-.1,0-.19-.08-.19-.19s.08-.19,.19-.19h9.26c.1,0,.19,.08,.19,.19s-.08,.19-.19,.19Z"/><path class="cls-2" d="M41.76,57.44h-9.26c-.1,0-.19-.08-.19-.19s.08-.19,.19-.19h9.26c.1,0,.19,.08,.19,.19s-.08,.19-.19,.19Z"/><path class="cls-2" d="M38.28,58.93h-5.78c-.1,0-.19-.08-.19-.19s.08-.19,.19-.19h5.78c.1,0,.19,.08,.19,.19s-.08,.19-.19,.19Z"/></g><path class="cls-4" d="M71.31,38.96c0,1.75-1.43,3.16-3.18,3.15-1.75,0-3.16-1.43-3.15-3.18,0-1.75,1.43-3.16,3.18-3.15,1.75,0,3.16,1.43,3.15,3.18Z"/><path class="cls-5" d="M68.13,42.11c-1.75,0-3.16-1.43-3.15-3.18,0-1.75,1.43-3.16,3.18-3.15l-.03,6.33Z"/><path class="cls-1" d="M67.78,38.06c0,.49-.4,.89-.89,.89s-.89-.4-.89-.89,.4-.89,.89-.89,.89,.4,.89,.89Z"/><path class="cls-4" d="M57.07,23.15c0,.98-.81,1.78-1.79,1.77-.98,0-1.78-.81-1.77-1.79,0-.98,.81-1.78,1.79-1.77,.98,0,1.78,.81,1.77,1.79Z"/><path class="cls-5" d="M55.28,24.92c-.98,0-1.78-.81-1.77-1.79,0-.98,.81-1.78,1.79-1.77l-.02,3.56Z"/><path class="cls-1" d="M55.08,22.64c0,.28-.22,.5-.5,.5s-.5-.22-.5-.5,.22-.5,.5-.5,.5,.22,.5,.5Z"/><path class="cls-4" d="M57.55,47.97c0,.98-.81,1.78-1.79,1.77-.98,0-1.78-.81-1.77-1.79,0-.98,.81-1.78,1.79-1.77,.98,0,1.78,.81,1.77,1.79Z"/><path class="cls-5" d="M55.76,49.74c-.98,0-1.78-.81-1.77-1.79,0-.98,.81-1.78,1.79-1.77l-.02,3.56Z"/><circle class="cls-1" cx="55.06" cy="47.47" r=".5"/><path class="cls-4" d="M82.56,29.44c0,.98-.81,1.78-1.79,1.77-.98,0-1.78-.81-1.77-1.79s.81-1.78,1.79-1.77,1.78,.81,1.77,1.79Z"/><path class="cls-5" d="M80.77,31.22c-.98,0-1.78-.81-1.77-1.79s.81-1.78,1.79-1.77l-.02,3.56Z"/><path class="cls-1" d="M80.58,28.94c0,.28-.22,.5-.5,.5s-.5-.22-.5-.5,.22-.5,.5-.5,.5,.22,.5,.5Z"/><path class="cls-4" d="M92.78,96.87c0,1.47-1.2,2.65-2.67,2.65-1.47,0-2.65-1.2-2.65-2.67s1.2-2.65,2.67-2.65c1.47,0,2.65,1.2,2.65,2.67Z"/><path class="cls-5" d="M90.11,99.52c-1.47,0-2.65-1.2-2.65-2.67s1.2-2.65,2.67-2.65l-.02,5.32Z"/><path class="cls-1" d="M89.82,96.12c0,.41-.33,.74-.74,.74s-.74-.33-.74-.74,.33-.74,.74-.74,.74,.33,.74,.74Z"/><path class="cls-13" d="M51.67,59.2c-.85,0-1.55-.69-1.55-1.55s.69-1.55,1.55-1.55,1.55,.69,1.55,1.55-.69,1.55-1.55,1.55Zm0-2.73c-.65,0-1.18,.53-1.18,1.18s.53,1.18,1.18,1.18,1.18-.53,1.18-1.18-.53-1.18-1.18-1.18Z"/><path class="cls-13" d="M45.19,37.95c-1.16,0-2.11-.95-2.11-2.11s.95-2.11,2.11-2.11,2.11,.95,2.11,2.11-.95,2.11-2.11,2.11Zm0-3.84c-.96,0-1.74,.78-1.74,1.74s.78,1.74,1.74,1.74,1.74-.78,1.74-1.74-.78-1.74-1.74-1.74Z"/><path class="cls-13" d="M50.98,52.97c-.65,0-1.18-.53-1.18-1.18s.53-1.18,1.18-1.18,1.18,.53,1.18,1.18-.53,1.18-1.18,1.18Zm0-1.98c-.44,0-.8,.36-.8,.8s.36,.8,.8,.8,.8-.36,.8-.8-.36-.8-.8-.8Z"/><path class="cls-13" d="M67.45,56.48c-.49,0-.88-.4-.88-.88s.4-.88,.88-.88,.88,.4,.88,.88-.4,.88-.88,.88Zm0-1.39c-.28,0-.51,.23-.51,.51s.23,.51,.51,.51,.51-.23,.51-.51-.23-.51-.51-.51Z"/><path class="cls-13" d="M68.84,54.36c-.49,0-.88-.4-.88-.88s.4-.88,.88-.88,.88,.4,.88,.88-.4,.88-.88,.88Zm0-1.39c-.28,0-.51,.23-.51,.51s.23,.51,.51,.51,.51-.23,.51-.51-.23-.51-.51-.51Z"/><path class="cls-13" d="M70.2,58.5c-.57,0-1.04-.47-1.04-1.04s.47-1.04,1.04-1.04,1.04,.47,1.04,1.04-.47,1.04-1.04,1.04Zm0-1.71c-.37,0-.67,.3-.67,.67s.3,.67,.67,.67,.67-.3,.67-.67-.3-.67-.67-.67Z"/><path class="cls-4" d="M91.57,45.68c0,.8-.65,1.46-1.46,1.46s-1.46-.65-1.46-1.46,.65-1.46,1.46-1.46,1.46,.65,1.46,1.46Z"/><path class="cls-4" d="M91.4,51.15c0,.8-.65,1.46-1.46,1.46s-1.46-.65-1.46-1.46,.65-1.46,1.46-1.46,1.46,.65,1.46,1.46Z"/><path class="cls-13" d="M46.81,62.06c-.45,0-.82-.37-.82-.82s.37-.82,.82-.82,.82,.37,.82,.82-.37,.82-.82,.82Zm0-1.27c-.25,0-.45,.2-.45,.45s.2,.45,.45,.45,.45-.2,.45-.45-.2-.45-.45-.45Z"/><path class="cls-13" d="M46.81,58.84c-.45,0-.82-.37-.82-.82s.37-.82,.82-.82,.82,.37,.82,.82-.37,.82-.82,.82Zm0-1.27c-.25,0-.45,.2-.45,.45s.2,.45,.45,.45,.45-.2,.45-.45-.2-.45-.45-.45Z"/><path class="cls-13" d="M46.81,55.62c-.45,0-.82-.37-.82-.82s.37-.82,.82-.82,.82,.37,.82,.82-.37,.82-.82,.82Zm0-1.27c-.25,0-.45,.2-.45,.45s.2,.45,.45,.45,.45-.2,.45-.45-.2-.45-.45-.45Z"/><path class="cls-13" d="M46.81,52.4c-.45,0-.82-.37-.82-.82s.37-.82,.82-.82,.82,.37,.82,.82-.37,.82-.82,.82Zm0-1.27c-.25,0-.45,.2-.45,.45s.2,.45,.45,.45,.45-.2,.45-.45-.2-.45-.45-.45Z"/><path class="cls-13" d="M46.81,49.18c-.45,0-.82-.37-.82-.82s.37-.82,.82-.82,.82,.37,.82,.82-.37,.82-.82,.82Zm0-1.27c-.25,0-.45,.2-.45,.45s.2,.45,.45,.45,.45-.2,.45-.45-.2-.45-.45-.45Z"/><path class="cls-13" d="M46.81,45.96c-.45,0-.82-.37-.82-.82s.37-.82,.82-.82,.82,.37,.82,.82-.37,.82-.82,.82Zm0-1.27c-.25,0-.45,.2-.45,.45s.2,.45,.45,.45,.45-.2,.45-.45-.2-.45-.45-.45Z"/></g></svg>