<?xml version="1.0" encoding="UTF-8"?><svg id="Layer_1" xmlns="http://www.w3.org/2000/svg" viewBox="0 0 123.16 123.16"><defs><style>.cls-1{fill:#fff;}.cls-2{fill:#e2e0de;}.cls-3{fill:#4d78a3;}.cls-4{fill:#ff5542;}.cls-5{fill:#ff6453;}.cls-6{fill:#6b6b6b;}.cls-7{fill:#7fd8a7;}.cls-8{fill:#fbd350;}.cls-9{fill:none;}.cls-10{fill:#6acfa0;}.cls-11{fill:#ffda70;}.cls-12{fill:#eeeded;}.cls-13{fill:#5e5e5e;}</style></defs><circle class="cls-1" cx="62.73" cy="61.2" r="58.24"/><rect class="cls-9" width="123.16" height="123.16"/><g><path class="cls-8" d="M70.58,98.63h-30.89l.31-1.18c1.94-7.31-.94-14.51-1.96-16.72-1.44,.46-4.47,1.43-5.36,1.81-1.27,.54-4.61,.83-6.61-.93-.95-.84-1.92-2.45-1.13-5.37,0-.45-.36-2.44-1.58-3.4-.72-.57-.74-1.49-.44-2.37-.64-.49-.86-1.26-.87-1.72v-.27s.12-.23,.12-.23c1.14-1.97,1.22-2.96,1.18-3.34-3.52-.74-4.28-1.47-4.43-2.51-.07-.46,.08-.73,.91-2.24,.99-1.78,3.99-7.18,3.22-8.67-1.25-2.4-1.52-5.11-1.01-10.36,.46-4.77,3.46-9.5,8.45-13.32,6.84-5.24,16.05-7.66,24.03-6.31,19.13,3.23,21.99,16.16,21.99,23.58,0,5.47-2.22,11.53-5.93,16.22-5.97,7.53-8.38,13.53-7.17,17.83h0c.16,.55,.31,1.1,.46,1.66,1.37,4.89,2.78,9.95,6.04,16.5l.67,1.35Zm-28.49-1.87h25.48c-2.88-6.06-4.21-10.84-5.51-15.48-.15-.55-.31-1.1-.46-1.65-1.41-4.98,1.05-11.36,7.5-19.5,3.46-4.36,5.53-9.99,5.53-15.05,0-11.79-7.26-19.51-20.43-21.73-7.48-1.26-16.13,1.02-22.58,5.95-4.57,3.5-7.31,7.77-7.72,12.01-.53,5.48-.11,7.57,.8,9.31,1.15,2.2-.97,6.37-3.24,10.45-.22,.4-.46,.84-.61,1.11,.27,.17,1.06,.54,3.32,.99l.22,.04,.18,.14c.4,.32,1.51,1.65-.62,5.52,.08,.15,.24,.17,.31,.18l1.43,.17-.73,1.24c-.19,.32-.35,.77-.36,.98,1.89,1.58,2.35,4.52,2.15,5.23-.45,1.63-.27,2.81,.54,3.53,1.31,1.15,3.85,.95,4.64,.61,1.26-.53,6.09-2.05,6.3-2.11l.74-.23,.37,.68c.2,.36,4.58,8.6,2.74,17.61Zm-17.13-20.59s0,0,0,0c0,0,0,0,0,0Zm-4.22-13.74h0s0,0,0,0Zm.02-.36v.02s0-.01,0-.02Z"/><path class="cls-2" d="M77.33,98.44h-28.16c-.26,0-.5-.13-.64-.35-.14-.22-.15-.5-.03-.73,3.27-6.56,4.68-11.63,6.05-16.53,.16-.56,.31-1.11,.47-1.66,1.23-4.36-1.19-10.41-7.2-17.99-3.69-4.65-5.89-10.67-5.89-16.1,0-7.36,2.84-20.19,21.84-23.39,7.93-1.34,17.08,1.07,23.88,6.28,4.94,3.79,7.92,8.47,8.38,13.19,.5,5.21,.25,7.89-.99,10.26-.83,1.58,2.11,6.86,3.22,8.85,.81,1.46,.96,1.72,.9,2.09-.15,1.01-.9,1.68-4.42,2.41-.08,.35-.1,1.37,1.18,3.59,.07,.12,.1,.26,.1,.4-.02,.45-.24,1.21-.91,1.65,.26,.71,.42,1.69-.33,2.29-1.3,1.03-1.67,3.15-1.66,3.58,.78,2.84-.15,4.39-1.06,5.2-1.85,1.62-5.11,1.45-6.42,.9-.93-.4-4.17-1.43-5.53-1.86-.96,2.05-4.04,9.47-2.04,17,.06,.22,.01,.46-.13,.65-.14,.18-.36,.29-.59,.29Zm-26.96-1.5h26.01c-1.95-9.03,2.48-17.35,2.67-17.71,.17-.32,.54-.47,.88-.36,.2,.06,5.03,1.58,6.28,2.11,.83,.35,3.48,.56,4.84-.64,.87-.77,1.07-2.02,.6-3.72-.19-.66,.3-3.6,2.16-5.09,.05-.19-.14-.76-.38-1.17-.13-.22-.14-.49-.03-.71,.11-.23,.33-.38,.58-.41,.31-.04,.44-.21,.49-.38-2.12-3.8-1.08-5.06-.71-5.36,.09-.08,.2-.13,.32-.15,2.75-.55,3.39-.98,3.53-1.11-.13-.26-.42-.79-.68-1.26-2.15-3.86-4.34-8.15-3.24-10.27,.93-1.78,1.36-3.89,.82-9.42-.42-4.3-3.19-8.61-7.8-12.14-6.48-4.97-15.19-7.26-22.72-5.99-13.27,2.24-20.59,10.02-20.59,21.92,0,5.1,2.08,10.77,5.57,15.17,6.42,8.09,8.86,14.42,7.47,19.33-.16,.55-.31,1.1-.46,1.66-1.31,4.7-2.66,9.54-5.62,15.71Zm42.72-20.72s0,0,0,.01c0,0,0,0,0-.01Zm4.57-14.12s0,0,0,.01h0Z"/><path class="cls-13" d="M35.17,77.69c-.1,0-.19-.08-.19-.19v-2.05c0-.1,.08-.19,.19-.19s.19,.08,.19,.19v2.05c0,.1-.08,.19-.19,.19Z"/><path class="cls-13" d="M37.37,77.69c-.1,0-.19-.08-.19-.19v-2.05c0-.1,.08-.19,.19-.19s.19,.08,.19,.19v2.05c0,.1-.08,.19-.19,.19Z"/><path class="cls-13" d="M39.58,77.69c-.1,0-.19-.08-.19-.19v-2.05c0-.1,.08-.19,.19-.19s.19,.08,.19,.19v2.05c0,.1-.08,.19-.19,.19Z"/><path class="cls-13" d="M41.78,77.69c-.1,0-.19-.08-.19-.19v-2.05c0-.1,.08-.19,.19-.19s.19,.08,.19,.19v2.05c0,.1-.08,.19-.19,.19Z"/><path class="cls-13" d="M43.98,77.69c-.1,0-.19-.08-.19-.19v-2.05c0-.1,.08-.19,.19-.19s.19,.08,.19,.19v2.05c0,.1-.08,.19-.19,.19Z"/><path class="cls-13" d="M46.18,77.69c-.1,0-.19-.08-.19-.19v-2.05c0-.1,.08-.19,.19-.19s.19,.08,.19,.19v2.05c0,.1-.08,.19-.19,.19Z"/><path class="cls-13" d="M48.38,77.69c-.1,0-.19-.08-.19-.19v-2.05c0-.1,.08-.19,.19-.19s.19,.08,.19,.19v2.05c0,.1-.08,.19-.19,.19Z"/><path class="cls-13" d="M50.58,77.69c-.1,0-.19-.08-.19-.19v-2.05c0-.1,.08-.19,.19-.19s.19,.08,.19,.19v2.05c0,.1-.08,.19-.19,.19Z"/><path class="cls-2" d="M69.69,82.01c-2.17,0-3.94-1.77-3.94-3.94s1.77-3.94,3.94-3.94,3.94,1.77,3.94,3.94-1.77,3.94-3.94,3.94Zm0-7.5c-1.96,0-3.56,1.6-3.56,3.56s1.6,3.56,3.56,3.56,3.56-1.6,3.56-3.56-1.6-3.56-3.56-3.56Z"/><path class="cls-2" d="M72.11,77.38c-1.77,0-3.22-1.44-3.22-3.22s1.44-3.22,3.22-3.22,3.22,1.44,3.22,3.22-1.44,3.22-3.22,3.22Zm0-6.06c-1.57,0-2.84,1.28-2.84,2.84s1.27,2.84,2.84,2.84,2.84-1.28,2.84-2.84-1.27-2.84-2.84-2.84Z"/><path class="cls-2" d="M48.18,87.5c-1.49,0-2.7-1.21-2.7-2.7s1.21-2.7,2.7-2.7,2.7,1.21,2.7,2.7-1.21,2.7-2.7,2.7Zm0-5.03c-1.28,0-2.33,1.04-2.33,2.33s1.04,2.33,2.33,2.33,2.33-1.04,2.33-2.33-1.04-2.33-2.33-2.33Z"/><path class="cls-2" d="M49.81,84.39c-1.22,0-2.22-1-2.22-2.22s1-2.22,2.22-2.22,2.22,1,2.22,2.22-1,2.22-2.22,2.22Zm0-4.06c-1.02,0-1.84,.83-1.84,1.84s.83,1.84,1.84,1.84,1.84-.83,1.84-1.84-.83-1.84-1.84-1.84Z"/><path class="cls-2" d="M79.14,53.96c-1.49,0-2.7-1.21-2.7-2.7s1.21-2.7,2.7-2.7,2.7,1.21,2.7,2.7-1.21,2.7-2.7,2.7Zm0-5.03c-1.28,0-2.33,1.04-2.33,2.33s1.04,2.33,2.33,2.33,2.33-1.04,2.33-2.33-1.04-2.33-2.33-2.33Z"/><path class="cls-2" d="M80.76,50.86c-1.22,0-2.22-1-2.22-2.22s1-2.22,2.22-2.22,2.22,1,2.22,2.22-1,2.22-2.22,2.22Zm0-4.06c-1.02,0-1.84,.83-1.84,1.84s.83,1.84,1.84,1.84,1.84-.83,1.84-1.84-.83-1.84-1.84-1.84Z"/><path class="cls-2" d="M42.25,32.27c-1.49,0-2.7-1.21-2.7-2.7s1.21-2.7,2.7-2.7,2.7,1.21,2.7,2.7-1.21,2.7-2.7,2.7Zm0-5.03c-1.28,0-2.33,1.04-2.33,2.33s1.04,2.33,2.33,2.33,2.33-1.04,2.33-2.33-1.04-2.33-2.33-2.33Z"/><path class="cls-2" d="M43.88,29.17c-1.22,0-2.22-1-2.22-2.22s1-2.22,2.22-2.22,2.22,1,2.22,2.22-1,2.22-2.22,2.22Zm0-4.06c-1.02,0-1.84,.83-1.84,1.84s.83,1.84,1.84,1.84,1.84-.83,1.84-1.84-.83-1.84-1.84-1.84Z"/><path class="cls-10" d="M83.85,97.64c-1.91,0-3.47-1.56-3.47-3.47s1.56-3.47,3.47-3.47,3.47,1.56,3.47,3.47-1.56,3.47-3.47,3.47Zm0-5.81c-1.29,0-2.34,1.05-2.34,2.34s1.05,2.34,2.34,2.34,2.34-1.05,2.34-2.34-1.05-2.34-2.34-2.34Z"/><path class="cls-10" d="M83.85,91.82c-.31,0-.56-.25-.56-.56v-1.34c0-.31,.25-.56,.56-.56s.56,.25,.56,.56v1.34c0,.31-.25,.56-.56,.56Z"/><path class="cls-10" d="M83.85,98.98c-.31,0-.56-.25-.56-.56v-1.34c0-.31,.25-.56,.56-.56s.56,.25,.56,.56v1.34c0,.31-.25,.56-.56,.56Z"/><path class="cls-10" d="M80.95,94.73h-1.34c-.31,0-.56-.25-.56-.56s.25-.56,.56-.56h1.34c.31,0,.56,.25,.56,.56s-.25,.56-.56,.56Z"/><path class="cls-10" d="M88.1,94.73h-1.34c-.31,0-.56-.25-.56-.56s.25-.56,.56-.56h1.34c.31,0,.56,.25,.56,.56s-.25,.56-.56,.56Z"/><path class="cls-10" d="M80.85,97.74c-.14,0-.29-.05-.4-.16-.22-.22-.22-.58,0-.79l.95-.95c.22-.22,.58-.22,.79,0,.22,.22,.22,.58,0,.79l-.95,.95c-.11,.11-.25,.16-.4,.16Z"/><path class="cls-10" d="M85.91,92.68c-.14,0-.29-.05-.4-.16-.22-.22-.22-.58,0-.79l.95-.95c.22-.22,.58-.22,.79,0,.22,.22,.22,.58,0,.79l-.95,.95c-.11,.11-.25,.16-.4,.16Z"/><path class="cls-10" d="M86.86,97.74c-.14,0-.29-.05-.4-.16l-.95-.95c-.22-.22-.22-.58,0-.79s.58-.22,.79,0l.95,.95c.22,.22,.22,.58,0,.79-.11,.11-.25,.16-.4,.16Z"/><path class="cls-10" d="M81.8,92.68c-.14,0-.29-.05-.4-.16l-.95-.95c-.22-.22-.22-.58,0-.79,.22-.22,.58-.22,.79,0l.95,.95c.22,.22,.22,.58,0,.79-.11,.11-.25,.16-.4,.16Z"/><g><path class="cls-13" d="M95.07,19.6h-17.37c-.1,0-.19-.08-.19-.19s.08-.19,.19-.19h17.37c.1,0,.19,.08,.19,.19s-.08,.19-.19,.19Z"/><g><path class="cls-13" d="M78.26,22.26h-.56c-.1,0-.19-.08-.19-.19s.08-.19,.19-.19h.56c.1,0,.19,.08,.19,.19s-.08,.19-.19,.19Z"/><path class="cls-13" d="M93.42,22.26h-1.08c-.1,0-.19-.08-.19-.19s.08-.19,.19-.19h1.08c.1,0,.19,.08,.19,.19s-.08,.19-.19,.19Zm-2.17,0h-1.08c-.1,0-.19-.08-.19-.19s.08-.19,.19-.19h1.08c.1,0,.19,.08,.19,.19s-.08,.19-.19,.19Zm-2.17,0h-1.08c-.1,0-.19-.08-.19-.19s.08-.19,.19-.19h1.08c.1,0,.19,.08,.19,.19s-.08,.19-.19,.19Zm-2.17,0h-1.08c-.1,0-.19-.08-.19-.19s.08-.19,.19-.19h1.08c.1,0,.19,.08,.19,.19s-.08,.19-.19,.19Zm-2.17,0h-1.08c-.1,0-.19-.08-.19-.19s.08-.19,.19-.19h1.08c.1,0,.19,.08,.19,.19s-.08,.19-.19,.19Zm-2.17,0h-1.08c-.1,0-.19-.08-.19-.19s.08-.19,.19-.19h1.08c.1,0,.19,.08,.19,.19s-.08,.19-.19,.19Zm-2.17,0h-1.08c-.1,0-.19-.08-.19-.19s.08-.19,.19-.19h1.08c.1,0,.19,.08,.19,.19s-.08,.19-.19,.19Z"/><path class="cls-13" d="M95.07,22.26h-.56c-.1,0-.19-.08-.19-.19s.08-.19,.19-.19h.56c.1,0,.19,.08,.19,.19s-.08,.19-.19,.19Z"/></g><path class="cls-13" d="M95.07,24.92h-17.37c-.1,0-.19-.08-.19-.19s.08-.19,.19-.19h17.37c.1,0,.19,.08,.19,.19s-.08,.19-.19,.19Z"/><path class="cls-13" d="M94.56,27.58h-1.12c-.1,0-.19-.08-.19-.19s.08-.19,.19-.19h1.12c.1,0,.19,.08,.19,.19s-.08,.19-.19,.19Zm-2.25,0h-1.12c-.1,0-.19-.08-.19-.19s.08-.19,.19-.19h1.12c.1,0,.19,.08,.19,.19s-.08,.19-.19,.19Zm-2.25,0h-1.12c-.1,0-.19-.08-.19-.19s.08-.19,.19-.19h1.12c.1,0,.19,.08,.19,.19s-.08,.19-.19,.19Zm-2.25,0h-1.12c-.1,0-.19-.08-.19-.19s.08-.19,.19-.19h1.12c.1,0,.19,.08,.19,.19s-.08,.19-.19,.19Zm-2.25,0h-1.12c-.1,0-.19-.08-.19-.19s.08-.19,.19-.19h1.12c.1,0,.19,.08,.19,.19s-.08,.19-.19,.19Zm-2.25,0h-1.12c-.1,0-.19-.08-.19-.19s.08-.19,.19-.19h1.12c.1,0,.19,.08,.19,.19s-.08,.19-.19,.19Zm-2.25,0h-1.12c-.1,0-.19-.08-.19-.19s.08-.19,.19-.19h1.12c.1,0,.19,.08,.19,.19s-.08,.19-.19,.19Zm-2.25,0h-1.12c-.1,0-.19-.08-.19-.19s.08-.19,.19-.19h1.12c.1,0,.19,.08,.19,.19s-.08,.19-.19,.19Z"/><path class="cls-13" d="M87.82,30.25h-1.12c-.1,0-.19-.08-.19-.19s.08-.19,.19-.19h1.12c.1,0,.19,.08,.19,.19s-.08,.19-.19,.19Zm-2.25,0h-1.12c-.1,0-.19-.08-.19-.19s.08-.19,.19-.19h1.12c.1,0,.19,.08,.19,.19s-.08,.19-.19,.19Zm-2.25,0h-1.12c-.1,0-.19-.08-.19-.19s.08-.19,.19-.19h1.12c.1,0,.19,.08,.19,.19s-.08,.19-.19,.19Zm-2.25,0h-1.12c-.1,0-.19-.08-.19-.19s.08-.19,.19-.19h1.12c.1,0,.19,.08,.19,.19s-.08,.19-.19,.19Zm-2.25,0h-1.12c-.1,0-.19-.08-.19-.19s.08-.19,.19-.19h1.12c.1,0,.19,.08,.19,.19s-.08,.19-.19,.19Z"/><path class="cls-13" d="M95.07,33.11h-17.37c-.1,0-.19-.08-.19-.19s.08-.19,.19-.19h17.37c.1,0,.19,.08,.19,.19s-.08,.19-.19,.19Z"/><g><path class="cls-13" d="M78.26,35.77h-.56c-.1,0-.19-.08-.19-.19s.08-.19,.19-.19h.56c.1,0,.19,.08,.19,.19s-.08,.19-.19,.19Z"/><path class="cls-13" d="M93.42,35.77h-1.08c-.1,0-.19-.08-.19-.19s.08-.19,.19-.19h1.08c.1,0,.19,.08,.19,.19s-.08,.19-.19,.19Zm-2.17,0h-1.08c-.1,0-.19-.08-.19-.19s.08-.19,.19-.19h1.08c.1,0,.19,.08,.19,.19s-.08,.19-.19,.19Zm-2.17,0h-1.08c-.1,0-.19-.08-.19-.19s.08-.19,.19-.19h1.08c.1,0,.19,.08,.19,.19s-.08,.19-.19,.19Zm-2.17,0h-1.08c-.1,0-.19-.08-.19-.19s.08-.19,.19-.19h1.08c.1,0,.19,.08,.19,.19s-.08,.19-.19,.19Zm-2.17,0h-1.08c-.1,0-.19-.08-.19-.19s.08-.19,.19-.19h1.08c.1,0,.19,.08,.19,.19s-.08,.19-.19,.19Zm-2.17,0h-1.08c-.1,0-.19-.08-.19-.19s.08-.19,.19-.19h1.08c.1,0,.19,.08,.19,.19s-.08,.19-.19,.19Zm-2.17,0h-1.08c-.1,0-.19-.08-.19-.19s.08-.19,.19-.19h1.08c.1,0,.19,.08,.19,.19s-.08,.19-.19,.19Z"/><path class="cls-13" d="M95.07,35.77h-.56c-.1,0-.19-.08-.19-.19s.08-.19,.19-.19h.56c.1,0,.19,.08,.19,.19s-.08,.19-.19,.19Z"/></g><path class="cls-13" d="M95.07,38.43h-17.37c-.1,0-.19-.08-.19-.19s.08-.19,.19-.19h17.37c.1,0,.19,.08,.19,.19s-.08,.19-.19,.19Z"/><path class="cls-13" d="M94.56,41.1h-1.12c-.1,0-.19-.08-.19-.19s.08-.19,.19-.19h1.12c.1,0,.19,.08,.19,.19s-.08,.19-.19,.19Zm-2.25,0h-1.12c-.1,0-.19-.08-.19-.19s.08-.19,.19-.19h1.12c.1,0,.19,.08,.19,.19s-.08,.19-.19,.19Zm-2.25,0h-1.12c-.1,0-.19-.08-.19-.19s.08-.19,.19-.19h1.12c.1,0,.19,.08,.19,.19s-.08,.19-.19,.19Zm-2.25,0h-1.12c-.1,0-.19-.08-.19-.19s.08-.19,.19-.19h1.12c.1,0,.19,.08,.19,.19s-.08,.19-.19,.19Zm-2.25,0h-1.12c-.1,0-.19-.08-.19-.19s.08-.19,.19-.19h1.12c.1,0,.19,.08,.19,.19s-.08,.19-.19,.19Zm-2.25,0h-1.12c-.1,0-.19-.08-.19-.19s.08-.19,.19-.19h1.12c.1,0,.19,.08,.19,.19s-.08,.19-.19,.19Zm-2.25,0h-1.12c-.1,0-.19-.08-.19-.19s.08-.19,.19-.19h1.12c.1,0,.19,.08,.19,.19s-.08,.19-.19,.19Zm-2.25,0h-1.12c-.1,0-.19-.08-.19-.19s.08-.19,.19-.19h1.12c.1,0,.19,.08,.19,.19s-.08,.19-.19,.19Z"/><path class="cls-13" d="M88.54,43.76h-10.84c-.1,0-.19-.08-.19-.19s.08-.19,.19-.19h10.84c.1,0,.19,.08,.19,.19s-.08,.19-.19,.19Z"/></g><g><path class="cls-13" d="M38.57,19.8H21.19c-.1,0-.19-.08-.19-.19s.08-.19,.19-.19h17.37c.1,0,.19,.08,.19,.19s-.08,.19-.19,.19Z"/><g><path class="cls-13" d="M21.76,22.45h-.56c-.1,0-.19-.08-.19-.19s.08-.19,.19-.19h.56c.1,0,.19,.08,.19,.19s-.08,.19-.19,.19Z"/><path class="cls-13" d="M36.92,22.45h-1.08c-.1,0-.19-.08-.19-.19s.08-.19,.19-.19h1.08c.1,0,.19,.08,.19,.19s-.08,.19-.19,.19Zm-2.17,0h-1.08c-.1,0-.19-.08-.19-.19s.08-.19,.19-.19h1.08c.1,0,.19,.08,.19,.19s-.08,.19-.19,.19Zm-2.17,0h-1.08c-.1,0-.19-.08-.19-.19s.08-.19,.19-.19h1.08c.1,0,.19,.08,.19,.19s-.08,.19-.19,.19Zm-2.17,0h-1.08c-.1,0-.19-.08-.19-.19s.08-.19,.19-.19h1.08c.1,0,.19,.08,.19,.19s-.08,.19-.19,.19Zm-2.17,0h-1.08c-.1,0-.19-.08-.19-.19s.08-.19,.19-.19h1.08c.1,0,.19,.08,.19,.19s-.08,.19-.19,.19Zm-2.17,0h-1.08c-.1,0-.19-.08-.19-.19s.08-.19,.19-.19h1.08c.1,0,.19,.08,.19,.19s-.08,.19-.19,.19Zm-2.17,0h-1.08c-.1,0-.19-.08-.19-.19s.08-.19,.19-.19h1.08c.1,0,.19,.08,.19,.19s-.08,.19-.19,.19Z"/><path class="cls-13" d="M38.57,22.45h-.56c-.1,0-.19-.08-.19-.19s.08-.19,.19-.19h.56c.1,0,.19,.08,.19,.19s-.08,.19-.19,.19Z"/></g><path class="cls-13" d="M38.57,25.1H21.19c-.1,0-.19-.08-.19-.19s.08-.19,.19-.19h17.37c.1,0,.19,.08,.19,.19s-.08,.19-.19,.19Z"/><path class="cls-13" d="M38.57,27.75H21.19c-.1,0-.19-.08-.19-.19s.08-.19,.19-.19h17.37c.1,0,.19,.08,.19,.19s-.08,.19-.19,.19Z"/><path class="cls-13" d="M31.31,30.41h-1.12c-.1,0-.19-.08-.19-.19s.08-.19,.19-.19h1.12c.1,0,.19,.08,.19,.19s-.08,.19-.19,.19Zm-2.25,0h-1.12c-.1,0-.19-.08-.19-.19s.08-.19,.19-.19h1.12c.1,0,.19,.08,.19,.19s-.08,.19-.19,.19Zm-2.25,0h-1.12c-.1,0-.19-.08-.19-.19s.08-.19,.19-.19h1.12c.1,0,.19,.08,.19,.19s-.08,.19-.19,.19Zm-2.25,0h-1.12c-.1,0-.19-.08-.19-.19s.08-.19,.19-.19h1.12c.1,0,.19,.08,.19,.19s-.08,.19-.19,.19Zm-2.25,0h-1.12c-.1,0-.19-.08-.19-.19s.08-.19,.19-.19h1.12c.1,0,.19,.08,.19,.19s-.08,.19-.19,.19Z"/><path class="cls-13" d="M38.06,33.26h-1.12c-.1,0-.19-.08-.19-.19s.08-.19,.19-.19h1.12c.1,0,.19,.08,.19,.19s-.08,.19-.19,.19Zm-2.25,0h-1.12c-.1,0-.19-.08-.19-.19s.08-.19,.19-.19h1.12c.1,0,.19,.08,.19,.19s-.08,.19-.19,.19Zm-2.25,0h-1.12c-.1,0-.19-.08-.19-.19s.08-.19,.19-.19h1.12c.1,0,.19,.08,.19,.19s-.08,.19-.19,.19Zm-2.25,0h-1.12c-.1,0-.19-.08-.19-.19s.08-.19,.19-.19h1.12c.1,0,.19,.08,.19,.19s-.08,.19-.19,.19Zm-2.25,0h-1.12c-.1,0-.19-.08-.19-.19s.08-.19,.19-.19h1.12c.1,0,.19,.08,.19,.19s-.08,.19-.19,.19Zm-2.25,0h-1.12c-.1,0-.19-.08-.19-.19s.08-.19,.19-.19h1.12c.1,0,.19,.08,.19,.19s-.08,.19-.19,.19Zm-2.25,0h-1.12c-.1,0-.19-.08-.19-.19s.08-.19,.19-.19h1.12c.1,0,.19,.08,.19,.19s-.08,.19-.19,.19Zm-2.25,0h-1.12c-.1,0-.19-.08-.19-.19s.08-.19,.19-.19h1.12c.1,0,.19,.08,.19,.19s-.08,.19-.19,.19Z"/><path class="cls-13" d="M38.57,35.91H21.19c-.1,0-.19-.08-.19-.19s.08-.19,.19-.19h17.37c.1,0,.19,.08,.19,.19s-.08,.19-.19,.19Z"/><path class="cls-13" d="M38.06,38.56h-1.12c-.1,0-.19-.08-.19-.19s.08-.19,.19-.19h1.12c.1,0,.19,.08,.19,.19s-.08,.19-.19,.19Zm-2.25,0h-1.12c-.1,0-.19-.08-.19-.19s.08-.19,.19-.19h1.12c.1,0,.19,.08,.19,.19s-.08,.19-.19,.19Zm-2.25,0h-1.12c-.1,0-.19-.08-.19-.19s.08-.19,.19-.19h1.12c.1,0,.19,.08,.19,.19s-.08,.19-.19,.19Zm-2.25,0h-1.12c-.1,0-.19-.08-.19-.19s.08-.19,.19-.19h1.12c.1,0,.19,.08,.19,.19s-.08,.19-.19,.19Zm-2.25,0h-1.12c-.1,0-.19-.08-.19-.19s.08-.19,.19-.19h1.12c.1,0,.19,.08,.19,.19s-.08,.19-.19,.19Zm-2.25,0h-1.12c-.1,0-.19-.08-.19-.19s.08-.19,.19-.19h1.12c.1,0,.19,.08,.19,.19s-.08,.19-.19,.19Zm-2.25,0h-1.12c-.1,0-.19-.08-.19-.19s.08-.19,.19-.19h1.12c.1,0,.19,.08,.19,.19s-.08,.19-.19,.19Zm-2.25,0h-1.12c-.1,0-.19-.08-.19-.19s.08-.19,.19-.19h1.12c.1,0,.19,.08,.19,.19s-.08,.19-.19,.19Z"/><path class="cls-13" d="M38.57,41.21H21.19c-.1,0-.19-.08-.19-.19s.08-.19,.19-.19h17.37c.1,0,.19,.08,.19,.19s-.08,.19-.19,.19Z"/><path class="cls-13" d="M31.31,43.86h-1.12c-.1,0-.19-.08-.19-.19s.08-.19,.19-.19h1.12c.1,0,.19,.08,.19,.19s-.08,.19-.19,.19Zm-2.25,0h-1.12c-.1,0-.19-.08-.19-.19s.08-.19,.19-.19h1.12c.1,0,.19,.08,.19,.19s-.08,.19-.19,.19Zm-2.25,0h-1.12c-.1,0-.19-.08-.19-.19s.08-.19,.19-.19h1.12c.1,0,.19,.08,.19,.19s-.08,.19-.19,.19Zm-2.25,0h-1.12c-.1,0-.19-.08-.19-.19s.08-.19,.19-.19h1.12c.1,0,.19,.08,.19,.19s-.08,.19-.19,.19Zm-2.25,0h-1.12c-.1,0-.19-.08-.19-.19s.08-.19,.19-.19h1.12c.1,0,.19,.08,.19,.19s-.08,.19-.19,.19Z"/></g><path class="cls-10" d="M94.66,97.64c-1.91,0-3.47-1.56-3.47-3.47s1.56-3.47,3.47-3.47,3.47,1.56,3.47,3.47-1.56,3.47-3.47,3.47Zm0-5.81c-1.29,0-2.34,1.05-2.34,2.34s1.05,2.34,2.34,2.34,2.34-1.05,2.34-2.34-1.05-2.34-2.34-2.34Z"/><path class="cls-10" d="M94.66,91.82c-.31,0-.56-.25-.56-.56v-1.34c0-.31,.25-.56,.56-.56s.56,.25,.56,.56v1.34c0,.31-.25,.56-.56,.56Z"/><path class="cls-10" d="M94.66,98.98c-.31,0-.56-.25-.56-.56v-1.34c0-.31,.25-.56,.56-.56s.56,.25,.56,.56v1.34c0,.31-.25,.56-.56,.56Z"/><path class="cls-10" d="M91.75,94.73h-1.34c-.31,0-.56-.25-.56-.56s.25-.56,.56-.56h1.34c.31,0,.56,.25,.56,.56s-.25,.56-.56,.56Z"/><path class="cls-10" d="M98.9,94.73h-1.34c-.31,0-.56-.25-.56-.56s.25-.56,.56-.56h1.34c.31,0,.56,.25,.56,.56s-.25,.56-.56,.56Z"/><path class="cls-10" d="M91.65,97.74c-.14,0-.29-.05-.4-.16-.22-.22-.22-.58,0-.79l.95-.95c.22-.22,.58-.22,.79,0,.22,.22,.22,.58,0,.79l-.95,.95c-.11,.11-.25,.16-.4,.16Z"/><path class="cls-10" d="M96.71,92.68c-.14,0-.29-.05-.4-.16-.22-.22-.22-.58,0-.79l.95-.95c.22-.22,.58-.22,.79,0,.22,.22,.22,.58,0,.79l-.95,.95c-.11,.11-.25,.16-.4,.16Z"/><path class="cls-10" d="M97.66,97.74c-.14,0-.29-.05-.4-.16l-.95-.95c-.22-.22-.22-.58,0-.79s.58-.22,.79,0l.95,.95c.22,.22,.22,.58,0,.79-.11,.11-.25,.16-.4,.16Z"/><path class="cls-10" d="M92.6,92.68c-.14,0-.29-.05-.4-.16l-.95-.95c-.22-.22-.22-.58,0-.79s.58-.22,.79,0l.95,.95c.22,.22,.22,.58,0,.79-.11,.11-.25,.16-.4,.16Z"/><g><path class="cls-2" d="M36.43,84.96h-15.24c-.1,0-.19-.08-.19-.19s.08-.19,.19-.19h15.24c.1,0,.19,.08,.19,.19s-.08,.19-.19,.19Z"/><path class="cls-2" d="M35.81,86.39h-1.12c-.1,0-.19-.08-.19-.19s.08-.19,.19-.19h1.12c.1,0,.19,.08,.19,.19s-.08,.19-.19,.19Zm-2.25,0h-1.12c-.1,0-.19-.08-.19-.19s.08-.19,.19-.19h1.12c.1,0,.19,.08,.19,.19s-.08,.19-.19,.19Zm-2.25,0h-1.12c-.1,0-.19-.08-.19-.19s.08-.19,.19-.19h1.12c.1,0,.19,.08,.19,.19s-.08,.19-.19,.19Zm-2.25,0h-1.12c-.1,0-.19-.08-.19-.19s.08-.19,.19-.19h1.12c.1,0,.19,.08,.19,.19s-.08,.19-.19,.19Zm-2.25,0h-1.12c-.1,0-.19-.08-.19-.19s.08-.19,.19-.19h1.12c.1,0,.19,.08,.19,.19s-.08,.19-.19,.19Zm-2.25,0h-1.12c-.1,0-.19-.08-.19-.19s.08-.19,.19-.19h1.12c.1,0,.19,.08,.19,.19s-.08,.19-.19,.19Zm-2.25,0h-1.12c-.1,0-.19-.08-.19-.19s.08-.19,.19-.19h1.12c.1,0,.19,.08,.19,.19s-.08,.19-.19,.19Z"/><path class="cls-2" d="M36.43,87.82h-15.24c-.1,0-.19-.08-.19-.19s.08-.19,.19-.19h15.24c.1,0,.19,.08,.19,.19s-.08,.19-.19,.19Z"/><path class="cls-2" d="M36.43,89.25h-15.24c-.1,0-.19-.08-.19-.19s.08-.19,.19-.19h15.24c.1,0,.19,.08,.19,.19s-.08,.19-.19,.19Z"/><path class="cls-2" d="M30.7,90.68h-9.51c-.1,0-.19-.08-.19-.19s.08-.19,.19-.19h9.51c.1,0,.19,.08,.19,.19s-.08,.19-.19,.19Z"/><path class="cls-2" d="M36.43,92.21h-15.24c-.1,0-.19-.08-.19-.19s.08-.19,.19-.19h15.24c.1,0,.19,.08,.19,.19s-.08,.19-.19,.19Z"/><path class="cls-2" d="M35.81,95.07h-1.12c-.1,0-.19-.08-.19-.19s.08-.19,.19-.19h1.12c.1,0,.19,.08,.19,.19s-.08,.19-.19,.19Zm-2.25,0h-1.12c-.1,0-.19-.08-.19-.19s.08-.19,.19-.19h1.12c.1,0,.19,.08,.19,.19s-.08,.19-.19,.19Zm-2.25,0h-1.12c-.1,0-.19-.08-.19-.19s.08-.19,.19-.19h1.12c.1,0,.19,.08,.19,.19s-.08,.19-.19,.19Zm-2.25,0h-1.12c-.1,0-.19-.08-.19-.19s.08-.19,.19-.19h1.12c.1,0,.19,.08,.19,.19s-.08,.19-.19,.19Zm-2.25,0h-1.12c-.1,0-.19-.08-.19-.19s.08-.19,.19-.19h1.12c.1,0,.19,.08,.19,.19s-.08,.19-.19,.19Zm-2.25,0h-1.12c-.1,0-.19-.08-.19-.19s.08-.19,.19-.19h1.12c.1,0,.19,.08,.19,.19s-.08,.19-.19,.19Zm-2.25,0h-1.12c-.1,0-.19-.08-.19-.19s.08-.19,.19-.19h1.12c.1,0,.19,.08,.19,.19s-.08,.19-.19,.19Z"/><path class="cls-2" d="M36.43,96.5h-15.24c-.1,0-.19-.08-.19-.19s.08-.19,.19-.19h15.24c.1,0,.19,.08,.19,.19s-.08,.19-.19,.19Z"/><path class="cls-2" d="M30.7,97.93h-9.51c-.1,0-.19-.08-.19-.19s.08-.19,.19-.19h9.51c.1,0,.19,.08,.19,.19s-.08,.19-.19,.19Z"/></g><g><polygon class="cls-6" points="102.53 102.75 58.63 102.75 58.63 63.55 59.76 63.55 59.76 101.62 101.4 101.62 101.4 22.77 102.53 22.77 102.53 102.75"/><polygon class="cls-6" points="97.37 26.5 98.19 27.26 101.96 23.2 105.74 27.26 106.56 26.5 101.96 21.55 97.37 26.5"/></g><path class="cls-8" d="M69.1,40.16c0-5.49-4.45-9.94-9.94-9.94s-9.94,4.45-9.94,9.94c0,3.04,1.37,5.77,3.53,7.59,.75,3,1.41,6,1.41,9.07,3.34,0,6.67,0,10.01,0,0-3.07,.66-6.07,1.41-9.07,2.16-1.82,3.53-4.55,3.53-7.59Z"/><path class="cls-11" d="M59.16,30.21c-5.49,0-9.94,4.45-9.94,9.94,0,3.04,1.37,5.77,3.53,7.59,.75,3,1.41,6,1.41,9.07,1.67,0,3.34,0,5,0V30.21Z"/><path class="cls-1" d="M60.98,57.38h-3.65c-.28,0-.52-.21-.56-.49l-1.83-14.5c-.03-.23,.08-.45,.29-.56,.2-.11,.45-.09,.63,.06,.43,.35,.99,.66,1.24,.7,.27-1.15,1.14-1.95,2.13-1.97,.01,0,.02,0,.03,0,.71,0,1.56,.44,1.88,1.67,.05,.21,.12,.29,.15,.3,.19,.05,.74-.28,1.11-.67,.17-.17,.43-.22,.65-.11,.22,.1,.34,.34,.31,.58l-1.83,14.5c-.04,.28-.27,.49-.56,.49Zm-3.15-1.12h2.66l1.6-12.73c-.34,.16-.72,.25-1.09,.15-.32-.09-.75-.35-.94-1.11-.14-.53-.42-.82-.8-.82-.41,0-.91,.39-1.06,1.11-.11,.53-.46,.73-.66,.8-.4,.14-.89,.01-1.32-.2l1.61,12.8Z"/><path class="cls-2" d="M65.32,55.39h-12.33c0,5.24,2.76,9.49,6.16,9.49s6.16-4.25,6.16-9.49Z"/><path class="cls-12" d="M59.19,55.39h-6.2c0,5.24,2.76,9.49,6.16,9.49l.04-9.49Z"/><path class="cls-2" d="M103.74,101.48c0,.98-.8,1.78-1.78,1.78s-1.78-.8-1.78-1.78,.8-1.78,1.78-1.78,1.78,.8,1.78,1.78Z"/><path class="cls-2" d="M103.74,85.32c0,.98-.8,1.78-1.78,1.78s-1.78-.8-1.78-1.78,.8-1.78,1.78-1.78,1.78,.8,1.78,1.78Z"/><path class="cls-2" d="M103.74,69.17c0,.98-.8,1.78-1.78,1.78s-1.78-.8-1.78-1.78,.8-1.78,1.78-1.78,1.78,.8,1.78,1.78Z"/><path class="cls-2" d="M103.74,53.01c0,.98-.8,1.78-1.78,1.78s-1.78-.8-1.78-1.78,.8-1.78,1.78-1.78,1.78,.8,1.78,1.78Z"/><path class="cls-2" d="M103.74,36.86c0,.98-.8,1.78-1.78,1.78s-1.78-.8-1.78-1.78,.8-1.78,1.78-1.78,1.78,.8,1.78,1.78Z"/><g><path class="cls-3" d="M83.85,94.34c-.1,0-.19-.08-.19-.19v-1.12c0-.1,.08-.19,.19-.19s.19,.08,.19,.19v1.12c0,.1-.08,.19-.19,.19Zm0-2.25c-.1,0-.19-.08-.19-.19v-1.12c0-.1,.08-.19,.19-.19s.19,.08,.19,.19v1.12c0,.1-.08,.19-.19,.19Zm0-2.25c-.1,0-.19-.08-.19-.19v-1.12c0-.1,.08-.19,.19-.19s.19,.08,.19,.19v1.12c0,.1-.08,.19-.19,.19Zm0-2.25c-.1,0-.19-.08-.19-.19v-1.12c0-.1,.08-.19,.19-.19s.19,.08,.19,.19v1.12c0,.1-.08,.19-.19,.19Zm0-2.25c-.1,0-.19-.08-.19-.19v-1.12c0-.1,.08-.19,.19-.19s.19,.08,.19,.19v1.12c0,.1-.08,.19-.19,.19Zm0-2.25c-.1,0-.19-.08-.19-.19v-1.12c0-.1,.08-.19,.19-.19s.19,.08,.19,.19v1.12c0,.1-.08,.19-.19,.19Zm0-2.25c-.1,0-.19-.08-.19-.19v-1.12c0-.1,.08-.19,.19-.19s.19,.08,.19,.19v1.12c0,.1-.08,.19-.19,.19Zm0-2.25c-.1,0-.19-.08-.19-.19v-1.12c0-.1,.08-.19,.19-.19s.19,.08,.19,.19v1.12c0,.1-.08,.19-.19,.19Zm0-2.25c-.1,0-.19-.08-.19-.19v-1.12c0-.1,.08-.19,.19-.19s.19,.08,.19,.19v1.12c0,.1-.08,.19-.19,.19Zm0-2.25c-.1,0-.19-.08-.19-.19v-1.12c0-.1,.08-.19,.19-.19s.19,.08,.19,.19v1.12c0,.1-.08,.19-.19,.19Zm0-2.25c-.1,0-.19-.08-.19-.19v-1.12c0-.1,.08-.19,.19-.19s.19,.08,.19,.19v1.12c0,.1-.08,.19-.19,.19Zm0-2.25c-.1,0-.19-.08-.19-.19v-1.12c0-.1,.08-.19,.19-.19s.19,.08,.19,.19v1.12c0,.1-.08,.19-.19,.19Zm0-2.25c-.1,0-.19-.08-.19-.19v-1.12c0-.1,.08-.19,.19-.19s.19,.08,.19,.19v1.12c0,.1-.08,.19-.19,.19Zm0-2.25c-.1,0-.19-.08-.19-.19v-1.12c0-.1,.08-.19,.19-.19s.19,.08,.19,.19v1.12c0,.1-.08,.19-.19,.19Zm0-2.25c-.1,0-.19-.08-.19-.19v-1.12c0-.1,.08-.19,.19-.19s.19,.08,.19,.19v1.12c0,.1-.08,.19-.19,.19Zm0-2.25c-.1,0-.19-.08-.19-.19v-1.12c0-.1,.08-.19,.19-.19s.19,.08,.19,.19v1.12c0,.1-.08,.19-.19,.19Zm0-2.25c-.1,0-.19-.08-.19-.19v-1.12c0-.1,.08-.19,.19-.19s.19,.08,.19,.19v1.12c0,.1-.08,.19-.19,.19Zm0-2.25c-.1,0-.19-.08-.19-.19v-1.12c0-.1,.08-.19,.19-.19s.19,.08,.19,.19v1.12c0,.1-.08,.19-.19,.19Zm0-2.25c-.1,0-.19-.08-.19-.19v-.13c0-.1,.08-.19,.19-.19s.19,.08,.19,.19v.13c0,.1-.08,.19-.19,.19Z"/><polygon class="cls-3" points="84.49 54.3 83.85 53.66 83.22 54.3 83.22 53.76 83.85 53.12 84.49 53.76 84.49 54.3"/></g><g><path class="cls-3" d="M37.37,65.06c-.1,0-.19-.08-.19-.19v-.56c0-.1,.08-.19,.19-.19s.19,.08,.19,.19v.56c0,.1-.08,.19-.19,.19Z"/><path class="cls-3" d="M37.37,63.43c-.1,0-.19-.08-.19-.19v-1.07c0-.1,.08-.19,.19-.19s.19,.08,.19,.19v1.07c0,.1-.08,.19-.19,.19Zm0-2.15c-.1,0-.19-.08-.19-.19v-1.07c0-.1,.08-.19,.19-.19s.19,.08,.19,.19v1.07c0,.1-.08,.19-.19,.19Zm0-2.15c-.1,0-.19-.08-.19-.19v-1.07c0-.1,.08-.19,.19-.19s.19,.08,.19,.19v1.07c0,.1-.08,.19-.19,.19Zm0-2.15c-.1,0-.19-.08-.19-.19v-1.08c0-.1,.08-.19,.19-.19s.19,.08,.19,.19v1.08c0,.1-.08,.19-.19,.19Zm0-2.15c-.1,0-.19-.08-.19-.19v-1.07c0-.1,.08-.19,.19-.19s.19,.08,.19,.19v1.07c0,.1-.08,.19-.19,.19Zm0-2.15c-.1,0-.19-.08-.19-.19v-1.07c0-.1,.08-.19,.19-.19s.19,.08,.19,.19v1.07c0,.1-.08,.19-.19,.19Zm0-2.15c-.1,0-.19-.08-.19-.19v-1.07c0-.1,.08-.19,.19-.19s.19,.08,.19,.19v1.07c0,.1-.08,.19-.19,.19Zm0-2.15c-.1,0-.19-.08-.19-.19v-1.07c0-.1,.08-.19,.19-.19s.19,.08,.19,.19v1.07c0,.1-.08,.19-.19,.19Z"/><path class="cls-3" d="M37.37,46.23c-.1,0-.19-.08-.19-.19v-.56c0-.1,.08-.19,.19-.19s.19,.08,.19,.19v.56c0,.1-.08,.19-.19,.19Z"/><polygon class="cls-3" points="38.01 46.23 37.37 45.59 36.74 46.23 36.74 45.69 37.37 45.05 38.01 45.69 38.01 46.23"/></g><g><path class="cls-3" d="M42.11,19.6h-.56c-.1,0-.19-.08-.19-.19s.08-.19,.19-.19h.56c.1,0,.19,.08,.19,.19s-.08,.19-.19,.19Z"/><path class="cls-3" d="M72.94,19.6h-1.1c-.1,0-.19-.08-.19-.19s.08-.19,.19-.19h1.1c.1,0,.19,.08,.19,.19s-.08,.19-.19,.19Zm-2.2,0h-1.1c-.1,0-.19-.08-.19-.19s.08-.19,.19-.19h1.1c.1,0,.19,.08,.19,.19s-.08,.19-.19,.19Zm-2.2,0h-1.1c-.1,0-.19-.08-.19-.19s.08-.19,.19-.19h1.1c.1,0,.19,.08,.19,.19s-.08,.19-.19,.19Zm-2.2,0h-1.1c-.1,0-.19-.08-.19-.19s.08-.19,.19-.19h1.1c.1,0,.19,.08,.19,.19s-.08,.19-.19,.19Zm-2.2,0h-1.1c-.1,0-.19-.08-.19-.19s.08-.19,.19-.19h1.1c.1,0,.19,.08,.19,.19s-.08,.19-.19,.19Zm-2.2,0h-1.1c-.1,0-.19-.08-.19-.19s.08-.19,.19-.19h1.1c.1,0,.19,.08,.19,.19s-.08,.19-.19,.19Zm-2.2,0h-1.1c-.1,0-.19-.08-.19-.19s.08-.19,.19-.19h1.1c.1,0,.19,.08,.19,.19s-.08,.19-.19,.19Zm-2.2,0h-1.1c-.1,0-.19-.08-.19-.19s.08-.19,.19-.19h1.1c.1,0,.19,.08,.19,.19s-.08,.19-.19,.19Zm-2.2,0h-1.1c-.1,0-.19-.08-.19-.19s.08-.19,.19-.19h1.1c.1,0,.19,.08,.19,.19s-.08,.19-.19,.19Zm-2.2,0h-1.1c-.1,0-.19-.08-.19-.19s.08-.19,.19-.19h1.1c.1,0,.19,.08,.19,.19s-.08,.19-.19,.19Zm-2.2,0h-1.1c-.1,0-.19-.08-.19-.19s.08-.19,.19-.19h1.1c.1,0,.19,.08,.19,.19s-.08,.19-.19,.19Zm-2.2,0h-1.1c-.1,0-.19-.08-.19-.19s.08-.19,.19-.19h1.1c.1,0,.19,.08,.19,.19s-.08,.19-.19,.19Zm-2.2,0h-1.1c-.1,0-.19-.08-.19-.19s.08-.19,.19-.19h1.1c.1,0,.19,.08,.19,.19s-.08,.19-.19,.19Zm-2.2,0h-1.1c-.1,0-.19-.08-.19-.19s.08-.19,.19-.19h1.1c.1,0,.19,.08,.19,.19s-.08,.19-.19,.19Z"/><path class="cls-3" d="M74.6,19.6h-.56c-.1,0-.19-.08-.19-.19s.08-.19,.19-.19h.56c.1,0,.19,.08,.19,.19s-.08,.19-.19,.19Z"/><polygon class="cls-3" points="42.29 20.04 41.66 19.41 42.29 18.77 41.75 18.77 41.12 19.41 41.75 20.04 42.29 20.04"/><polygon class="cls-3" points="73.86 20.04 74.49 19.41 73.86 18.77 74.4 18.77 75.03 19.41 74.4 20.04 73.86 20.04"/></g><path class="cls-8" d="M91.99,86.81c0,1.19-.96,2.15-2.15,2.15s-2.15-.96-2.15-2.15,.96-2.15,2.15-2.15,2.15,.96,2.15,2.15Z"/><path class="cls-8" d="M39.53,64.88c0,1.19-.96,2.15-2.15,2.15s-2.15-.96-2.15-2.15,.96-2.15,2.15-2.15,2.15,.96,2.15,2.15Z"/><path class="cls-4" d="M61.3,67.03c0,1.19-.96,2.15-2.15,2.15s-2.15-.96-2.15-2.15,.96-2.15,2.15-2.15,2.15,.96,2.15,2.15Z"/><path class="cls-5" d="M59.15,69.19c-1.19,0-2.15-.96-2.15-2.15s.96-2.15,2.15-2.15v4.31Z"/><path class="cls-4" d="M61.35,79.48c0,1.19-.96,2.15-2.15,2.15s-2.15-.96-2.15-2.15,.96-2.15,2.15-2.15,2.15,.96,2.15,2.15Z"/><path class="cls-5" d="M59.19,81.64c-1.19,0-2.15-.96-2.15-2.15s.96-2.15,2.15-2.15v4.31Z"/><path class="cls-4" d="M61.35,88.93c0,1.19-.96,2.15-2.15,2.15s-2.15-.96-2.15-2.15,.96-2.15,2.15-2.15,2.15,.96,2.15,2.15Z"/><path class="cls-5" d="M59.19,91.08c-1.19,0-2.15-.96-2.15-2.15s.96-2.15,2.15-2.15v4.31Z"/><path class="cls-4" d="M61.3,101.48c0,1.19-.96,2.15-2.15,2.15s-2.15-.96-2.15-2.15,.96-2.15,2.15-2.15,2.15,.96,2.15,2.15Z"/><path class="cls-5" d="M59.15,103.63c-1.19,0-2.15-.96-2.15-2.15s.96-2.15,2.15-2.15v4.31Z"/><g><path class="cls-13" d="M55.1,102.2h-.56c-.1,0-.19-.08-.19-.19s.08-.19,.19-.19h.56c.1,0,.19,.08,.19,.19s-.08,.19-.19,.19Z"/><path class="cls-13" d="M53.42,102.2h-1.12c-.1,0-.19-.08-.19-.19s.08-.19,.19-.19h1.12c.1,0,.19,.08,.19,.19s-.08,.19-.19,.19Zm-2.24,0h-1.12c-.1,0-.19-.08-.19-.19s.08-.19,.19-.19h1.12c.1,0,.19,.08,.19,.19s-.08,.19-.19,.19Zm-2.24,0h-1.12c-.1,0-.19-.08-.19-.19s.08-.19,.19-.19h1.12c.1,0,.19,.08,.19,.19s-.08,.19-.19,.19Zm-2.24,0h-1.12c-.1,0-.19-.08-.19-.19s.08-.19,.19-.19h1.12c.1,0,.19,.08,.19,.19s-.08,.19-.19,.19Zm-2.24,0h-1.12c-.1,0-.19-.08-.19-.19s.08-.19,.19-.19h1.12c.1,0,.19,.08,.19,.19s-.08,.19-.19,.19Zm-2.24,0h-1.12c-.1,0-.19-.08-.19-.19s.08-.19,.19-.19h1.12c.1,0,.19,.08,.19,.19s-.08,.19-.19,.19Zm-2.24,0h-1.12c-.1,0-.19-.08-.19-.19s.08-.19,.19-.19h1.12c.1,0,.19,.08,.19,.19s-.08,.19-.19,.19Zm-2.24,0h-1.12c-.1,0-.19-.08-.19-.19s.08-.19,.19-.19h1.12c.1,0,.19,.08,.19,.19s-.08,.19-.19,.19Zm-2.24,0h-1.12c-.1,0-.19-.08-.19-.19s.08-.19,.19-.19h1.12c.1,0,.19,.08,.19,.19s-.08,.19-.19,.19Zm-2.24,0h-1.12c-.1,0-.19-.08-.19-.19s.08-.19,.19-.19h1.12c.1,0,.19,.08,.19,.19s-.08,.19-.19,.19Zm-2.24,0h-1.12c-.1,0-.19-.08-.19-.19s.08-.19,.19-.19h1.12c.1,0,.19,.08,.19,.19s-.08,.19-.19,.19Zm-2.24,0h-1.12c-.1,0-.19-.08-.19-.19s.08-.19,.19-.19h1.12c.1,0,.19,.08,.19,.19s-.08,.19-.19,.19Z"/><path class="cls-13" d="M26.51,102.2h-.56c-.1,0-.19-.08-.19-.19v-.56c0-.1,.08-.19,.19-.19s.19,.08,.19,.19v.37h.37c.1,0,.19,.08,.19,.19s-.08,.19-.19,.19Z"/><path class="cls-13" d="M25.95,100.59c-.1,0-.19-.08-.19-.19v-1.05c0-.1,.08-.19,.19-.19s.19,.08,.19,.19v1.05c0,.1-.08,.19-.19,.19Z"/><path class="cls-13" d="M25.95,98.5c-.1,0-.19-.08-.19-.19v-.56c0-.1,.08-.19,.19-.19s.19,.08,.19,.19v.56c0,.1-.08,.19-.19,.19Z"/><polygon class="cls-13" points="53.86 100.48 53.6 100.76 54.96 102.02 53.6 103.28 53.86 103.55 55.51 102.02 53.86 100.48"/></g><g><path class="cls-3" d="M59.16,38.42c-.1,0-.19-.08-.19-.19v-.56c0-.1,.08-.19,.19-.19s.19,.08,.19,.19v.56c0,.1-.08,.19-.19,.19Z"/><path class="cls-3" d="M59.16,36.82c-.1,0-.19-.08-.19-.19v-1.04c0-.1,.08-.19,.19-.19s.19,.08,.19,.19v1.04c0,.1-.08,.19-.19,.19Zm0-2.07c-.1,0-.19-.08-.19-.19v-1.04c0-.1,.08-.19,.19-.19s.19,.08,.19,.19v1.04c0,.1-.08,.19-.19,.19Zm0-2.07c-.1,0-.19-.08-.19-.19v-1.04c0-.1,.08-.19,.19-.19s.19,.08,.19,.19v1.04c0,.1-.08,.19-.19,.19Zm0-2.07c-.1,0-.19-.08-.19-.19v-1.04c0-.1,.08-.19,.19-.19s.19,.08,.19,.19v1.04c0,.1-.08,.19-.19,.19Zm0-2.07c-.1,0-.19-.08-.19-.19v-1.04c0-.1,.08-.19,.19-.19s.19,.08,.19,.19v1.04c0,.1-.08,.19-.19,.19Zm0-2.07c-.1,0-.19-.08-.19-.19v-1.04c0-.1,.08-.19,.19-.19s.19,.08,.19,.19v1.04c0,.1-.08,.19-.19,.19Z"/><path class="cls-3" d="M59.16,24.38c-.1,0-.19-.08-.19-.19v-.56c0-.1,.08-.19,.19-.19s.19,.08,.19,.19v.56c0,.1-.08,.19-.19,.19Z"/><polygon class="cls-3" points="60.69 36.99 60.41 36.73 59.16 38.09 57.9 36.73 57.62 36.99 59.16 38.64 60.69 36.99"/></g><path class="cls-7" d="M31.43,64.84c0-3.28,2.67-5.94,5.94-5.94v-3.34c-.33,0-.67,.02-1,.05l.18,1.7c-.53,.06-1.05,.17-1.55,.33l-.53-1.63c-.61,.2-1.21,.47-1.77,.8l.86,1.48c-.46,.27-.89,.58-1.28,.93l-1.15-1.27c-.48,.43-.91,.92-1.29,1.44l1.39,1.01c-.31,.43-.57,.88-.79,1.37l-1.57-.69c-.26,.59-.46,1.21-.6,1.85l1.67,.35c-.11,.5-.16,1.02-.16,1.56,0,0,0,.01,0,.02h-1.71c0,.65,.07,1.3,.2,1.93l1.67-.36c.11,.52,.28,1.03,.49,1.5l-1.56,.7c.26,.59,.59,1.15,.97,1.68l1.38-1.01c.31,.43,.67,.82,1.06,1.17l-1.15,1.28c.48,.43,1.01,.82,1.57,1.14l.86-1.49c.45,.26,.94,.48,1.44,.64l-.53,1.63c.62,.2,1.25,.33,1.9,.4l.17-1.7c.26,.03,.52,.04,.78,.04v-1.63c-3.28,0-5.94-2.67-5.94-5.94Z"/><path class="cls-10" d="M44.95,64.82c0-.55-.06-1.08-.17-1.59l1.67-.36c-.14-.63-.34-1.25-.61-1.85l-1.56,.7c-.22-.48-.49-.94-.8-1.37l1.38-1.01c-.38-.52-.82-1-1.3-1.44l-1.14,1.28c-.39-.35-.82-.66-1.28-.93l.85-1.49c-.56-.32-1.16-.59-1.78-.78l-.52,1.63c-.5-.16-1.01-.27-1.55-.32l.17-1.7c-.31-.03-.62-.05-.94-.05v3.34c3.28,0,5.94,2.67,5.94,5.94s-2.67,5.94-5.94,5.94v1.63c.27,0,.54-.01,.8-.04l.18,1.7c.65-.07,1.28-.2,1.9-.4l-.53-1.63c.51-.17,.99-.38,1.44-.65l.86,1.48c.56-.32,1.09-.71,1.57-1.14l-1.15-1.27c.39-.35,.75-.75,1.06-1.18l1.39,1.01c.38-.52,.71-1.09,.97-1.68l-1.57-.7c.21-.48,.38-.98,.49-1.5l1.67,.35c.13-.63,.2-1.28,.2-1.93v-.03l-1.71,.02Z"/><path class="cls-5" d="M76.81,65.85c0-3.28,2.67-5.94,5.94-5.94v-3.34c-.33,0-.67,.02-1,.05l.18,1.7c-.53,.06-1.05,.17-1.55,.33l-.53-1.63c-.61,.2-1.21,.47-1.77,.8l.86,1.48c-.46,.27-.89,.58-1.28,.93l-1.15-1.27c-.48,.43-.91,.92-1.29,1.44l1.39,1.01c-.31,.43-.57,.88-.79,1.37l-1.57-.69c-.26,.59-.46,1.21-.6,1.85l1.68,.35c-.11,.5-.16,1.02-.16,1.56,0,0,0,.01,0,.02h-1.71c0,.65,.07,1.3,.2,1.93l1.67-.36c.11,.52,.28,1.03,.49,1.5l-1.56,.7c.26,.59,.59,1.15,.97,1.68l1.38-1.01c.31,.43,.67,.82,1.06,1.17l-1.15,1.28c.48,.43,1.01,.82,1.57,1.14l.86-1.49c.45,.26,.94,.48,1.44,.64l-.53,1.63c.62,.2,1.25,.33,1.9,.4l.17-1.7c.26,.03,.52,.04,.78,.04v-1.63c-3.28,0-5.94-2.67-5.94-5.94Z"/><path class="cls-4" d="M90.32,65.84c0-.55-.06-1.08-.17-1.59l1.67-.36c-.14-.63-.34-1.25-.61-1.85l-1.56,.7c-.22-.48-.49-.94-.8-1.37l1.38-1.01c-.38-.52-.82-1-1.3-1.44l-1.14,1.28c-.39-.35-.82-.66-1.28-.93l.85-1.49c-.56-.32-1.16-.59-1.78-.78l-.52,1.63c-.5-.16-1.01-.27-1.55-.32l.17-1.7c-.31-.03-.62-.05-.94-.05v3.34c3.28,0,5.94,2.67,5.94,5.94s-2.67,5.94-5.94,5.94v1.63c.27,0,.54-.01,.8-.04l.18,1.7c.65-.07,1.28-.2,1.9-.4l-.53-1.63c.51-.17,.99-.38,1.44-.65l.86,1.48c.56-.32,1.09-.71,1.57-1.14l-1.15-1.27c.39-.35,.75-.75,1.06-1.18l1.39,1.01c.38-.52,.71-1.09,.97-1.68l-1.57-.7c.21-.48,.38-.98,.49-1.5l1.67,.35c.13-.63,.2-1.28,.2-1.93v-.03l-1.71,.02Z"/></g></svg>